<svg width="600" height="560" xmlns="http://www.w3.org/2000/svg">
  <g transform="translate(80, 45)">
    <text x="200" y="-20" font-family="Arial" font-size="16" font-weight="bold" text-anchor="middle">Semantic Space: Tokens as Points in 2D</text>
    <!-- Axes -->
    <line x1="0" y1="400" x2="400" y2="400" stroke="#333" stroke-width="2"/>
    <line x1="200" y1="0" x2="200" y2="500" stroke="#333" stroke-width="2"/>
    <!-- Axis labels -->
    <text x="200" y="435" font-family="Arial" font-size="14" text-anchor="middle">Dimension 1</text>
    <text x="30" y="200" font-family="Arial" font-size="14" text-anchor="middle" dominant-baseline="middle" transform="rotate(-90, 30, 200)">Dimension 2</text>
    <!-- Origin -->
    <circle cx="200" cy="400" r="3" fill="#333"/>
    <text x="205" y="405" font-family="Arial" font-size="11">(0,0)</text>
    <!-- Grid lines -->
    <line x1="100" y1="0" x2="100" y2="500" stroke="#ccc" stroke-width="1" stroke-dasharray="2,2"/>
    <line x1="300" y1="0" x2="300" y2="500" stroke="#ccc" stroke-width="1" stroke-dasharray="2,2"/>
    <line x1="0" y1="300" x2="400" y2="300" stroke="#ccc" stroke-width="1" stroke-dasharray="2,2"/>
    <line x1="0" y1="500" x2="400" y2="500" stroke="#ccc" stroke-width="1" stroke-dasharray="2,2"/>
    <!-- 'cat' at (0.3, 0.7) - scaled to (120, 160) -->
    <circle cx="120" cy="160" r="8" fill="#16a34a"/>
    <text x="130" y="165" font-family="Arial" font-size="12" font-weight="bold">'cat'</text>
    <text x="120" y="180" font-family="Arial" font-size="10" text-anchor="middle">(0.3, 0.7)</text>
    <!-- 'dog' at (0.4, 0.6) - close to cat -->
    <circle cx="160" cy="200" r="8" fill="#16a34a"/>
    <text x="170" y="205" font-family="Arial" font-size="12" font-weight="bold">'dog'</text>
    <text x="160" y="220" font-family="Arial" font-size="10" text-anchor="middle">(0.4, 0.6)</text>
    <!-- 'mat' at (-0.1, 0.2) - far from cat/dog -->
    <circle cx="160" cy="360" r="8" fill="#dc2626"/>
    <text x="170" y="365" font-family="Arial" font-size="12" font-weight="bold">'mat'</text>
    <text x="160" y="380" font-family="Arial" font-size="10" text-anchor="middle">(-0.1, 0.2)</text>
    <!-- Distance line between cat and dog (similar) -->
    <line x1="120" y1="160" x2="160" y2="200" stroke="#16a34a" stroke-width="2" stroke-dasharray="3,3" opacity="0.5"/>
    <text x="140" y="175" font-family="Arial" font-size="10" fill="#16a34a">Close (similar)</text>
    <!-- Distance line between cat and mat (different) -->
    <line x1="120" y1="160" x2="160" y2="360" stroke="#dc2626" stroke-width="2" stroke-dasharray="3,3" opacity="0.5"/>
    <text x="140" y="260" font-family="Arial" font-size="10" fill="#dc2626">Far (different)</text>
    <!-- Scale note -->
    <text x="200" y="450" font-family="Arial" font-size="11" fill="#666" text-anchor="middle">Note: Coordinates scaled for visualization. Similar tokens cluster together.</text>
  </g>
</svg>

