<svg width="600" height="400" xmlns="http://www.w3.org/2000/svg">
  <g transform="translate(80, 50)">
    <text x="200" y="-20" font-family="Arial" font-size="16" font-weight="bold">Training Progress: Loss Decreases Over Epochs</text>
    <!-- Axes -->
    <line x1="0" y1="300" x2="400" y2="300" stroke="#333" stroke-width="2"/>
    <line x1="0" y1="300" x2="0" y2="0" stroke="#333" stroke-width="2"/>
    <!-- Axis labels -->
    <text x="400" y="320" font-family="Arial" font-size="14">Epoch</text>
    <text x="-50" y="150" font-family="Arial" font-size="14" transform="rotate(-90, -50, 150)">Average Loss</text>
    <!-- Loss curve decreasing over epochs (smooth decay) -->
    <path d="M 0,50 Q 100,80 200,120 Q 300,160 400,200" stroke="#2563eb" stroke-width="3" fill="none"/>
    <!-- Epoch markers -->
    <circle cx="0" cy="50" r="4" fill="#dc2626"/>
    <text x="5" y="45" font-family="Arial" font-size="10">Epoch 1</text>
    <circle cx="100" cy="80" r="3" fill="#16a34a"/>
    <circle cx="200" cy="120" r="3" fill="#16a34a"/>
    <circle cx="300" cy="160" r="3" fill="#16a34a"/>
    <circle cx="400" cy="200" r="4" fill="#2563eb"/>
    <text x="405" y="195" font-family="Arial" font-size="10">Epoch N</text>
    <!-- Grid lines -->
    <line x1="100" y1="0" x2="100" y2="300" stroke="#ccc" stroke-width="1" stroke-dasharray="2,2"/>
    <line x1="200" y1="0" x2="200" y2="300" stroke="#ccc" stroke-width="1" stroke-dasharray="2,2"/>
    <line x1="300" y1="0" x2="300" y2="300" stroke="#ccc" stroke-width="1" stroke-dasharray="2,2"/>
    <line x1="0" y1="100" x2="400" y2="100" stroke="#ccc" stroke-width="1" stroke-dasharray="2,2"/>
    <line x1="0" y1="200" x2="400" y2="200" stroke="#ccc" stroke-width="1" stroke-dasharray="2,2"/>
    <!-- Labels -->
    <text x="0" y="310" font-family="Arial" font-size="11">1</text>
    <text x="390" y="310" font-family="Arial" font-size="11">N</text>
    <text x="-10" y="305" font-family="Arial" font-size="11">High</text>
    <text x="-15" y="25" font-family="Arial" font-size="11">Low</text>
    <!-- Convergence note -->
    <text x="200" y="340" font-family="Arial" font-size="12" fill="#666">Model learns and improves with each epoch</text>
  </g>
</svg>

