<svg width="600" height="400" xmlns="http://www.w3.org/2000/svg">
  <g transform="translate(80, 50)">
    <text x="200" y="-20" font-family="Arial" font-size="16" font-weight="bold">Loss Decreases as Model Learns Multiple Patterns</text>
    <!-- Axes -->
    <line x1="0" y1="300" x2="400" y2="300" stroke="#333" stroke-width="2"/>
    <line x1="0" y1="300" x2="0" y2="0" stroke="#333" stroke-width="2"/>
    <!-- Axis labels -->
    <text x="400" y="320" font-family="Arial" font-size="14">Training Iteration</text>
    <text x="-50" y="150" font-family="Arial" font-size="14" transform="rotate(-90, -50, 150)">Loss</text>
    <!-- Loss curve with some noise (realistic training) -->
    <path d="M 0,50 L 20,55 L 40,60 L 60,65 L 80,70 L 100,75 L 120,80 L 140,85 L 160,90 L 180,95 L 200,100 L 220,105 L 240,110 L 260,115 L 280,120 L 300,125 L 320,130 L 340,135 L 360,140 L 380,145 L 400,150" stroke="#2563eb" stroke-width="2" fill="none"/>
    <!-- Smoothed trend line -->
    <path d="M 0,50 Q 200,100 400,150" stroke="#dc2626" stroke-width="3" fill="none" stroke-dasharray="5,5"/>
    <!-- Grid lines -->
    <line x1="100" y1="0" x2="100" y2="300" stroke="#ccc" stroke-width="1" stroke-dasharray="2,2"/>
    <line x1="200" y1="0" x2="200" y2="300" stroke="#ccc" stroke-width="1" stroke-dasharray="2,2"/>
    <line x1="300" y1="0" x2="300" y2="300" stroke="#ccc" stroke-width="1" stroke-dasharray="2,2"/>
    <line x1="0" y1="100" x2="400" y2="100" stroke="#ccc" stroke-width="1" stroke-dasharray="2,2"/>
    <line x1="0" y1="200" x2="400" y2="200" stroke="#ccc" stroke-width="1" stroke-dasharray="2,2"/>
    <!-- Labels -->
    <text x="0" y="310" font-family="Arial" font-size="11">0</text>
    <text x="390" y="310" font-family="Arial" font-size="11">N</text>
    <text x="-10" y="305" font-family="Arial" font-size="11">High</text>
    <text x="-15" y="25" font-family="Arial" font-size="11">Low</text>
    <!-- Legend -->
    <line x1="50" y1="250" x2="80" y2="250" stroke="#2563eb" stroke-width="2"/>
    <text x="85" y="255" font-family="Arial" font-size="11">Actual Loss</text>
    <line x1="200" y1="250" x2="230" y2="250" stroke="#dc2626" stroke-width="3" stroke-dasharray="5,5"/>
    <text x="235" y="255" font-family="Arial" font-size="11">Trend</text>
  </g>
</svg>

