<svg width="280" height="280" xmlns="http://www.w3.org/2000/svg">
  <defs>
    <style>
      .title { font-family: Arial, sans-serif; font-size: 14px; font-weight: bold; fill: #1e293b; }
      .formula { font-family: 'Courier New', monospace; font-size: 12px; fill: #dc2626; }
      .label { font-family: Arial, sans-serif; font-size: 10px; fill: #1e293b; }
      .axis-label { font-family: Arial, sans-serif; font-size: 12px; fill: #1e293b; }
    </style>
  </defs>
  
  <text x="140" y="20" class="title" text-anchor="middle">Tanh</text>
  <text x="140" y="38" class="formula" text-anchor="middle">f(x) = tanh(x)</text>
  
  <g transform="translate(40, 70)">
    <rect x="0" y="0" width="200" height="200" fill="#fafafa" stroke="none"/>
    
    <line x1="50" y1="0" x2="50" y2="200" stroke="#e5e7eb" stroke-width="1" stroke-dasharray="2,2"/>
    <line x1="100" y1="0" x2="100" y2="200" stroke="#e5e7eb" stroke-width="1" stroke-dasharray="2,2"/>
    <line x1="150" y1="0" x2="150" y2="200" stroke="#e5e7eb" stroke-width="1" stroke-dasharray="2,2"/>
    <line x1="0" y1="50" x2="200" y2="50" stroke="#e5e7eb" stroke-width="1" stroke-dasharray="2,2"/>
    <line x1="0" y1="100" x2="200" y2="100" stroke="#e5e7eb" stroke-width="1" stroke-dasharray="2,2"/>
    <line x1="0" y1="150" x2="200" y2="150" stroke="#e5e7eb" stroke-width="1" stroke-dasharray="2,2"/>
    
    <line x1="0" y1="100" x2="200" y2="100" stroke="#333" stroke-width="2"/>
    <line x1="100" y1="0" x2="100" y2="200" stroke="#333" stroke-width="2"/>
    
    <text x="200" y="115" class="axis-label">x</text>
    <text x="95" y="-10" class="axis-label">f(x)</text>
    
    <path d="M 0.0,199.5 L 3.3,199.4 L 6.7,199.3 L 10.0,199.1 L 13.3,198.9 L 16.7,198.7 L 20.0,198.4 L 23.3,198.0 L 26.7,197.6 L 30.0,197.0 L 33.3,196.4 L 36.7,195.6 L 40.0,194.7 L 43.3,193.5 L 46.7,192.2 L 50.0,190.5 L 53.3,188.5 L 56.7,186.2 L 60.0,183.4 L 63.3,180.0 L 66.7,176.2 L 70.0,171.6 L 73.3,166.4 L 76.7,160.4 L 80.0,153.7 L 83.3,146.2 L 86.7,138.0 L 90.0,129.1 L 93.3,119.7 L 96.7,110.0 L 100.0,100.0 L 103.3,90.0 L 106.7,80.3 L 110.0,70.9 L 113.3,62.0 L 116.7,53.8 L 120.0,46.3 L 123.3,39.6 L 126.7,33.6 L 130.0,28.4 L 133.3,23.8 L 136.7,20.0 L 140.0,16.6 L 143.3,13.8 L 146.7,11.5 L 150.0,9.5 L 153.3,7.8 L 156.7,6.5 L 160.0,5.3 L 163.3,4.4 L 166.7,3.6 L 170.0,3.0 L 173.3,2.4 L 176.7,2.0 L 180.0,1.6 L 183.3,1.3 L 186.7,1.1 L 190.0,0.9 L 193.3,0.7 L 196.7,0.6 L 200.0,0.5" stroke="#16a34a" stroke-width="3" fill="none"/>
    
    <circle cx="100" cy="100" r="4" fill="#16a34a" stroke="white" stroke-width="1"/>
    <text x="115" y="88" class="label" fill="#16a34a">(0, 0)</text>
    
    <text x="-25" y="105" class="label" text-anchor="end">0</text>
    <text x="-25" y="55" class="label" text-anchor="end">+1</text>
    <text x="-25" y="155" class="label" text-anchor="end">-1</text>
    
    <text x="0" y="220" class="label" text-anchor="middle">-3</text>
    <text x="50" y="220" class="label" text-anchor="middle">-1.5</text>
    <text x="100" y="220" class="label" text-anchor="middle">0</text>
    <text x="150" y="220" class="label" text-anchor="middle">1.5</text>
    <text x="200" y="220" class="label" text-anchor="middle">3</text>
    
    <line x1="0" y1="5" x2="200" y2="5" stroke="#16a34a" stroke-width="1" stroke-dasharray="3,3" opacity="0.5"/>
    <line x1="0" y1="195" x2="200" y2="195" stroke="#16a34a" stroke-width="1" stroke-dasharray="3,3" opacity="0.5"/>
  </g>
</svg>