<svg width="280" height="280" xmlns="http://www.w3.org/2000/svg">
  <defs>
    <style>
      .title { font-family: Arial, sans-serif; font-size: 14px; font-weight: bold; fill: #1e293b; }
      .formula { font-family: 'Courier New', monospace; font-size: 12px; fill: #dc2626; }
      .label { font-family: Arial, sans-serif; font-size: 10px; fill: #1e293b; }
      .axis-label { font-family: Arial, sans-serif; font-size: 12px; fill: #1e293b; }
    </style>
  </defs>
  
  <text x="140" y="20" class="title" text-anchor="middle">ReLU</text>
  <text x="140" y="38" class="formula" text-anchor="middle">f(x) = max(0, x)</text>
  
  <g transform="translate(40, 70)">
    <rect x="0" y="0" width="200" height="200" fill="#fafafa" stroke="none"/>
    
    <line x1="50" y1="0" x2="50" y2="200" stroke="#e5e7eb" stroke-width="1" stroke-dasharray="2,2"/>
    <line x1="100" y1="0" x2="100" y2="200" stroke="#e5e7eb" stroke-width="1" stroke-dasharray="2,2"/>
    <line x1="150" y1="0" x2="150" y2="200" stroke="#e5e7eb" stroke-width="1" stroke-dasharray="2,2"/>
    <line x1="0" y1="66.7" x2="200" y2="66.7" stroke="#e5e7eb" stroke-width="1" stroke-dasharray="2,2"/>
    <line x1="0" y1="133.3" x2="200" y2="133.3" stroke="#e5e7eb" stroke-width="1" stroke-dasharray="2,2"/>
    <line x1="0" y1="200" x2="200" y2="200" stroke="#e5e7eb" stroke-width="1" stroke-dasharray="2,2"/>
    
    <line x1="0" y1="200" x2="200" y2="200" stroke="#333" stroke-width="2"/>
    <line x1="100" y1="0" x2="100" y2="200" stroke="#333" stroke-width="2"/>
    
    <text x="200" y="215" class="axis-label">x</text>
    <text x="95" y="-10" class="axis-label">f(x)</text>
    
    <path d="M 0.0,200.0 L 3.3,200.0 L 6.7,200.0 L 10.0,200.0 L 13.3,200.0 L 16.7,200.0 L 20.0,200.0 L 23.3,200.0 L 26.7,200.0 L 30.0,200.0 L 33.3,200.0 L 36.7,200.0 L 40.0,200.0 L 43.3,200.0 L 46.7,200.0 L 50.0,200.0 L 53.3,200.0 L 56.7,200.0 L 60.0,200.0 L 63.3,200.0 L 66.7,200.0 L 70.0,200.0 L 73.3,200.0 L 76.7,200.0 L 80.0,200.0 L 83.3,200.0 L 86.7,200.0 L 90.0,200.0 L 93.3,200.0 L 96.7,200.0 L 100.0,200.0 L 103.3,193.3 L 106.7,186.7 L 110.0,180.0 L 113.3,173.3 L 116.7,166.7 L 120.0,160.0 L 123.3,153.3 L 126.7,146.7 L 130.0,140.0 L 133.3,133.3 L 136.7,126.7 L 140.0,120.0 L 143.3,113.3 L 146.7,106.7 L 150.0,100.0 L 153.3,93.3 L 156.7,86.7 L 160.0,80.0 L 163.3,73.3 L 166.7,66.7 L 170.0,60.0 L 173.3,53.3 L 176.7,46.7 L 180.0,40.0 L 183.3,33.3 L 186.7,26.7 L 190.0,20.0 L 193.3,13.3 L 196.7,6.7 L 200.0,0.0" stroke="#2563eb" stroke-width="3" fill="none"/>
    
    <circle cx="100" cy="200" r="4" fill="#2563eb" stroke="white" stroke-width="1"/>
    <text x="115" y="188" class="label" fill="#2563eb">(0, 0)</text>
    
    <text x="-25" y="205" class="label" text-anchor="end">0</text>
    <text x="-25" y="138" class="label" text-anchor="end">1</text>
    <text x="-25" y="71" class="label" text-anchor="end">2</text>
    <text x="-25" y="5" class="label" text-anchor="end">3</text>
    
    <text x="0" y="220" class="label" text-anchor="middle">-3</text>
    <text x="50" y="220" class="label" text-anchor="middle">-1.5</text>
    <text x="100" y="220" class="label" text-anchor="middle">0</text>
    <text x="150" y="220" class="label" text-anchor="middle">1.5</text>
    <text x="200" y="220" class="label" text-anchor="middle">3</text>
  </g>
</svg>