<?xml version="1.0" encoding="utf-8" standalone="no"?>
<!DOCTYPE svg PUBLIC "-//W3C//DTD SVG 1.1//EN"
  "http://www.w3.org/Graphics/SVG/1.1/DTD/svg11.dtd">
<svg xmlns:xlink="http://www.w3.org/1999/xlink" width="856.8pt" height="424.637812pt" viewBox="0 0 856.8 424.637812" xmlns="http://www.w3.org/2000/svg" version="1.1">
 <metadata>
  <rdf:RDF xmlns:dc="http://purl.org/dc/elements/1.1/" xmlns:cc="http://creativecommons.org/ns#" xmlns:rdf="http://www.w3.org/1999/02/22-rdf-syntax-ns#">
   <cc:Work>
    <dc:type rdf:resource="http://purl.org/dc/dcmitype/StillImage"/>
    <dc:date>2026-01-01T11:39:38.706663</dc:date>
    <dc:format>image/svg+xml</dc:format>
    <dc:creator>
     <cc:Agent>
      <dc:title>Matplotlib v3.6.3, https://matplotlib.org/</dc:title>
     </cc:Agent>
    </dc:creator>
   </cc:Work>
  </rdf:RDF>
 </metadata>
 <defs>
  <style type="text/css">*{stroke-linejoin: round; stroke-linecap: butt}</style>
 </defs>
 <g id="figure_1">
  <g id="patch_1">
   <path d="M 0 424.637812 
L 856.8 424.637812 
L 856.8 0 
L 0 0 
z
" style="fill: none"/>
  </g>
  <g id="axes_1">
   <g id="patch_2">
    <path d="M 42.3 297.231146 
L 182.7 297.231146 
Q 189.72 297.231146 189.72 290.904479 
L 189.72 164.371146 
Q 189.72 158.044479 182.7 158.044479 
L 42.3 158.044479 
Q 35.28 158.044479 35.28 164.371146 
L 35.28 290.904479 
Q 35.28 297.231146 42.3 297.231146 
z
" clip-path="url(#pa13fa18ed5)" style="fill: #e1f5ff; stroke: #2563eb; stroke-width: 2; stroke-linejoin: miter"/>
   </g>
   <g id="patch_3">
    <path d="M 184.70094 227.637812 
Q 217.799379 227.637812 248.66175 227.637812 
" clip-path="url(#pa13fa18ed5)" style="fill: none; stroke: #2563eb; stroke-width: 2; stroke-linecap: round"/>
    <path d="M 240.66175 223.637812 
L 248.66175 227.637812 
L 240.66175 231.637812 
" clip-path="url(#pa13fa18ed5)" style="fill: none; stroke: #2563eb; stroke-width: 2; stroke-linecap: round"/>
   </g>
   <g id="patch_4">
    <path d="M 252.9 297.231146 
L 393.3 297.231146 
Q 400.32 297.231146 400.32 290.904479 
L 400.32 164.371146 
Q 400.32 158.044479 393.3 158.044479 
L 252.9 158.044479 
Q 245.88 158.044479 245.88 164.371146 
L 245.88 290.904479 
Q 245.88 297.231146 252.9 297.231146 
z
" clip-path="url(#pa13fa18ed5)" style="fill: #e1f5ff; stroke: #2563eb; stroke-width: 2; stroke-linejoin: miter"/>
   </g>
   <g id="patch_5">
    <path d="M 463.5 297.231146 
L 603.9 297.231146 
Q 610.92 297.231146 610.92 290.904479 
L 610.92 164.371146 
Q 610.92 158.044479 603.9 158.044479 
L 463.5 158.044479 
Q 456.48 158.044479 456.48 164.371146 
L 456.48 290.904479 
Q 456.48 297.231146 463.5 297.231146 
z
" clip-path="url(#pa13fa18ed5)" style="fill: #fff4e1; stroke: #f59e0b; stroke-width: 2; stroke-linejoin: miter"/>
   </g>
   <g id="patch_6">
    <path d="M 395.30094 132.737812 
Q 463.501588 132.737812 529.466167 132.737812 
" clip-path="url(#pa13fa18ed5)" style="fill: none; stroke-dasharray: 7.4,3.2; stroke-dashoffset: 0; stroke: #dc2626; stroke-width: 2; stroke-linecap: round"/>
    <path d="M 521.466167 128.737812 
L 529.466167 132.737812 
L 521.466167 136.737812 
" clip-path="url(#pa13fa18ed5)" style="fill: none; stroke-dasharray: 7.4,3.2; stroke-dashoffset: 0; stroke: #dc2626; stroke-width: 2; stroke-linecap: round"/>
   </g>
   <g id="text_1">
    <!-- Layer 1 -->
    <g transform="translate(87.612187 224.136625) scale(0.12 -0.12)">
     <defs>
      <path id="DejaVuSans-Bold-4c" d="M 588 4666 
L 1791 4666 
L 1791 909 
L 3903 909 
L 3903 0 
L 588 0 
L 588 4666 
z
" transform="scale(0.015625)"/>
      <path id="DejaVuSans-Bold-61" d="M 2106 1575 
Q 1756 1575 1579 1456 
Q 1403 1338 1403 1106 
Q 1403 894 1545 773 
Q 1688 653 1941 653 
Q 2256 653 2472 879 
Q 2688 1106 2688 1447 
L 2688 1575 
L 2106 1575 
z
M 3816 1997 
L 3816 0 
L 2688 0 
L 2688 519 
Q 2463 200 2181 54 
Q 1900 -91 1497 -91 
Q 953 -91 614 226 
Q 275 544 275 1050 
Q 275 1666 698 1953 
Q 1122 2241 2028 2241 
L 2688 2241 
L 2688 2328 
Q 2688 2594 2478 2717 
Q 2269 2841 1825 2841 
Q 1466 2841 1156 2769 
Q 847 2697 581 2553 
L 581 3406 
Q 941 3494 1303 3539 
Q 1666 3584 2028 3584 
Q 2975 3584 3395 3211 
Q 3816 2838 3816 1997 
z
" transform="scale(0.015625)"/>
      <path id="DejaVuSans-Bold-79" d="M 78 3500 
L 1197 3500 
L 2138 1125 
L 2938 3500 
L 4056 3500 
L 2584 -331 
Q 2363 -916 2067 -1148 
Q 1772 -1381 1288 -1381 
L 641 -1381 
L 641 -647 
L 991 -647 
Q 1275 -647 1404 -556 
Q 1534 -466 1606 -231 
L 1638 -134 
L 78 3500 
z
" transform="scale(0.015625)"/>
      <path id="DejaVuSans-Bold-65" d="M 4031 1759 
L 4031 1441 
L 1416 1441 
Q 1456 1047 1700 850 
Q 1944 653 2381 653 
Q 2734 653 3104 758 
Q 3475 863 3866 1075 
L 3866 213 
Q 3469 63 3072 -14 
Q 2675 -91 2278 -91 
Q 1328 -91 801 392 
Q 275 875 275 1747 
Q 275 2603 792 3093 
Q 1309 3584 2216 3584 
Q 3041 3584 3536 3087 
Q 4031 2591 4031 1759 
z
M 2881 2131 
Q 2881 2450 2695 2645 
Q 2509 2841 2209 2841 
Q 1884 2841 1681 2658 
Q 1478 2475 1428 2131 
L 2881 2131 
z
" transform="scale(0.015625)"/>
      <path id="DejaVuSans-Bold-72" d="M 3138 2547 
Q 2991 2616 2845 2648 
Q 2700 2681 2553 2681 
Q 2122 2681 1889 2404 
Q 1656 2128 1656 1613 
L 1656 0 
L 538 0 
L 538 3500 
L 1656 3500 
L 1656 2925 
Q 1872 3269 2151 3426 
Q 2431 3584 2822 3584 
Q 2878 3584 2943 3579 
Q 3009 3575 3134 3559 
L 3138 2547 
z
" transform="scale(0.015625)"/>
      <path id="DejaVuSans-Bold-20" transform="scale(0.015625)"/>
      <path id="DejaVuSans-Bold-31" d="M 750 831 
L 1813 831 
L 1813 3847 
L 722 3622 
L 722 4441 
L 1806 4666 
L 2950 4666 
L 2950 831 
L 4013 831 
L 4013 0 
L 750 0 
L 750 831 
z
" transform="scale(0.015625)"/>
     </defs>
     <use xlink:href="#DejaVuSans-Bold-4c"/>
     <use xlink:href="#DejaVuSans-Bold-61" x="63.720703"/>
     <use xlink:href="#DejaVuSans-Bold-79" x="128.076172"/>
     <use xlink:href="#DejaVuSans-Bold-65" x="193.261719"/>
     <use xlink:href="#DejaVuSans-Bold-72" x="261.083984"/>
     <use xlink:href="#DejaVuSans-Bold-20" x="310.400391"/>
     <use xlink:href="#DejaVuSans-Bold-31" x="345.214844"/>
    </g>
    <!-- (Linear) -->
    <g transform="translate(85.786875 237.66775) scale(0.12 -0.12)">
     <defs>
      <path id="DejaVuSans-Bold-28" d="M 2413 -844 
L 1484 -844 
Q 1006 -72 778 623 
Q 550 1319 550 2003 
Q 550 2688 779 3389 
Q 1009 4091 1484 4856 
L 2413 4856 
Q 2013 4116 1813 3408 
Q 1613 2700 1613 2009 
Q 1613 1319 1811 609 
Q 2009 -100 2413 -844 
z
" transform="scale(0.015625)"/>
      <path id="DejaVuSans-Bold-69" d="M 538 3500 
L 1656 3500 
L 1656 0 
L 538 0 
L 538 3500 
z
M 538 4863 
L 1656 4863 
L 1656 3950 
L 538 3950 
L 538 4863 
z
" transform="scale(0.015625)"/>
      <path id="DejaVuSans-Bold-6e" d="M 4056 2131 
L 4056 0 
L 2931 0 
L 2931 347 
L 2931 1631 
Q 2931 2084 2911 2256 
Q 2891 2428 2841 2509 
Q 2775 2619 2662 2680 
Q 2550 2741 2406 2741 
Q 2056 2741 1856 2470 
Q 1656 2200 1656 1722 
L 1656 0 
L 538 0 
L 538 3500 
L 1656 3500 
L 1656 2988 
Q 1909 3294 2193 3439 
Q 2478 3584 2822 3584 
Q 3428 3584 3742 3212 
Q 4056 2841 4056 2131 
z
" transform="scale(0.015625)"/>
      <path id="DejaVuSans-Bold-29" d="M 513 -844 
Q 913 -100 1113 609 
Q 1313 1319 1313 2009 
Q 1313 2700 1113 3408 
Q 913 4116 513 4856 
L 1441 4856 
Q 1916 4091 2145 3389 
Q 2375 2688 2375 2003 
Q 2375 1319 2147 623 
Q 1919 -72 1441 -844 
L 513 -844 
z
" transform="scale(0.015625)"/>
     </defs>
     <use xlink:href="#DejaVuSans-Bold-28"/>
     <use xlink:href="#DejaVuSans-Bold-4c" x="45.703125"/>
     <use xlink:href="#DejaVuSans-Bold-69" x="109.423828"/>
     <use xlink:href="#DejaVuSans-Bold-6e" x="143.701172"/>
     <use xlink:href="#DejaVuSans-Bold-65" x="214.892578"/>
     <use xlink:href="#DejaVuSans-Bold-61" x="282.714844"/>
     <use xlink:href="#DejaVuSans-Bold-72" x="350.195312"/>
     <use xlink:href="#DejaVuSans-Bold-29" x="399.511719"/>
    </g>
   </g>
   <g id="text_2">
    <!-- $\mathbf{W}_1 \mathbf{x} + \mathbf{b}_1$ -->
    <g transform="translate(89.2 322.537812) scale(0.1 -0.1)">
     <defs>
      <path id="DejaVuSans-Bold-57" d="M 191 4666 
L 1344 4666 
L 2150 1275 
L 2950 4666 
L 4109 4666 
L 4909 1275 
L 5716 4666 
L 6859 4666 
L 5759 0 
L 4372 0 
L 3525 3547 
L 2688 0 
L 1300 0 
L 191 4666 
z
" transform="scale(0.015625)"/>
      <path id="DejaVuSans-31" d="M 794 531 
L 1825 531 
L 1825 4091 
L 703 3866 
L 703 4441 
L 1819 4666 
L 2450 4666 
L 2450 531 
L 3481 531 
L 3481 0 
L 794 0 
L 794 531 
z
" transform="scale(0.015625)"/>
      <path id="DejaVuSans-Bold-78" d="M 1422 1791 
L 159 3500 
L 1344 3500 
L 2059 2463 
L 2784 3500 
L 3969 3500 
L 2706 1797 
L 4031 0 
L 2847 0 
L 2059 1106 
L 1281 0 
L 97 0 
L 1422 1791 
z
" transform="scale(0.015625)"/>
      <path id="DejaVuSans-2b" d="M 2944 4013 
L 2944 2272 
L 4684 2272 
L 4684 1741 
L 2944 1741 
L 2944 0 
L 2419 0 
L 2419 1741 
L 678 1741 
L 678 2272 
L 2419 2272 
L 2419 4013 
L 2944 4013 
z
" transform="scale(0.015625)"/>
      <path id="DejaVuSans-Bold-62" d="M 2400 722 
Q 2759 722 2948 984 
Q 3138 1247 3138 1747 
Q 3138 2247 2948 2509 
Q 2759 2772 2400 2772 
Q 2041 2772 1848 2508 
Q 1656 2244 1656 1747 
Q 1656 1250 1848 986 
Q 2041 722 2400 722 
z
M 1656 2988 
Q 1888 3294 2169 3439 
Q 2450 3584 2816 3584 
Q 3463 3584 3878 3070 
Q 4294 2556 4294 1747 
Q 4294 938 3878 423 
Q 3463 -91 2816 -91 
Q 2450 -91 2169 54 
Q 1888 200 1656 506 
L 1656 0 
L 538 0 
L 538 4863 
L 1656 4863 
L 1656 2988 
z
" transform="scale(0.015625)"/>
     </defs>
     <use xlink:href="#DejaVuSans-Bold-57" transform="translate(0 0.015625)"/>
     <use xlink:href="#DejaVuSans-31" transform="translate(111.259766 -16.390625) scale(0.7)"/>
     <use xlink:href="#DejaVuSans-Bold-78" transform="translate(158.530273 0.015625)"/>
     <use xlink:href="#DejaVuSans-2b" transform="translate(242.514648 0.015625)"/>
     <use xlink:href="#DejaVuSans-Bold-62" transform="translate(345.786133 0.015625)"/>
     <use xlink:href="#DejaVuSans-31" transform="translate(418.325195 -16.390625) scale(0.7)"/>
    </g>
   </g>
   <g id="text_3">
    <!-- Layer 2 -->
    <g transform="translate(298.212187 224.136625) scale(0.12 -0.12)">
     <defs>
      <path id="DejaVuSans-Bold-32" d="M 1844 884 
L 3897 884 
L 3897 0 
L 506 0 
L 506 884 
L 2209 2388 
Q 2438 2594 2547 2791 
Q 2656 2988 2656 3200 
Q 2656 3528 2436 3728 
Q 2216 3928 1850 3928 
Q 1569 3928 1234 3808 
Q 900 3688 519 3450 
L 519 4475 
Q 925 4609 1322 4679 
Q 1719 4750 2100 4750 
Q 2938 4750 3402 4381 
Q 3866 4013 3866 3353 
Q 3866 2972 3669 2642 
Q 3472 2313 2841 1759 
L 1844 884 
z
" transform="scale(0.015625)"/>
     </defs>
     <use xlink:href="#DejaVuSans-Bold-4c"/>
     <use xlink:href="#DejaVuSans-Bold-61" x="63.720703"/>
     <use xlink:href="#DejaVuSans-Bold-79" x="128.076172"/>
     <use xlink:href="#DejaVuSans-Bold-65" x="193.261719"/>
     <use xlink:href="#DejaVuSans-Bold-72" x="261.083984"/>
     <use xlink:href="#DejaVuSans-Bold-20" x="310.400391"/>
     <use xlink:href="#DejaVuSans-Bold-32" x="345.214844"/>
    </g>
    <!-- (Linear) -->
    <g transform="translate(296.386875 237.66775) scale(0.12 -0.12)">
     <use xlink:href="#DejaVuSans-Bold-28"/>
     <use xlink:href="#DejaVuSans-Bold-4c" x="45.703125"/>
     <use xlink:href="#DejaVuSans-Bold-69" x="109.423828"/>
     <use xlink:href="#DejaVuSans-Bold-6e" x="143.701172"/>
     <use xlink:href="#DejaVuSans-Bold-65" x="214.892578"/>
     <use xlink:href="#DejaVuSans-Bold-61" x="282.714844"/>
     <use xlink:href="#DejaVuSans-Bold-72" x="350.195312"/>
     <use xlink:href="#DejaVuSans-Bold-29" x="399.511719"/>
    </g>
   </g>
   <g id="text_4">
    <!-- $\mathbf{W}_2 \mathbf{y}_1 + \mathbf{b}_2$ -->
    <g transform="translate(297.35 322.537812) scale(0.1 -0.1)">
     <defs>
      <path id="DejaVuSans-32" d="M 1228 531 
L 3431 531 
L 3431 0 
L 469 0 
L 469 531 
Q 828 903 1448 1529 
Q 2069 2156 2228 2338 
Q 2531 2678 2651 2914 
Q 2772 3150 2772 3378 
Q 2772 3750 2511 3984 
Q 2250 4219 1831 4219 
Q 1534 4219 1204 4116 
Q 875 4013 500 3803 
L 500 4441 
Q 881 4594 1212 4672 
Q 1544 4750 1819 4750 
Q 2544 4750 2975 4387 
Q 3406 4025 3406 3419 
Q 3406 3131 3298 2873 
Q 3191 2616 2906 2266 
Q 2828 2175 2409 1742 
Q 1991 1309 1228 531 
z
" transform="scale(0.015625)"/>
     </defs>
     <use xlink:href="#DejaVuSans-Bold-57" transform="translate(0 0.015625)"/>
     <use xlink:href="#DejaVuSans-32" transform="translate(111.259766 -16.390625) scale(0.7)"/>
     <use xlink:href="#DejaVuSans-Bold-79" transform="translate(158.530273 0.015625)"/>
     <use xlink:href="#DejaVuSans-31" transform="translate(224.672852 -16.390625) scale(0.7)"/>
     <use xlink:href="#DejaVuSans-2b" transform="translate(291.425781 0.015625)"/>
     <use xlink:href="#DejaVuSans-Bold-62" transform="translate(394.697266 0.015625)"/>
     <use xlink:href="#DejaVuSans-32" transform="translate(467.236328 -16.390625) scale(0.7)"/>
    </g>
   </g>
   <g id="text_5">
    <!-- = -->
    <g transform="translate(418.344375 234.260312) scale(0.24 -0.24)">
     <defs>
      <path id="DejaVuSans-Bold-3d" d="M 678 3084 
L 4684 3084 
L 4684 2350 
L 678 2350 
L 678 3084 
z
M 678 1663 
L 4684 1663 
L 4684 922 
L 678 922 
L 678 1663 
z
" transform="scale(0.015625)"/>
     </defs>
     <use xlink:href="#DejaVuSans-Bold-3d"/>
    </g>
   </g>
   <g id="text_6">
    <!-- Single Layer -->
    <g style="fill: #92400e" transform="translate(491.916562 224.1835) scale(0.12 -0.12)">
     <defs>
      <path id="DejaVuSans-Bold-53" d="M 3834 4519 
L 3834 3531 
Q 3450 3703 3084 3790 
Q 2719 3878 2394 3878 
Q 1963 3878 1756 3759 
Q 1550 3641 1550 3391 
Q 1550 3203 1689 3098 
Q 1828 2994 2194 2919 
L 2706 2816 
Q 3484 2659 3812 2340 
Q 4141 2022 4141 1434 
Q 4141 663 3683 286 
Q 3225 -91 2284 -91 
Q 1841 -91 1394 -6 
Q 947 78 500 244 
L 500 1259 
Q 947 1022 1364 901 
Q 1781 781 2169 781 
Q 2563 781 2772 912 
Q 2981 1044 2981 1288 
Q 2981 1506 2839 1625 
Q 2697 1744 2272 1838 
L 1806 1941 
Q 1106 2091 782 2419 
Q 459 2747 459 3303 
Q 459 4000 909 4375 
Q 1359 4750 2203 4750 
Q 2588 4750 2994 4692 
Q 3400 4634 3834 4519 
z
" transform="scale(0.015625)"/>
      <path id="DejaVuSans-Bold-67" d="M 2919 594 
Q 2688 288 2409 144 
Q 2131 0 1766 0 
Q 1125 0 706 504 
Q 288 1009 288 1791 
Q 288 2575 706 3076 
Q 1125 3578 1766 3578 
Q 2131 3578 2409 3434 
Q 2688 3291 2919 2981 
L 2919 3500 
L 4044 3500 
L 4044 353 
Q 4044 -491 3511 -936 
Q 2978 -1381 1966 -1381 
Q 1638 -1381 1331 -1331 
Q 1025 -1281 716 -1178 
L 716 -306 
Q 1009 -475 1290 -558 
Q 1572 -641 1856 -641 
Q 2406 -641 2662 -400 
Q 2919 -159 2919 353 
L 2919 594 
z
M 2181 2772 
Q 1834 2772 1640 2515 
Q 1447 2259 1447 1791 
Q 1447 1309 1634 1061 
Q 1822 813 2181 813 
Q 2531 813 2725 1069 
Q 2919 1325 2919 1791 
Q 2919 2259 2725 2515 
Q 2531 2772 2181 2772 
z
" transform="scale(0.015625)"/>
      <path id="DejaVuSans-Bold-6c" d="M 538 4863 
L 1656 4863 
L 1656 0 
L 538 0 
L 538 4863 
z
" transform="scale(0.015625)"/>
     </defs>
     <use xlink:href="#DejaVuSans-Bold-53"/>
     <use xlink:href="#DejaVuSans-Bold-69" x="72.021484"/>
     <use xlink:href="#DejaVuSans-Bold-6e" x="106.298828"/>
     <use xlink:href="#DejaVuSans-Bold-67" x="177.490234"/>
     <use xlink:href="#DejaVuSans-Bold-6c" x="249.072266"/>
     <use xlink:href="#DejaVuSans-Bold-65" x="283.349609"/>
     <use xlink:href="#DejaVuSans-Bold-20" x="351.171875"/>
     <use xlink:href="#DejaVuSans-Bold-4c" x="385.986328"/>
     <use xlink:href="#DejaVuSans-Bold-61" x="449.707031"/>
     <use xlink:href="#DejaVuSans-Bold-79" x="514.0625"/>
     <use xlink:href="#DejaVuSans-Bold-65" x="579.248047"/>
     <use xlink:href="#DejaVuSans-Bold-72" x="647.070312"/>
    </g>
    <!-- (Equivalent) -->
    <g style="fill: #92400e" transform="translate(492.268125 237.714625) scale(0.12 -0.12)">
     <defs>
      <path id="DejaVuSans-Bold-45" d="M 588 4666 
L 3834 4666 
L 3834 3756 
L 1791 3756 
L 1791 2888 
L 3713 2888 
L 3713 1978 
L 1791 1978 
L 1791 909 
L 3903 909 
L 3903 0 
L 588 0 
L 588 4666 
z
" transform="scale(0.015625)"/>
      <path id="DejaVuSans-Bold-71" d="M 2181 2772 
Q 1825 2772 1636 2509 
Q 1447 2247 1447 1747 
Q 1447 1247 1636 984 
Q 1825 722 2181 722 
Q 2541 722 2730 984 
Q 2919 1247 2919 1747 
Q 2919 2247 2730 2509 
Q 2541 2772 2181 2772 
z
M 2919 506 
Q 2688 197 2409 53 
Q 2131 -91 1766 -91 
Q 1119 -91 703 423 
Q 288 938 288 1747 
Q 288 2556 703 3067 
Q 1119 3578 1766 3578 
Q 2131 3578 2409 3434 
Q 2688 3291 2919 2981 
L 2919 3500 
L 4044 3500 
L 4044 -1331 
L 2919 -1331 
L 2919 506 
z
" transform="scale(0.015625)"/>
      <path id="DejaVuSans-Bold-75" d="M 500 1363 
L 500 3500 
L 1625 3500 
L 1625 3150 
Q 1625 2866 1622 2436 
Q 1619 2006 1619 1863 
Q 1619 1441 1641 1255 
Q 1663 1069 1716 984 
Q 1784 875 1895 815 
Q 2006 756 2150 756 
Q 2500 756 2700 1025 
Q 2900 1294 2900 1772 
L 2900 3500 
L 4019 3500 
L 4019 0 
L 2900 0 
L 2900 506 
Q 2647 200 2364 54 
Q 2081 -91 1741 -91 
Q 1134 -91 817 281 
Q 500 653 500 1363 
z
" transform="scale(0.015625)"/>
      <path id="DejaVuSans-Bold-76" d="M 97 3500 
L 1216 3500 
L 2088 1081 
L 2956 3500 
L 4078 3500 
L 2700 0 
L 1472 0 
L 97 3500 
z
" transform="scale(0.015625)"/>
      <path id="DejaVuSans-Bold-74" d="M 1759 4494 
L 1759 3500 
L 2913 3500 
L 2913 2700 
L 1759 2700 
L 1759 1216 
Q 1759 972 1856 886 
Q 1953 800 2241 800 
L 2816 800 
L 2816 0 
L 1856 0 
Q 1194 0 917 276 
Q 641 553 641 1216 
L 641 2700 
L 84 2700 
L 84 3500 
L 641 3500 
L 641 4494 
L 1759 4494 
z
" transform="scale(0.015625)"/>
     </defs>
     <use xlink:href="#DejaVuSans-Bold-28"/>
     <use xlink:href="#DejaVuSans-Bold-45" x="45.703125"/>
     <use xlink:href="#DejaVuSans-Bold-71" x="114.013672"/>
     <use xlink:href="#DejaVuSans-Bold-75" x="185.595703"/>
     <use xlink:href="#DejaVuSans-Bold-69" x="256.787109"/>
     <use xlink:href="#DejaVuSans-Bold-76" x="291.064453"/>
     <use xlink:href="#DejaVuSans-Bold-61" x="356.25"/>
     <use xlink:href="#DejaVuSans-Bold-6c" x="423.730469"/>
     <use xlink:href="#DejaVuSans-Bold-65" x="458.007812"/>
     <use xlink:href="#DejaVuSans-Bold-6e" x="525.830078"/>
     <use xlink:href="#DejaVuSans-Bold-74" x="597.021484"/>
     <use xlink:href="#DejaVuSans-Bold-29" x="644.824219"/>
    </g>
   </g>
   <g id="text_7">
    <!-- $\mathbf{W}_{c} \mathbf{x} + \mathbf{b}_{c}$ -->
    <g style="fill: #92400e" transform="translate(511 322.537812) scale(0.1 -0.1)">
     <defs>
      <path id="DejaVuSans-Oblique-63" d="M 3431 3366 
L 3316 2797 
Q 3109 2947 2876 3022 
Q 2644 3097 2394 3097 
Q 2119 3097 1870 3000 
Q 1622 2903 1453 2725 
Q 1184 2453 1037 2087 
Q 891 1722 891 1331 
Q 891 859 1127 628 
Q 1363 397 1844 397 
Q 2081 397 2348 469 
Q 2616 541 2906 684 
L 2797 116 
Q 2547 13 2283 -39 
Q 2019 -91 1741 -91 
Q 1044 -91 669 257 
Q 294 606 294 1253 
Q 294 1797 489 2255 
Q 684 2713 1069 3078 
Q 1331 3328 1684 3456 
Q 2038 3584 2456 3584 
Q 2700 3584 2940 3529 
Q 3181 3475 3431 3366 
z
" transform="scale(0.015625)"/>
     </defs>
     <use xlink:href="#DejaVuSans-Bold-57" transform="translate(0 0.015625)"/>
     <use xlink:href="#DejaVuSans-Oblique-63" transform="translate(111.259766 -16.390625) scale(0.7)"/>
     <use xlink:href="#DejaVuSans-Bold-78" transform="translate(152.480469 0.015625)"/>
     <use xlink:href="#DejaVuSans-2b" transform="translate(236.464844 0.015625)"/>
     <use xlink:href="#DejaVuSans-Bold-62" transform="translate(339.736328 0.015625)"/>
     <use xlink:href="#DejaVuSans-Oblique-63" transform="translate(412.275391 -16.390625) scale(0.7)"/>
    </g>
   </g>
   <g id="text_8">
    <!-- (combined) -->
    <g style="fill: #92400e" transform="translate(510.849375 341.517812) scale(0.08 -0.08)">
     <defs>
      <path id="DejaVuSans-Oblique-28" d="M 2731 4856 
Q 1903 3822 1495 2892 
Q 1088 1963 1088 1100 
Q 1088 606 1206 120 
Q 1325 -366 1563 -844 
L 1063 -844 
Q 775 -306 634 201 
Q 494 709 494 1197 
Q 494 2125 923 3036 
Q 1353 3947 2222 4856 
L 2731 4856 
z
" transform="scale(0.015625)"/>
      <path id="DejaVuSans-Oblique-6f" d="M 1625 -91 
Q 1009 -91 651 289 
Q 294 669 294 1325 
Q 294 1706 417 2101 
Q 541 2497 738 2766 
Q 1047 3184 1428 3384 
Q 1809 3584 2291 3584 
Q 2888 3584 3255 3212 
Q 3622 2841 3622 2241 
Q 3622 1825 3500 1412 
Q 3378 1000 3181 728 
Q 2875 309 2494 109 
Q 2113 -91 1625 -91 
z
M 891 1344 
Q 891 869 1089 633 
Q 1288 397 1691 397 
Q 2269 397 2648 901 
Q 3028 1406 3028 2181 
Q 3028 2634 2825 2865 
Q 2622 3097 2228 3097 
Q 1903 3097 1650 2945 
Q 1397 2794 1197 2484 
Q 1050 2253 970 1956 
Q 891 1659 891 1344 
z
" transform="scale(0.015625)"/>
      <path id="DejaVuSans-Oblique-6d" d="M 5747 2113 
L 5338 0 
L 4763 0 
L 5166 2094 
Q 5191 2228 5203 2325 
Q 5216 2422 5216 2491 
Q 5216 2772 5059 2928 
Q 4903 3084 4622 3084 
Q 4203 3084 3875 2770 
Q 3547 2456 3450 1953 
L 3066 0 
L 2491 0 
L 2900 2094 
Q 2925 2209 2937 2307 
Q 2950 2406 2950 2484 
Q 2950 2769 2794 2926 
Q 2638 3084 2363 3084 
Q 1938 3084 1609 2770 
Q 1281 2456 1184 1953 
L 800 0 
L 225 0 
L 909 3500 
L 1484 3500 
L 1375 2956 
Q 1609 3263 1923 3423 
Q 2238 3584 2597 3584 
Q 2978 3584 3223 3384 
Q 3469 3184 3519 2828 
Q 3781 3197 4126 3390 
Q 4472 3584 4856 3584 
Q 5306 3584 5551 3325 
Q 5797 3066 5797 2591 
Q 5797 2488 5784 2364 
Q 5772 2241 5747 2113 
z
" transform="scale(0.015625)"/>
      <path id="DejaVuSans-Oblique-62" d="M 3169 2138 
Q 3169 2591 2961 2847 
Q 2753 3103 2388 3103 
Q 2122 3103 1889 2973 
Q 1656 2844 1484 2597 
Q 1303 2338 1198 1995 
Q 1094 1653 1094 1313 
Q 1094 881 1298 636 
Q 1503 391 1863 391 
Q 2134 391 2365 517 
Q 2597 644 2772 891 
Q 2950 1147 3059 1487 
Q 3169 1828 3169 2138 
z
M 1381 2969 
Q 1594 3256 1914 3420 
Q 2234 3584 2584 3584 
Q 3122 3584 3439 3221 
Q 3756 2859 3756 2241 
Q 3756 1734 3570 1259 
Q 3384 784 3041 416 
Q 2816 172 2522 40 
Q 2228 -91 1906 -91 
Q 1566 -91 1316 65 
Q 1066 222 909 531 
L 806 0 
L 231 0 
L 1178 4863 
L 1753 4863 
L 1381 2969 
z
" transform="scale(0.015625)"/>
      <path id="DejaVuSans-Oblique-69" d="M 1172 4863 
L 1747 4863 
L 1606 4134 
L 1031 4134 
L 1172 4863 
z
M 909 3500 
L 1484 3500 
L 800 0 
L 225 0 
L 909 3500 
z
" transform="scale(0.015625)"/>
      <path id="DejaVuSans-Oblique-6e" d="M 3566 2113 
L 3156 0 
L 2578 0 
L 2988 2091 
Q 3016 2238 3031 2350 
Q 3047 2463 3047 2528 
Q 3047 2791 2881 2937 
Q 2716 3084 2419 3084 
Q 1956 3084 1622 2776 
Q 1288 2469 1184 1941 
L 800 0 
L 225 0 
L 903 3500 
L 1478 3500 
L 1363 2950 
Q 1603 3253 1940 3418 
Q 2278 3584 2650 3584 
Q 3113 3584 3367 3334 
Q 3622 3084 3622 2631 
Q 3622 2519 3608 2391 
Q 3594 2263 3566 2113 
z
" transform="scale(0.015625)"/>
      <path id="DejaVuSans-Oblique-65" d="M 3078 2063 
Q 3088 2113 3092 2166 
Q 3097 2219 3097 2272 
Q 3097 2653 2873 2875 
Q 2650 3097 2266 3097 
Q 1838 3097 1509 2826 
Q 1181 2556 1013 2059 
L 3078 2063 
z
M 3578 1613 
L 903 1613 
Q 884 1494 878 1425 
Q 872 1356 872 1306 
Q 872 872 1139 634 
Q 1406 397 1894 397 
Q 2269 397 2603 481 
Q 2938 566 3225 728 
L 3116 159 
Q 2806 34 2476 -28 
Q 2147 -91 1806 -91 
Q 1078 -91 686 257 
Q 294 606 294 1247 
Q 294 1794 489 2264 
Q 684 2734 1063 3103 
Q 1306 3334 1642 3459 
Q 1978 3584 2356 3584 
Q 2950 3584 3301 3228 
Q 3653 2872 3653 2272 
Q 3653 2128 3634 1964 
Q 3616 1800 3578 1613 
z
" transform="scale(0.015625)"/>
      <path id="DejaVuSans-Oblique-64" d="M 2675 525 
Q 2444 222 2128 65 
Q 1813 -91 1428 -91 
Q 903 -91 598 267 
Q 294 625 294 1247 
Q 294 1766 478 2236 
Q 663 2706 1013 3078 
Q 1244 3325 1534 3454 
Q 1825 3584 2144 3584 
Q 2481 3584 2739 3421 
Q 2997 3259 3138 2956 
L 3513 4863 
L 4091 4863 
L 3144 0 
L 2566 0 
L 2675 525 
z
M 891 1350 
Q 891 897 1095 644 
Q 1300 391 1663 391 
Q 1931 391 2161 520 
Q 2391 650 2566 903 
Q 2750 1166 2856 1509 
Q 2963 1853 2963 2188 
Q 2963 2622 2758 2865 
Q 2553 3109 2194 3109 
Q 1922 3109 1687 2981 
Q 1453 2853 1288 2613 
Q 1106 2353 998 2009 
Q 891 1666 891 1350 
z
" transform="scale(0.015625)"/>
      <path id="DejaVuSans-Oblique-29" d="M -397 -844 
Q 434 191 840 1120 
Q 1247 2050 1247 2913 
Q 1247 3406 1130 3892 
Q 1013 4378 775 4856 
L 1275 4856 
Q 1563 4316 1703 3812 
Q 1844 3309 1844 2822 
Q 1844 1891 1411 973 
Q 978 56 116 -844 
L -397 -844 
z
" transform="scale(0.015625)"/>
     </defs>
     <use xlink:href="#DejaVuSans-Oblique-28"/>
     <use xlink:href="#DejaVuSans-Oblique-63" x="39.013672"/>
     <use xlink:href="#DejaVuSans-Oblique-6f" x="93.994141"/>
     <use xlink:href="#DejaVuSans-Oblique-6d" x="155.175781"/>
     <use xlink:href="#DejaVuSans-Oblique-62" x="252.587891"/>
     <use xlink:href="#DejaVuSans-Oblique-69" x="316.064453"/>
     <use xlink:href="#DejaVuSans-Oblique-6e" x="343.847656"/>
     <use xlink:href="#DejaVuSans-Oblique-65" x="407.226562"/>
     <use xlink:href="#DejaVuSans-Oblique-64" x="468.75"/>
     <use xlink:href="#DejaVuSans-Oblique-29" x="532.226562"/>
    </g>
   </g>
   <g id="text_9">
    <!-- Collapse! -->
    <g style="fill: #dc2626" transform="translate(434.753047 113.757812) scale(0.11 -0.11)">
     <defs>
      <path id="DejaVuSans-Bold-43" d="M 4288 256 
Q 3956 84 3597 -3 
Q 3238 -91 2847 -91 
Q 1681 -91 1000 561 
Q 319 1213 319 2328 
Q 319 3447 1000 4098 
Q 1681 4750 2847 4750 
Q 3238 4750 3597 4662 
Q 3956 4575 4288 4403 
L 4288 3438 
Q 3953 3666 3628 3772 
Q 3303 3878 2944 3878 
Q 2300 3878 1931 3465 
Q 1563 3053 1563 2328 
Q 1563 1606 1931 1193 
Q 2300 781 2944 781 
Q 3303 781 3628 887 
Q 3953 994 4288 1222 
L 4288 256 
z
" transform="scale(0.015625)"/>
      <path id="DejaVuSans-Bold-6f" d="M 2203 2784 
Q 1831 2784 1636 2517 
Q 1441 2250 1441 1747 
Q 1441 1244 1636 976 
Q 1831 709 2203 709 
Q 2569 709 2762 976 
Q 2956 1244 2956 1747 
Q 2956 2250 2762 2517 
Q 2569 2784 2203 2784 
z
M 2203 3584 
Q 3106 3584 3614 3096 
Q 4122 2609 4122 1747 
Q 4122 884 3614 396 
Q 3106 -91 2203 -91 
Q 1297 -91 786 396 
Q 275 884 275 1747 
Q 275 2609 786 3096 
Q 1297 3584 2203 3584 
z
" transform="scale(0.015625)"/>
      <path id="DejaVuSans-Bold-70" d="M 1656 506 
L 1656 -1331 
L 538 -1331 
L 538 3500 
L 1656 3500 
L 1656 2988 
Q 1888 3294 2169 3439 
Q 2450 3584 2816 3584 
Q 3463 3584 3878 3070 
Q 4294 2556 4294 1747 
Q 4294 938 3878 423 
Q 3463 -91 2816 -91 
Q 2450 -91 2169 54 
Q 1888 200 1656 506 
z
M 2400 2772 
Q 2041 2772 1848 2508 
Q 1656 2244 1656 1747 
Q 1656 1250 1848 986 
Q 2041 722 2400 722 
Q 2759 722 2948 984 
Q 3138 1247 3138 1747 
Q 3138 2247 2948 2509 
Q 2759 2772 2400 2772 
z
" transform="scale(0.015625)"/>
      <path id="DejaVuSans-Bold-73" d="M 3272 3391 
L 3272 2541 
Q 2913 2691 2578 2766 
Q 2244 2841 1947 2841 
Q 1628 2841 1473 2761 
Q 1319 2681 1319 2516 
Q 1319 2381 1436 2309 
Q 1553 2238 1856 2203 
L 2053 2175 
Q 2913 2066 3209 1816 
Q 3506 1566 3506 1031 
Q 3506 472 3093 190 
Q 2681 -91 1863 -91 
Q 1516 -91 1145 -36 
Q 775 19 384 128 
L 384 978 
Q 719 816 1070 734 
Q 1422 653 1784 653 
Q 2113 653 2278 743 
Q 2444 834 2444 1013 
Q 2444 1163 2330 1236 
Q 2216 1309 1875 1350 
L 1678 1375 
Q 931 1469 631 1722 
Q 331 1975 331 2491 
Q 331 3047 712 3315 
Q 1094 3584 1881 3584 
Q 2191 3584 2531 3537 
Q 2872 3491 3272 3391 
z
" transform="scale(0.015625)"/>
      <path id="DejaVuSans-Bold-21" d="M 897 4666 
L 2022 4666 
L 2022 2875 
L 1863 1569 
L 1056 1569 
L 897 2875 
L 897 4666 
z
M 897 1113 
L 2022 1113 
L 2022 0 
L 897 0 
L 897 1113 
z
" transform="scale(0.015625)"/>
     </defs>
     <use xlink:href="#DejaVuSans-Bold-43"/>
     <use xlink:href="#DejaVuSans-Bold-6f" x="73.388672"/>
     <use xlink:href="#DejaVuSans-Bold-6c" x="142.089844"/>
     <use xlink:href="#DejaVuSans-Bold-6c" x="176.367188"/>
     <use xlink:href="#DejaVuSans-Bold-61" x="210.644531"/>
     <use xlink:href="#DejaVuSans-Bold-70" x="278.125"/>
     <use xlink:href="#DejaVuSans-Bold-73" x="349.707031"/>
     <use xlink:href="#DejaVuSans-Bold-65" x="409.228516"/>
     <use xlink:href="#DejaVuSans-Bold-21" x="477.050781"/>
    </g>
   </g>
   <g id="text_10">
    <!-- Input $\mathbf{x}$ -->
    <g transform="translate(42.3 132.737812) scale(0.11 -0.11)">
     <defs>
      <path id="DejaVuSans-Bold-49" d="M 588 4666 
L 1791 4666 
L 1791 0 
L 588 0 
L 588 4666 
z
" transform="scale(0.015625)"/>
     </defs>
     <use xlink:href="#DejaVuSans-Bold-49" transform="translate(0 0.09375)"/>
     <use xlink:href="#DejaVuSans-Bold-6e" transform="translate(37.207031 0.09375)"/>
     <use xlink:href="#DejaVuSans-Bold-70" transform="translate(108.398438 0.09375)"/>
     <use xlink:href="#DejaVuSans-Bold-75" transform="translate(179.980469 0.09375)"/>
     <use xlink:href="#DejaVuSans-Bold-74" transform="translate(251.171875 0.09375)"/>
     <use xlink:href="#DejaVuSans-Bold-20" transform="translate(298.974609 0.09375)"/>
     <use xlink:href="#DejaVuSans-Bold-78" transform="translate(333.789062 0.09375)"/>
    </g>
   </g>
   <g id="text_11">
    <!-- Output $\mathbf{y}_2$ -->
    <g transform="translate(603.9 132.737812) scale(0.11 -0.11)">
     <defs>
      <path id="DejaVuSans-Bold-4f" d="M 2719 3878 
Q 2169 3878 1866 3472 
Q 1563 3066 1563 2328 
Q 1563 1594 1866 1187 
Q 2169 781 2719 781 
Q 3272 781 3575 1187 
Q 3878 1594 3878 2328 
Q 3878 3066 3575 3472 
Q 3272 3878 2719 3878 
z
M 2719 4750 
Q 3844 4750 4481 4106 
Q 5119 3463 5119 2328 
Q 5119 1197 4481 553 
Q 3844 -91 2719 -91 
Q 1597 -91 958 553 
Q 319 1197 319 2328 
Q 319 3463 958 4106 
Q 1597 4750 2719 4750 
z
" transform="scale(0.015625)"/>
     </defs>
     <use xlink:href="#DejaVuSans-Bold-4f" transform="translate(0 0.78125)"/>
     <use xlink:href="#DejaVuSans-Bold-75" transform="translate(85.009766 0.78125)"/>
     <use xlink:href="#DejaVuSans-Bold-74" transform="translate(156.201172 0.78125)"/>
     <use xlink:href="#DejaVuSans-Bold-70" transform="translate(204.003906 0.78125)"/>
     <use xlink:href="#DejaVuSans-Bold-75" transform="translate(275.585938 0.78125)"/>
     <use xlink:href="#DejaVuSans-Bold-74" transform="translate(346.777344 0.78125)"/>
     <use xlink:href="#DejaVuSans-Bold-20" transform="translate(394.580078 0.78125)"/>
     <use xlink:href="#DejaVuSans-Bold-79" transform="translate(429.394531 0.78125)"/>
     <use xlink:href="#DejaVuSans-32" transform="translate(495.537109 -15.625) scale(0.7)"/>
    </g>
   </g>
   <g id="text_12">
    <!-- Linear Layers Collapse: Two layers = One layer -->
    <g transform="translate(244.155625 17.837812) scale(0.14 -0.14)">
     <defs>
      <path id="DejaVuSans-Bold-3a" d="M 716 3500 
L 1844 3500 
L 1844 2291 
L 716 2291 
L 716 3500 
z
M 716 1209 
L 1844 1209 
L 1844 0 
L 716 0 
L 716 1209 
z
" transform="scale(0.015625)"/>
      <path id="DejaVuSans-Bold-54" d="M 31 4666 
L 4331 4666 
L 4331 3756 
L 2784 3756 
L 2784 0 
L 1581 0 
L 1581 3756 
L 31 3756 
L 31 4666 
z
" transform="scale(0.015625)"/>
      <path id="DejaVuSans-Bold-77" d="M 225 3500 
L 1313 3500 
L 1900 1088 
L 2491 3500 
L 3425 3500 
L 4013 1113 
L 4603 3500 
L 5691 3500 
L 4769 0 
L 3547 0 
L 2956 2406 
L 2369 0 
L 1147 0 
L 225 3500 
z
" transform="scale(0.015625)"/>
     </defs>
     <use xlink:href="#DejaVuSans-Bold-4c"/>
     <use xlink:href="#DejaVuSans-Bold-69" x="63.720703"/>
     <use xlink:href="#DejaVuSans-Bold-6e" x="97.998047"/>
     <use xlink:href="#DejaVuSans-Bold-65" x="169.189453"/>
     <use xlink:href="#DejaVuSans-Bold-61" x="237.011719"/>
     <use xlink:href="#DejaVuSans-Bold-72" x="304.492188"/>
     <use xlink:href="#DejaVuSans-Bold-20" x="353.808594"/>
     <use xlink:href="#DejaVuSans-Bold-4c" x="388.623047"/>
     <use xlink:href="#DejaVuSans-Bold-61" x="452.34375"/>
     <use xlink:href="#DejaVuSans-Bold-79" x="516.699219"/>
     <use xlink:href="#DejaVuSans-Bold-65" x="581.884766"/>
     <use xlink:href="#DejaVuSans-Bold-72" x="649.707031"/>
     <use xlink:href="#DejaVuSans-Bold-73" x="699.023438"/>
     <use xlink:href="#DejaVuSans-Bold-20" x="758.544922"/>
     <use xlink:href="#DejaVuSans-Bold-43" x="793.359375"/>
     <use xlink:href="#DejaVuSans-Bold-6f" x="866.748047"/>
     <use xlink:href="#DejaVuSans-Bold-6c" x="935.449219"/>
     <use xlink:href="#DejaVuSans-Bold-6c" x="969.726562"/>
     <use xlink:href="#DejaVuSans-Bold-61" x="1004.003906"/>
     <use xlink:href="#DejaVuSans-Bold-70" x="1071.484375"/>
     <use xlink:href="#DejaVuSans-Bold-73" x="1143.066406"/>
     <use xlink:href="#DejaVuSans-Bold-65" x="1202.587891"/>
     <use xlink:href="#DejaVuSans-Bold-3a" x="1270.410156"/>
     <use xlink:href="#DejaVuSans-Bold-20" x="1310.400391"/>
     <use xlink:href="#DejaVuSans-Bold-54" x="1345.214844"/>
     <use xlink:href="#DejaVuSans-Bold-77" x="1402.427734"/>
     <use xlink:href="#DejaVuSans-Bold-6f" x="1494.810547"/>
     <use xlink:href="#DejaVuSans-Bold-20" x="1563.511719"/>
     <use xlink:href="#DejaVuSans-Bold-6c" x="1598.326172"/>
     <use xlink:href="#DejaVuSans-Bold-61" x="1632.603516"/>
     <use xlink:href="#DejaVuSans-Bold-79" x="1696.958984"/>
     <use xlink:href="#DejaVuSans-Bold-65" x="1762.144531"/>
     <use xlink:href="#DejaVuSans-Bold-72" x="1829.966797"/>
     <use xlink:href="#DejaVuSans-Bold-73" x="1879.283203"/>
     <use xlink:href="#DejaVuSans-Bold-20" x="1938.804688"/>
     <use xlink:href="#DejaVuSans-Bold-3d" x="1973.619141"/>
     <use xlink:href="#DejaVuSans-Bold-20" x="2057.408203"/>
     <use xlink:href="#DejaVuSans-Bold-4f" x="2092.222656"/>
     <use xlink:href="#DejaVuSans-Bold-6e" x="2177.232422"/>
     <use xlink:href="#DejaVuSans-Bold-65" x="2248.423828"/>
     <use xlink:href="#DejaVuSans-Bold-20" x="2316.246094"/>
     <use xlink:href="#DejaVuSans-Bold-6c" x="2351.060547"/>
     <use xlink:href="#DejaVuSans-Bold-61" x="2385.337891"/>
     <use xlink:href="#DejaVuSans-Bold-79" x="2449.693359"/>
     <use xlink:href="#DejaVuSans-Bold-65" x="2514.878906"/>
     <use xlink:href="#DejaVuSans-Bold-72" x="2582.701172"/>
    </g>
   </g>
  </g>
 </g>
 <defs>
  <clipPath id="pa13fa18ed5">
   <rect x="7.2" y="37.837812" width="842.4" height="379.6"/>
  </clipPath>
 </defs>
</svg>
