<?xml version="1.0" encoding="UTF-8" standalone="no"?>
<svg
   width="640.492pt"
   height="337.13901pt"
   viewBox="0 0 640.49201 337.13901"
   version="1.1"
   id="svg469"
   sodipodi:docname="linear-layers-collapse.svg"
   inkscape:version="1.2.2 (b0a8486541, 2022-12-01)"
   xmlns:inkscape="http://www.inkscape.org/namespaces/inkscape"
   xmlns:sodipodi="http://sodipodi.sourceforge.net/DTD/sodipodi-0.dtd"
   xmlns:xlink="http://www.w3.org/1999/xlink"
   xmlns="http://www.w3.org/2000/svg"
   xmlns:svg="http://www.w3.org/2000/svg"
   xmlns:rdf="http://www.w3.org/1999/02/22-rdf-syntax-ns#"
   xmlns:cc="http://creativecommons.org/ns#"
   xmlns:dc="http://purl.org/dc/elements/1.1/">
  <sodipodi:namedview
     id="namedview471"
     pagecolor="#ffffff"
     bordercolor="#000000"
     borderopacity="0.25"
     inkscape:showpageshadow="2"
     inkscape:pageopacity="0.0"
     inkscape:pagecheckerboard="0"
     inkscape:deskcolor="#d1d1d1"
     inkscape:document-units="pt"
     showgrid="false"
     inkscape:zoom="1.1467087"
     inkscape:cx="429.05404"
     inkscape:cy="155.6629"
     inkscape:window-width="3840"
     inkscape:window-height="2091"
     inkscape:window-x="0"
     inkscape:window-y="32"
     inkscape:window-maximized="1"
     inkscape:current-layer="figure_1" />
  <metadata
     id="metadata2">
    <rdf:RDF>
      <cc:Work>
        <dc:type
           rdf:resource="http://purl.org/dc/dcmitype/StillImage" />
        <dc:date>2026-01-01T11:39:38.706663</dc:date>
        <dc:format>image/svg+xml</dc:format>
        <dc:creator>
          <cc:Agent>
            <dc:title>Matplotlib v3.6.3, https://matplotlib.org/</dc:title>
          </cc:Agent>
        </dc:creator>
      </cc:Work>
    </rdf:RDF>
  </metadata>
  <defs
     id="defs12">
    <style
       type="text/css"
       id="style4">*{stroke-linejoin: round; stroke-linecap: butt}</style>
    <marker
       id="arrow-blue"
       markerWidth="8"
       markerHeight="8"
       refX="7"
       refY="3"
       orient="auto">
      <polygon
         points="0,6 0,0 8,3 "
         fill="#2563eb"
         id="polygon6" />
    </marker>
    <marker
       id="arrow-red"
       markerWidth="8"
       markerHeight="8"
       refX="7"
       refY="3"
       orient="auto">
      <polygon
         points="0,6 0,0 8,3 "
         fill="#dc2626"
         id="polygon9" />
    </marker>
  </defs>
  <g
     id="figure_1"
     style="display:inline"
     transform="translate(-34.28,-65.434227)">
    <g
       id="axes_1"
       transform="translate(27.01388,31.109889)">
      <g
         id="box_layer1">
        <g
           id="patch_2">
          <path
             d="m 42.3,297.23115 h 140.4 q 7.02,0 7.02,-6.32667 V 164.37115 q 0,-6.32667 -7.02,-6.32667 H 42.3 q -7.02,0 -7.02,6.32667 v 126.53333 q 0,6.32667 7.02,6.32667 z"
             clip-path="url(#pa13fa18ed5)"
             style="fill:#e1f5ff;stroke:#2563eb;stroke-width:2;stroke-linejoin:miter"
             id="path17" />
        </g>
      </g>
      <g
         id="patch_3">
        <path
           d="m 189.72,227.63781 56.16,1e-5"
           clip-path="url(#pa13fa18ed5)"
           style="fill:none;stroke:#2563eb;stroke-width:2"
           inkscape:connector-type="polyline"
           inkscape:connector-curvature="0"
           inkscape:connection-start="#box_layer1"
           inkscape:connection-end="#box_layer2"
           marker-end="url(#arrow-blue)"
           id="path21" />
      </g>
      <g
         id="box_layer2">
        <g
           id="patch_4">
          <path
             d="m 252.9,297.23115 h 140.4 q 7.02,0 7.02,-6.32667 V 164.37115 q 0,-6.32667 -7.02,-6.32667 H 252.9 q -7.02,0 -7.02,6.32667 v 126.53333 q 0,6.32667 7.02,6.32667 z"
             clip-path="url(#pa13fa18ed5)"
             style="fill:#e1f5ff;stroke:#2563eb;stroke-width:2;stroke-linejoin:miter"
             id="path24" />
        </g>
      </g>
      <g
         id="box_combined">
        <g
           id="patch_5">
          <path
             d="m 463.5,297.23115 h 140.4 q 7.02,0 7.02,-6.32667 V 164.37115 q 0,-6.32667 -7.02,-6.32667 H 463.5 q -7.02,0 -7.02,6.32667 v 126.53333 q 0,6.32667 7.02,6.32667 z"
             clip-path="url(#pa13fa18ed5)"
             style="fill:#fff4e1;stroke:#f59e0b;stroke-width:2;stroke-linejoin:miter"
             id="path28" />
        </g>
      </g>
      <g
         id="patch_6"
         transform="translate(-31.376155,2.2546696)">
        <path
           d="m 395.30094,132.73781 q 68.20065,0 134.16523,0"
           clip-path="url(#pa13fa18ed5)"
           style="fill:none;stroke:#dc2626;stroke-width:2;stroke-linecap:round;stroke-dasharray:7.4, 3.2;stroke-dashoffset:0"
           id="path22" />
        <path
           d="m 521.46617,128.73781 8,4 -8,4"
           clip-path="url(#pa13fa18ed5)"
           style="fill:none;stroke:#dc2626;stroke-width:2;stroke-linecap:round;stroke-dasharray:7.4, 3.2;stroke-dashoffset:0"
           id="path25" />
      </g>
      <g
         id="text_1">
        <!-- Layer 1 -->
        <g
           transform="matrix(0.12,0,0,-0.12,87.612187,224.13662)"
           id="g58">
          <defs
             id="defs42">
            <path
               id="DejaVuSans-Bold-4c"
               d="M 588,4666 H 1791 V 909 H 3903 V 0 H 588 Z"
               transform="scale(0.015625)" />
            <path
               id="DejaVuSans-Bold-61"
               d="m 2106,1575 q -350,0 -527,-119 -176,-118 -176,-350 0,-212 142,-333 143,-120 396,-120 315,0 531,226 216,227 216,568 v 128 z m 1710,422 V 0 H 2688 V 519 Q 2463,200 2181,54 1900,-91 1497,-91 953,-91 614,226 275,544 275,1050 q 0,616 423,903 424,288 1330,288 h 660 v 87 q 0,266 -210,389 -209,124 -653,124 -359,0 -669,-72 -309,-72 -575,-216 v 853 q 360,88 722,133 363,45 725,45 947,0 1367,-373 421,-373 421,-1214 z"
               transform="scale(0.015625)" />
            <path
               id="DejaVuSans-Bold-79"
               d="m 78,3500 h 1119 l 941,-2375 800,2375 H 4056 L 2584,-331 q -221,-585 -517,-817 -295,-233 -779,-233 H 641 v 734 h 350 q 284,0 413,91 130,90 202,325 l 32,97 z"
               transform="scale(0.015625)" />
            <path
               id="DejaVuSans-Bold-65"
               d="M 4031,1759 V 1441 H 1416 q 40,-394 284,-591 244,-197 681,-197 353,0 723,105 371,105 762,317 V 213 Q 3469,63 3072,-14 2675,-91 2278,-91 1328,-91 801,392 275,875 275,1747 q 0,856 517,1346 517,491 1424,491 825,0 1320,-497 495,-496 495,-1328 z m -1150,372 q 0,319 -186,514 -186,196 -486,196 -325,0 -528,-183 -203,-183 -253,-527 z"
               transform="scale(0.015625)" />
            <path
               id="DejaVuSans-Bold-72"
               d="m 3138,2547 q -147,69 -293,101 -145,33 -292,33 -431,0 -664,-277 -233,-276 -233,-791 V 0 H 538 v 3500 h 1118 v -575 q 216,344 495,501 280,158 671,158 56,0 121,-5 66,-4 191,-20 z"
               transform="scale(0.015625)" />
            <path
               id="DejaVuSans-Bold-20"
               transform="scale(0.015625)"
               d="" />
            <path
               id="DejaVuSans-Bold-31"
               d="M 750,831 H 1813 V 3847 L 722,3622 v 819 l 1084,225 H 2950 V 831 H 4013 V 0 H 750 Z"
               transform="scale(0.015625)" />
          </defs>
          <use
             xlink:href="#DejaVuSans-Bold-4c"
             id="use44" />
          <use
             xlink:href="#DejaVuSans-Bold-61"
             x="63.720703"
             id="use46" />
          <use
             xlink:href="#DejaVuSans-Bold-79"
             x="128.07617"
             id="use48" />
          <use
             xlink:href="#DejaVuSans-Bold-65"
             x="193.26172"
             id="use50" />
          <use
             xlink:href="#DejaVuSans-Bold-72"
             x="261.08398"
             id="use52" />
          <use
             xlink:href="#DejaVuSans-Bold-20"
             x="310.40039"
             id="use54" />
          <use
             xlink:href="#DejaVuSans-Bold-31"
             x="345.21484"
             id="use56" />
        </g>
        <!-- (Linear) -->
        <g
           transform="matrix(0.12,0,0,-0.12,85.786875,237.66775)"
           id="g82">
          <defs
             id="defs64">
            <path
               id="DejaVuSans-Bold-28"
               d="M 2413,-844 H 1484 Q 1006,-72 778,623 550,1319 550,2003 q 0,685 229,1386 230,702 705,1467 h 929 q -400,-740 -600,-1448 -200,-708 -200,-1399 0,-690 198,-1400 198,-709 602,-1453 z"
               transform="scale(0.015625)" />
            <path
               id="DejaVuSans-Bold-69"
               d="M 538,3500 H 1656 V 0 H 538 Z m 0,1363 H 1656 V 3950 H 538 Z"
               transform="scale(0.015625)" />
            <path
               id="DejaVuSans-Bold-6e"
               d="M 4056,2131 V 0 H 2931 v 347 1284 q 0,453 -20,625 -20,172 -70,253 -66,110 -179,171 -112,61 -256,61 -350,0 -550,-271 -200,-270 -200,-748 V 0 H 538 v 3500 h 1118 v -512 q 253,306 537,451 285,145 629,145 606,0 920,-372 314,-371 314,-1081 z"
               transform="scale(0.015625)" />
            <path
               id="DejaVuSans-Bold-29"
               d="m 513,-844 q 400,744 600,1453 200,710 200,1400 0,691 -200,1399 -200,708 -600,1448 h 928 q 475,-765 704,-1467 230,-701 230,-1386 0,-684 -228,-1380 -228,-695 -706,-1467 z"
               transform="scale(0.015625)" />
          </defs>
          <use
             xlink:href="#DejaVuSans-Bold-28"
             id="use66" />
          <use
             xlink:href="#DejaVuSans-Bold-4c"
             x="45.703125"
             id="use68" />
          <use
             xlink:href="#DejaVuSans-Bold-69"
             x="109.42383"
             id="use70" />
          <use
             xlink:href="#DejaVuSans-Bold-6e"
             x="143.70117"
             id="use72" />
          <use
             xlink:href="#DejaVuSans-Bold-65"
             x="214.89258"
             id="use74" />
          <use
             xlink:href="#DejaVuSans-Bold-61"
             x="282.71484"
             id="use76" />
          <use
             xlink:href="#DejaVuSans-Bold-72"
             x="350.19531"
             id="use78" />
          <use
             xlink:href="#DejaVuSans-Bold-29"
             x="399.51172"
             id="use80" />
        </g>
      </g>
      <g
         id="text_2">
        <!-- $\mathbf{W}_1 \mathbf{x} + \mathbf{b}_1$ -->
        <g
           transform="matrix(0.1,0,0,-0.1,89.2,322.53781)"
           id="g104">
          <defs
             id="defs90">
            <path
               id="DejaVuSans-Bold-57"
               d="m 191,4666 h 1153 l 806,-3391 800,3391 h 1159 l 800,-3391 807,3391 H 6859 L 5759,0 H 4372 L 3525,3547 2688,0 H 1300 Z"
               transform="scale(0.015625)" />
            <path
               id="DejaVuSans-31"
               d="M 794,531 H 1825 V 4091 L 703,3866 v 575 l 1116,225 h 631 V 531 H 3481 V 0 H 794 Z"
               transform="scale(0.015625)" />
            <path
               id="DejaVuSans-Bold-78"
               d="M 1422,1791 159,3500 h 1185 l 715,-1037 725,1037 H 3969 L 2706,1797 4031,0 H 2847 L 2059,1106 1281,0 H 97 Z"
               transform="scale(0.015625)" />
            <path
               id="DejaVuSans-2b"
               d="M 2944,4013 V 2272 H 4684 V 1741 H 2944 V 0 H 2419 V 1741 H 678 v 531 h 1741 v 1741 z"
               transform="scale(0.015625)" />
            <path
               id="DejaVuSans-Bold-62"
               d="m 2400,722 q 359,0 548,262 190,263 190,763 0,500 -190,762 -189,263 -548,263 -359,0 -552,-264 -192,-264 -192,-761 0,-497 192,-761 193,-264 552,-264 z m -744,2266 q 232,306 513,451 281,145 647,145 647,0 1062,-514 416,-514 416,-1323 Q 4294,938 3878,423 3463,-91 2816,-91 2450,-91 2169,54 1888,200 1656,506 V 0 H 538 v 4863 h 1118 z"
               transform="scale(0.015625)" />
          </defs>
          <use
             xlink:href="#DejaVuSans-Bold-57"
             transform="translate(0,0.015625)"
             id="use92" />
          <use
             xlink:href="#DejaVuSans-31"
             transform="matrix(0.7,0,0,0.7,111.25977,-16.390625)"
             id="use94" />
          <use
             xlink:href="#DejaVuSans-Bold-78"
             transform="translate(158.53027,0.015625)"
             id="use96" />
          <use
             xlink:href="#DejaVuSans-2b"
             transform="translate(242.51465,0.015625)"
             id="use98" />
          <use
             xlink:href="#DejaVuSans-Bold-62"
             transform="translate(345.78613,0.015625)"
             id="use100" />
          <use
             xlink:href="#DejaVuSans-31"
             transform="matrix(0.7,0,0,0.7,418.32519,-16.390625)"
             id="use102" />
        </g>
      </g>
      <g
         id="text_3">
        <!-- Layer 2 -->
        <g
           transform="matrix(0.12,0,0,-0.12,298.21219,224.13662)"
           id="g124">
          <defs
             id="defs108">
            <path
               id="DejaVuSans-Bold-32"
               d="M 1844,884 H 3897 V 0 H 506 v 884 l 1703,1504 q 229,206 338,403 109,197 109,409 0,328 -220,528 -220,200 -586,200 -281,0 -616,-120 -334,-120 -715,-358 v 1025 q 406,134 803,204 397,71 778,71 838,0 1302,-369 464,-368 464,-1028 0,-381 -197,-711 -197,-329 -828,-883 z"
               transform="scale(0.015625)" />
          </defs>
          <use
             xlink:href="#DejaVuSans-Bold-4c"
             id="use110" />
          <use
             xlink:href="#DejaVuSans-Bold-61"
             x="63.720703"
             id="use112" />
          <use
             xlink:href="#DejaVuSans-Bold-79"
             x="128.07617"
             id="use114" />
          <use
             xlink:href="#DejaVuSans-Bold-65"
             x="193.26172"
             id="use116" />
          <use
             xlink:href="#DejaVuSans-Bold-72"
             x="261.08398"
             id="use118" />
          <use
             xlink:href="#DejaVuSans-Bold-20"
             x="310.40039"
             id="use120" />
          <use
             xlink:href="#DejaVuSans-Bold-32"
             x="345.21484"
             id="use122" />
        </g>
        <!-- (Linear) -->
        <g
           transform="matrix(0.12,0,0,-0.12,296.38687,237.66775)"
           id="g142">
          <use
             xlink:href="#DejaVuSans-Bold-28"
             id="use126" />
          <use
             xlink:href="#DejaVuSans-Bold-4c"
             x="45.703125"
             id="use128" />
          <use
             xlink:href="#DejaVuSans-Bold-69"
             x="109.42383"
             id="use130" />
          <use
             xlink:href="#DejaVuSans-Bold-6e"
             x="143.70117"
             id="use132" />
          <use
             xlink:href="#DejaVuSans-Bold-65"
             x="214.89258"
             id="use134" />
          <use
             xlink:href="#DejaVuSans-Bold-61"
             x="282.71484"
             id="use136" />
          <use
             xlink:href="#DejaVuSans-Bold-72"
             x="350.19531"
             id="use138" />
          <use
             xlink:href="#DejaVuSans-Bold-29"
             x="399.51172"
             id="use140" />
        </g>
      </g>
      <g
         id="text_4">
        <!-- $\mathbf{W}_2 \mathbf{y}_1 + \mathbf{b}_2$ -->
        <g
           transform="matrix(0.1,0,0,-0.1,297.35,322.53781)"
           id="g162">
          <defs
             id="defs146">
            <path
               id="DejaVuSans-32"
               d="M 1228,531 H 3431 V 0 H 469 v 531 q 359,372 979,998 621,627 780,809 303,340 423,576 121,236 121,464 0,372 -261,606 -261,235 -680,235 -297,0 -627,-103 -329,-103 -704,-313 v 638 q 381,153 712,231 332,78 607,78 725,0 1156,-363 431,-362 431,-968 0,-288 -108,-546 -107,-257 -392,-607 -78,-91 -497,-524 Q 1991,1309 1228,531 Z"
               transform="scale(0.015625)" />
          </defs>
          <use
             xlink:href="#DejaVuSans-Bold-57"
             transform="translate(0,0.015625)"
             id="use148" />
          <use
             xlink:href="#DejaVuSans-32"
             transform="matrix(0.7,0,0,0.7,111.25977,-16.390625)"
             id="use150" />
          <use
             xlink:href="#DejaVuSans-Bold-79"
             transform="translate(158.53027,0.015625)"
             id="use152" />
          <use
             xlink:href="#DejaVuSans-31"
             transform="matrix(0.7,0,0,0.7,224.67285,-16.390625)"
             id="use154" />
          <use
             xlink:href="#DejaVuSans-2b"
             transform="translate(291.42578,0.015625)"
             id="use156" />
          <use
             xlink:href="#DejaVuSans-Bold-62"
             transform="translate(394.69727,0.015625)"
             id="use158" />
          <use
             xlink:href="#DejaVuSans-32"
             transform="matrix(0.7,0,0,0.7,467.23633,-16.390625)"
             id="use160" />
        </g>
      </g>
      <g
         id="text_5">
        <!-- = -->
        <g
           transform="matrix(0.24,0,0,-0.24,418.34438,234.26031)"
           id="g170">
          <defs
             id="defs166">
            <path
               id="DejaVuSans-Bold-3d"
               d="M 678,3084 H 4684 V 2350 H 678 Z m 0,-1421 H 4684 V 922 H 678 Z"
               transform="scale(0.015625)" />
          </defs>
          <use
             xlink:href="#DejaVuSans-Bold-3d"
             id="use168" />
        </g>
      </g>
      <g
         id="text_6">
        <!-- Single Layer -->
        <g
           style="fill:#92400e"
           transform="matrix(0.12,0,0,-0.12,491.91656,224.1835)"
           id="g202">
          <defs
             id="defs176">
            <path
               id="DejaVuSans-Bold-53"
               d="m 3834,4519 v -988 q -384,172 -750,259 -365,88 -690,88 -431,0 -638,-119 -206,-118 -206,-368 0,-188 139,-293 139,-104 505,-179 l 512,-103 q 778,-157 1106,-476 329,-318 329,-906 Q 4141,663 3683,286 3225,-91 2284,-91 1841,-91 1394,-6 947,78 500,244 v 1015 q 447,-237 864,-358 417,-120 805,-120 394,0 603,131 209,132 209,376 0,218 -142,337 -142,119 -567,213 l -466,103 q -700,150 -1024,478 -323,328 -323,884 0,697 450,1072 450,375 1294,375 385,0 791,-58 406,-58 840,-173 z"
               transform="scale(0.015625)" />
            <path
               id="DejaVuSans-Bold-67"
               d="M 2919,594 Q 2688,288 2409,144 2131,0 1766,0 1125,0 706,504 288,1009 288,1791 q 0,784 418,1285 419,502 1060,502 365,0 643,-144 279,-143 510,-453 v 519 H 4044 V 353 q 0,-844 -533,-1289 -533,-445 -1545,-445 -328,0 -635,50 -306,50 -615,153 v 872 q 293,-169 574,-252 282,-83 566,-83 550,0 806,241 257,241 257,753 z m -738,2178 q -347,0 -541,-257 -193,-256 -193,-724 0,-482 187,-730 188,-248 547,-248 350,0 544,256 194,256 194,722 0,468 -194,724 -194,257 -544,257 z"
               transform="scale(0.015625)" />
            <path
               id="DejaVuSans-Bold-6c"
               d="M 538,4863 H 1656 V 0 H 538 Z"
               transform="scale(0.015625)" />
          </defs>
          <use
             xlink:href="#DejaVuSans-Bold-53"
             id="use178" />
          <use
             xlink:href="#DejaVuSans-Bold-69"
             x="72.021484"
             id="use180" />
          <use
             xlink:href="#DejaVuSans-Bold-6e"
             x="106.29883"
             id="use182" />
          <use
             xlink:href="#DejaVuSans-Bold-67"
             x="177.49023"
             id="use184" />
          <use
             xlink:href="#DejaVuSans-Bold-6c"
             x="249.07227"
             id="use186" />
          <use
             xlink:href="#DejaVuSans-Bold-65"
             x="283.34961"
             id="use188" />
          <use
             xlink:href="#DejaVuSans-Bold-20"
             x="351.17188"
             id="use190" />
          <use
             xlink:href="#DejaVuSans-Bold-4c"
             x="385.98633"
             id="use192" />
          <use
             xlink:href="#DejaVuSans-Bold-61"
             x="449.70703"
             id="use194" />
          <use
             xlink:href="#DejaVuSans-Bold-79"
             x="514.0625"
             id="use196" />
          <use
             xlink:href="#DejaVuSans-Bold-65"
             x="579.24805"
             id="use198" />
          <use
             xlink:href="#DejaVuSans-Bold-72"
             x="647.07031"
             id="use200" />
        </g>
        <!-- (Equivalent) -->
        <g
           style="fill:#92400e"
           transform="matrix(0.12,0,0,-0.12,492.26812,237.71462)"
           id="g235">
          <defs
             id="defs209">
            <path
               id="DejaVuSans-Bold-45"
               d="M 588,4666 H 3834 V 3756 H 1791 V 2888 H 3713 V 1978 H 1791 V 909 H 3903 V 0 H 588 Z"
               transform="scale(0.015625)" />
            <path
               id="DejaVuSans-Bold-71"
               d="m 2181,2772 q -356,0 -545,-263 -189,-262 -189,-762 0,-500 189,-763 189,-262 545,-262 360,0 549,262 189,263 189,763 0,500 -189,762 -189,263 -549,263 z M 2919,506 Q 2688,197 2409,53 2131,-91 1766,-91 1119,-91 703,423 288,938 288,1747 q 0,809 415,1320 416,511 1063,511 365,0 643,-144 279,-143 510,-453 v 519 H 4044 V -1331 H 2919 Z"
               transform="scale(0.015625)" />
            <path
               id="DejaVuSans-Bold-75"
               d="m 500,1363 v 2137 h 1125 v -350 q 0,-284 -3,-714 -3,-430 -3,-573 0,-422 22,-608 22,-186 75,-271 68,-109 179,-169 111,-59 255,-59 350,0 550,269 200,269 200,747 V 3500 H 4019 V 0 H 2900 V 506 Q 2647,200 2364,54 2081,-91 1741,-91 1134,-91 817,281 500,653 500,1363 Z"
               transform="scale(0.015625)" />
            <path
               id="DejaVuSans-Bold-76"
               d="m 97,3500 h 1119 l 872,-2419 868,2419 H 4078 L 2700,0 H 1472 Z"
               transform="scale(0.015625)" />
            <path
               id="DejaVuSans-Bold-74"
               d="M 1759,4494 V 3500 H 2913 V 2700 H 1759 V 1216 q 0,-244 97,-330 97,-86 385,-86 h 575 V 0 H 1856 Q 1194,0 917,276 641,553 641,1216 V 2700 H 84 v 800 h 557 v 994 z"
               transform="scale(0.015625)" />
          </defs>
          <use
             xlink:href="#DejaVuSans-Bold-28"
             id="use211" />
          <use
             xlink:href="#DejaVuSans-Bold-45"
             x="45.703125"
             id="use213" />
          <use
             xlink:href="#DejaVuSans-Bold-71"
             x="114.01367"
             id="use215" />
          <use
             xlink:href="#DejaVuSans-Bold-75"
             x="185.5957"
             id="use217" />
          <use
             xlink:href="#DejaVuSans-Bold-69"
             x="256.78711"
             id="use219" />
          <use
             xlink:href="#DejaVuSans-Bold-76"
             x="291.06445"
             id="use221" />
          <use
             xlink:href="#DejaVuSans-Bold-61"
             x="356.25"
             id="use223" />
          <use
             xlink:href="#DejaVuSans-Bold-6c"
             x="423.73047"
             id="use225" />
          <use
             xlink:href="#DejaVuSans-Bold-65"
             x="458.00781"
             id="use227" />
          <use
             xlink:href="#DejaVuSans-Bold-6e"
             x="525.83008"
             id="use229" />
          <use
             xlink:href="#DejaVuSans-Bold-74"
             x="597.02148"
             id="use231" />
          <use
             xlink:href="#DejaVuSans-Bold-29"
             x="644.82422"
             id="use233" />
        </g>
      </g>
      <g
         id="text_7">
        <!-- $\mathbf{W}_{c} \mathbf{x} + \mathbf{b}_{c}$ -->
        <g
           style="fill:#92400e"
           transform="matrix(0.1,0,0,-0.1,511,322.53781)"
           id="g253">
          <defs
             id="defs239">
            <path
               id="DejaVuSans-Oblique-63"
               d="m 3431,3366 -115,-569 q -207,150 -440,225 -232,75 -482,75 -275,0 -524,-97 -248,-97 -417,-275 -269,-272 -416,-638 -146,-365 -146,-756 0,-472 236,-703 236,-231 717,-231 237,0 504,72 268,72 558,215 L 2797,116 Q 2547,13 2283,-39 2019,-91 1741,-91 1044,-91 669,257 294,606 294,1253 q 0,544 195,1002 195,458 580,823 262,250 615,378 354,128 772,128 244,0 484,-55 241,-54 491,-163 z"
               transform="scale(0.015625)" />
          </defs>
          <use
             xlink:href="#DejaVuSans-Bold-57"
             transform="translate(0,0.015625)"
             id="use241" />
          <use
             xlink:href="#DejaVuSans-Oblique-63"
             transform="matrix(0.7,0,0,0.7,111.25977,-16.390625)"
             id="use243" />
          <use
             xlink:href="#DejaVuSans-Bold-78"
             transform="translate(152.48047,0.015625)"
             id="use245" />
          <use
             xlink:href="#DejaVuSans-2b"
             transform="translate(236.46484,0.015625)"
             id="use247" />
          <use
             xlink:href="#DejaVuSans-Bold-62"
             transform="translate(339.73633,0.015625)"
             id="use249" />
          <use
             xlink:href="#DejaVuSans-Oblique-63"
             transform="matrix(0.7,0,0,0.7,412.27539,-16.390625)"
             id="use251" />
        </g>
      </g>
      <g
         id="text_8">
        <!-- (combined) -->
        <g
           style="fill:#92400e"
           transform="matrix(0.08,0,0,-0.08,510.84937,341.51781)"
           id="g287">
          <defs
             id="defs265">
            <path
               id="DejaVuSans-Oblique-28"
               d="M 2731,4856 Q 1903,3822 1495,2892 1088,1963 1088,1100 q 0,-494 118,-980 119,-486 357,-964 H 1063 Q 775,-306 634,201 494,709 494,1197 q 0,928 429,1839 430,911 1299,1820 z"
               transform="scale(0.015625)" />
            <path
               id="DejaVuSans-Oblique-6f"
               d="m 1625,-91 q -616,0 -974,380 -357,380 -357,1036 0,381 123,776 124,396 321,665 309,418 690,618 381,200 863,200 597,0 964,-372 367,-371 367,-971 0,-416 -122,-829 Q 3378,1000 3181,728 2875,309 2494,109 2113,-91 1625,-91 Z M 891,1344 q 0,-475 198,-711 199,-236 602,-236 578,0 957,504 380,505 380,1280 0,453 -203,684 -203,232 -597,232 -325,0 -578,-152 -253,-151 -453,-461 -147,-231 -227,-528 -79,-297 -79,-612 z"
               transform="scale(0.015625)" />
            <path
               id="DejaVuSans-Oblique-6d"
               d="M 5747,2113 5338,0 h -575 l 403,2094 q 25,134 37,231 13,97 13,166 0,281 -157,437 -156,156 -437,156 -419,0 -747,-314 -328,-314 -425,-817 L 3066,0 h -575 l 409,2094 q 25,115 37,213 13,99 13,177 0,285 -156,442 -156,158 -431,158 -425,0 -754,-314 -328,-314 -425,-817 L 800,0 H 225 l 684,3500 h 575 l -109,-544 q 234,307 548,467 315,161 674,161 381,0 626,-200 246,-200 296,-556 262,369 607,562 346,194 730,194 450,0 695,-259 246,-259 246,-734 0,-103 -13,-227 -12,-123 -37,-251 z"
               transform="scale(0.015625)" />
            <path
               id="DejaVuSans-Oblique-62"
               d="m 3169,2138 q 0,453 -208,709 -208,256 -573,256 -266,0 -499,-130 -233,-129 -405,-376 -181,-259 -286,-602 -104,-342 -104,-682 0,-432 204,-677 205,-245 565,-245 271,0 502,126 232,127 407,374 178,256 287,596 110,341 110,651 z m -1788,831 q 213,287 533,451 320,164 670,164 538,0 855,-363 317,-362 317,-980 0,-507 -186,-982 Q 3384,784 3041,416 2816,172 2522,40 2228,-91 1906,-91 1566,-91 1316,65 1066,222 909,531 L 806,0 H 231 l 947,4863 h 575 z"
               transform="scale(0.015625)" />
            <path
               id="DejaVuSans-Oblique-69"
               d="m 1172,4863 h 575 L 1606,4134 H 1031 Z M 909,3500 h 575 L 800,0 H 225 Z"
               transform="scale(0.015625)" />
            <path
               id="DejaVuSans-Oblique-6e"
               d="M 3566,2113 3156,0 h -578 l 410,2091 q 28,147 43,259 16,113 16,178 0,263 -166,409 -165,147 -462,147 -463,0 -797,-308 -334,-307 -438,-835 L 800,0 H 225 l 678,3500 h 575 l -115,-550 q 240,303 577,468 338,166 710,166 463,0 717,-250 255,-250 255,-703 0,-112 -14,-240 -14,-128 -42,-278 z"
               transform="scale(0.015625)" />
            <path
               id="DejaVuSans-Oblique-65"
               d="m 3078,2063 q 10,50 14,103 5,53 5,106 0,381 -224,603 -223,222 -607,222 -428,0 -757,-271 -328,-270 -496,-767 z m 500,-450 H 903 q -19,-119 -25,-188 -6,-69 -6,-119 0,-434 267,-672 267,-237 755,-237 375,0 709,84 335,85 622,247 L 3116,159 Q 2806,34 2476,-28 2147,-91 1806,-91 1078,-91 686,257 294,606 294,1247 q 0,547 195,1017 195,470 574,839 243,231 579,356 336,125 714,125 594,0 945,-356 352,-356 352,-956 0,-144 -19,-308 -18,-164 -56,-351 z"
               transform="scale(0.015625)" />
            <path
               id="DejaVuSans-Oblique-64"
               d="M 2675,525 Q 2444,222 2128,65 1813,-91 1428,-91 903,-91 598,267 294,625 294,1247 q 0,519 184,989 185,470 535,842 231,247 521,376 291,130 610,130 337,0 595,-163 258,-162 399,-465 l 375,1907 h 578 L 3144,0 H 2566 Z M 891,1350 q 0,-453 204,-706 205,-253 568,-253 268,0 498,129 230,130 405,383 184,263 290,606 107,344 107,679 0,434 -205,677 -205,244 -564,244 -272,0 -507,-128 Q 1453,2853 1288,2613 1106,2353 998,2009 891,1666 891,1350 Z"
               transform="scale(0.015625)" />
            <path
               id="DejaVuSans-Oblique-29"
               d="m -397,-844 q 831,1035 1237,1964 407,930 407,1793 0,493 -117,979 -117,486 -355,964 h 500 q 288,-540 428,-1044 141,-503 141,-990 0,-931 -433,-1849 Q 978,56 116,-844 Z"
               transform="scale(0.015625)" />
          </defs>
          <use
             xlink:href="#DejaVuSans-Oblique-28"
             id="use267" />
          <use
             xlink:href="#DejaVuSans-Oblique-63"
             x="39.013672"
             id="use269" />
          <use
             xlink:href="#DejaVuSans-Oblique-6f"
             x="93.994141"
             id="use271" />
          <use
             xlink:href="#DejaVuSans-Oblique-6d"
             x="155.17578"
             id="use273" />
          <use
             xlink:href="#DejaVuSans-Oblique-62"
             x="252.58789"
             id="use275" />
          <use
             xlink:href="#DejaVuSans-Oblique-69"
             x="316.06445"
             id="use277" />
          <use
             xlink:href="#DejaVuSans-Oblique-6e"
             x="343.84766"
             id="use279" />
          <use
             xlink:href="#DejaVuSans-Oblique-65"
             x="407.22656"
             id="use281" />
          <use
             xlink:href="#DejaVuSans-Oblique-64"
             x="468.75"
             id="use283" />
          <use
             xlink:href="#DejaVuSans-Oblique-29"
             x="532.22656"
             id="use285" />
        </g>
      </g>
      <g
         id="text_9"
         transform="translate(-29.393259,8.1972888)">
        <!-- Collapse! -->
        <g
           style="fill:#dc2626"
           transform="matrix(0.11,0,0,-0.11,434.75305,113.75781)"
           id="g315">
          <defs
             id="defs295">
            <path
               id="DejaVuSans-Bold-43"
               d="M 4288,256 Q 3956,84 3597,-3 3238,-91 2847,-91 1681,-91 1000,561 319,1213 319,2328 q 0,1119 681,1770 681,652 1847,652 391,0 750,-88 359,-87 691,-259 v -965 q -335,228 -660,334 -325,106 -684,106 -644,0 -1013,-413 -368,-412 -368,-1137 0,-722 368,-1135 369,-412 1013,-412 359,0 684,106 325,107 660,335 z"
               transform="scale(0.015625)" />
            <path
               id="DejaVuSans-Bold-6f"
               d="m 2203,2784 q -372,0 -567,-267 -195,-267 -195,-770 0,-503 195,-771 195,-267 567,-267 366,0 559,267 194,268 194,771 0,503 -194,770 -193,267 -559,267 z m 0,800 q 903,0 1411,-488 508,-487 508,-1349 Q 4122,884 3614,396 3106,-91 2203,-91 1297,-91 786,396 275,884 275,1747 q 0,862 511,1349 511,488 1417,488 z"
               transform="scale(0.015625)" />
            <path
               id="DejaVuSans-Bold-70"
               d="M 1656,506 V -1331 H 538 v 4831 h 1118 v -512 q 232,306 513,451 281,145 647,145 647,0 1062,-514 416,-514 416,-1323 0,-809 -416,-1324 -415,-514 -1062,-514 -366,0 -647,145 -281,146 -513,452 z m 744,2266 q -359,0 -552,-264 -192,-264 -192,-761 0,-497 192,-761 193,-264 552,-264 359,0 548,262 190,263 190,763 0,500 -190,762 -189,263 -548,263 z"
               transform="scale(0.015625)" />
            <path
               id="DejaVuSans-Bold-73"
               d="m 3272,3391 v -850 q -359,150 -694,225 -334,75 -631,75 -319,0 -474,-80 -154,-80 -154,-245 0,-135 117,-207 117,-71 420,-106 l 197,-28 q 860,-109 1156,-359 297,-250 297,-785 0,-559 -413,-841 -412,-281 -1230,-281 -347,0 -718,55 -370,55 -761,164 v 850 q 335,-162 686,-244 352,-81 714,-81 329,0 494,90 166,91 166,270 0,150 -114,223 -114,73 -455,114 l -197,25 q -747,94 -1047,347 -300,253 -300,769 0,556 381,824 382,269 1169,269 310,0 650,-47 341,-46 741,-146 z"
               transform="scale(0.015625)" />
            <path
               id="DejaVuSans-Bold-21"
               d="M 897,4666 H 2022 V 2875 L 1863,1569 H 1056 L 897,2875 Z m 0,-3553 H 2022 V 0 H 897 Z"
               transform="scale(0.015625)" />
          </defs>
          <use
             xlink:href="#DejaVuSans-Bold-43"
             id="use297" />
          <use
             xlink:href="#DejaVuSans-Bold-6f"
             x="73.388672"
             id="use299" />
          <use
             xlink:href="#DejaVuSans-Bold-6c"
             x="142.08984"
             id="use301" />
          <use
             xlink:href="#DejaVuSans-Bold-6c"
             x="176.36719"
             id="use303" />
          <use
             xlink:href="#DejaVuSans-Bold-61"
             x="210.64453"
             id="use305" />
          <use
             xlink:href="#DejaVuSans-Bold-70"
             x="278.125"
             id="use307" />
          <use
             xlink:href="#DejaVuSans-Bold-73"
             x="349.70703"
             id="use309" />
          <use
             xlink:href="#DejaVuSans-Bold-65"
             x="409.22852"
             id="use311" />
          <use
             xlink:href="#DejaVuSans-Bold-21"
             x="477.05078"
             id="use313" />
        </g>
      </g>
      <g
         id="text_10"
         transform="translate(-6.4370657)">
        <!-- Input $\mathbf{x}$ -->
        <g
           transform="matrix(0.11,0,0,-0.11,42.3,132.73781)"
           id="g335">
          <defs
             id="defs319">
            <path
               id="DejaVuSans-Bold-49"
               d="M 588,4666 H 1791 V 0 H 588 Z"
               transform="scale(0.015625)" />
          </defs>
          <use
             xlink:href="#DejaVuSans-Bold-49"
             transform="translate(0,0.09375)"
             id="use321" />
          <use
             xlink:href="#DejaVuSans-Bold-6e"
             transform="translate(37.207031,0.09375)"
             id="use323" />
          <use
             xlink:href="#DejaVuSans-Bold-70"
             transform="translate(108.39844,0.09375)"
             id="use325" />
          <use
             xlink:href="#DejaVuSans-Bold-75"
             transform="translate(179.98047,0.09375)"
             id="use327" />
          <use
             xlink:href="#DejaVuSans-Bold-74"
             transform="translate(251.17187,0.09375)"
             id="use329" />
          <use
             xlink:href="#DejaVuSans-Bold-20"
             transform="translate(298.97461,0.09375)"
             id="use331" />
          <use
             xlink:href="#DejaVuSans-Bold-78"
             transform="translate(333.78906,0.09375)"
             id="use333" />
        </g>
      </g>
      <g
         id="text_11"
         transform="translate(-47.765143,1.9449718)">
        <!-- Output $\mathbf{y}_2$ -->
        <g
           transform="matrix(0.11,0,0,-0.11,603.9,132.73781)"
           id="g359">
          <defs
             id="defs339">
            <path
               id="DejaVuSans-Bold-4f"
               d="m 2719,3878 q -550,0 -853,-406 -303,-406 -303,-1144 0,-734 303,-1141 303,-406 853,-406 553,0 856,406 303,407 303,1141 0,738 -303,1144 -303,406 -856,406 z m 0,872 q 1125,0 1762,-644 638,-643 638,-1778 Q 5119,1197 4481,553 3844,-91 2719,-91 1597,-91 958,553 319,1197 319,2328 q 0,1135 639,1778 639,644 1761,644 z"
               transform="scale(0.015625)" />
          </defs>
          <use
             xlink:href="#DejaVuSans-Bold-4f"
             transform="translate(0,0.78125)"
             id="use341" />
          <use
             xlink:href="#DejaVuSans-Bold-75"
             transform="translate(85.009766,0.78125)"
             id="use343" />
          <use
             xlink:href="#DejaVuSans-Bold-74"
             transform="translate(156.20117,0.78125)"
             id="use345" />
          <use
             xlink:href="#DejaVuSans-Bold-70"
             transform="translate(204.00391,0.78125)"
             id="use347" />
          <use
             xlink:href="#DejaVuSans-Bold-75"
             transform="translate(275.58594,0.78125)"
             id="use349" />
          <use
             xlink:href="#DejaVuSans-Bold-74"
             transform="translate(346.77734,0.78125)"
             id="use351" />
          <use
             xlink:href="#DejaVuSans-Bold-20"
             transform="translate(394.58008,0.78125)"
             id="use353" />
          <use
             xlink:href="#DejaVuSans-Bold-79"
             transform="translate(429.39453,0.78125)"
             id="use355" />
          <use
             xlink:href="#DejaVuSans-32"
             transform="matrix(0.7,0,0,0.7,495.53711,-15.625)"
             id="use357" />
        </g>
      </g>
      <g
         id="text_12"
         transform="translate(-9.8534011,13.816198)">
        <!-- Linear Layers Collapse: Two layers = One layer -->
        <g
           transform="matrix(0.14,0,0,-0.14,159.30915,62.255841)"
           id="g459">
          <defs
             id="defs365">
            <path
               id="DejaVuSans-Bold-3a"
               d="M 716,3500 H 1844 V 2291 H 716 Z m 0,-2291 H 1844 V 0 H 716 Z"
               transform="scale(0.015625)" />
            <path
               id="DejaVuSans-Bold-54"
               d="M 31,4666 H 4331 V 3756 H 2784 V 0 H 1581 V 3756 H 31 Z"
               transform="scale(0.015625)" />
            <path
               id="DejaVuSans-Bold-77"
               d="m 225,3500 h 1088 l 587,-2412 591,2412 h 934 l 588,-2387 590,2387 H 5691 L 4769,0 H 3547 L 2956,2406 2369,0 H 1147 Z"
               transform="scale(0.015625)" />
          </defs>
          <use
             xlink:href="#DejaVuSans-Bold-4c"
             id="use367" />
          <use
             xlink:href="#DejaVuSans-Bold-69"
             x="63.720703"
             id="use369" />
          <use
             xlink:href="#DejaVuSans-Bold-6e"
             x="97.998047"
             id="use371" />
          <use
             xlink:href="#DejaVuSans-Bold-65"
             x="169.18945"
             id="use373" />
          <use
             xlink:href="#DejaVuSans-Bold-61"
             x="237.01172"
             id="use375" />
          <use
             xlink:href="#DejaVuSans-Bold-72"
             x="304.49219"
             id="use377" />
          <use
             xlink:href="#DejaVuSans-Bold-20"
             x="353.80859"
             id="use379" />
          <use
             xlink:href="#DejaVuSans-Bold-4c"
             x="388.62305"
             id="use381" />
          <use
             xlink:href="#DejaVuSans-Bold-61"
             x="452.34375"
             id="use383" />
          <use
             xlink:href="#DejaVuSans-Bold-79"
             x="516.69922"
             id="use385" />
          <use
             xlink:href="#DejaVuSans-Bold-65"
             x="581.88477"
             id="use387" />
          <use
             xlink:href="#DejaVuSans-Bold-72"
             x="649.70703"
             id="use389" />
          <use
             xlink:href="#DejaVuSans-Bold-73"
             x="699.02344"
             id="use391" />
          <use
             xlink:href="#DejaVuSans-Bold-20"
             x="758.54492"
             id="use393" />
          <use
             xlink:href="#DejaVuSans-Bold-43"
             x="793.35938"
             id="use395" />
          <use
             xlink:href="#DejaVuSans-Bold-6f"
             x="866.74805"
             id="use397" />
          <use
             xlink:href="#DejaVuSans-Bold-6c"
             x="935.44922"
             id="use399" />
          <use
             xlink:href="#DejaVuSans-Bold-6c"
             x="969.72656"
             id="use401" />
          <use
             xlink:href="#DejaVuSans-Bold-61"
             x="1004.0039"
             id="use403" />
          <use
             xlink:href="#DejaVuSans-Bold-70"
             x="1071.4844"
             id="use405" />
          <use
             xlink:href="#DejaVuSans-Bold-73"
             x="1143.0664"
             id="use407" />
          <use
             xlink:href="#DejaVuSans-Bold-65"
             x="1202.5879"
             id="use409" />
          <use
             xlink:href="#DejaVuSans-Bold-3a"
             x="1270.4102"
             id="use411" />
          <use
             xlink:href="#DejaVuSans-Bold-20"
             x="1310.4004"
             id="use413" />
          <use
             xlink:href="#DejaVuSans-Bold-54"
             x="1345.2148"
             id="use415" />
          <use
             xlink:href="#DejaVuSans-Bold-77"
             x="1402.4277"
             id="use417" />
          <use
             xlink:href="#DejaVuSans-Bold-6f"
             x="1494.8105"
             id="use419" />
          <use
             xlink:href="#DejaVuSans-Bold-20"
             x="1563.5117"
             id="use421" />
          <use
             xlink:href="#DejaVuSans-Bold-6c"
             x="1598.3262"
             id="use423" />
          <use
             xlink:href="#DejaVuSans-Bold-61"
             x="1632.6035"
             id="use425" />
          <use
             xlink:href="#DejaVuSans-Bold-79"
             x="1696.959"
             id="use427" />
          <use
             xlink:href="#DejaVuSans-Bold-65"
             x="1762.1445"
             id="use429" />
          <use
             xlink:href="#DejaVuSans-Bold-72"
             x="1829.9668"
             id="use431" />
          <use
             xlink:href="#DejaVuSans-Bold-73"
             x="1879.2832"
             id="use433" />
          <use
             xlink:href="#DejaVuSans-Bold-20"
             x="1938.8047"
             id="use435" />
          <use
             xlink:href="#DejaVuSans-Bold-3d"
             x="1973.6191"
             id="use437" />
          <use
             xlink:href="#DejaVuSans-Bold-20"
             x="2057.4082"
             id="use439" />
          <use
             xlink:href="#DejaVuSans-Bold-4f"
             x="2092.2227"
             id="use441" />
          <use
             xlink:href="#DejaVuSans-Bold-6e"
             x="2177.2324"
             id="use443" />
          <use
             xlink:href="#DejaVuSans-Bold-65"
             x="2248.4238"
             id="use445" />
          <use
             xlink:href="#DejaVuSans-Bold-20"
             x="2316.2461"
             id="use447" />
          <use
             xlink:href="#DejaVuSans-Bold-6c"
             x="2351.0605"
             id="use449" />
          <use
             xlink:href="#DejaVuSans-Bold-61"
             x="2385.3379"
             id="use451" />
          <use
             xlink:href="#DejaVuSans-Bold-79"
             x="2449.6934"
             id="use453" />
          <use
             xlink:href="#DejaVuSans-Bold-65"
             x="2514.8789"
             id="use455" />
          <use
             xlink:href="#DejaVuSans-Bold-72"
             x="2582.7012"
             id="use457" />
        </g>
      </g>
    </g>
  </g>
  <defs
     id="defs467">
    <clipPath
       id="pa13fa18ed5">
      <rect
         x="7.1999998"
         y="37.837811"
         width="842.40002"
         height="379.60001"
         id="rect464" />
    </clipPath>
  </defs>
</svg>
