<?xml version="1.0" encoding="UTF-8" standalone="no"?>
<svg
   width="640.19pt"
   height="355.05801pt"
   viewBox="0 0 640.19001 355.058"
   version="1.1"
   id="svg490"
   sodipodi:docname="nonlinear-prevents-collapse.svg"
   inkscape:version="1.2.2 (b0a8486541, 2022-12-01)"
   xmlns:inkscape="http://www.inkscape.org/namespaces/inkscape"
   xmlns:sodipodi="http://sodipodi.sourceforge.net/DTD/sodipodi-0.dtd"
   xmlns:xlink="http://www.w3.org/1999/xlink"
   xmlns="http://www.w3.org/2000/svg"
   xmlns:svg="http://www.w3.org/2000/svg"
   xmlns:rdf="http://www.w3.org/1999/02/22-rdf-syntax-ns#"
   xmlns:cc="http://creativecommons.org/ns#"
   xmlns:dc="http://purl.org/dc/elements/1.1/">
  <sodipodi:namedview
     id="namedview492"
     pagecolor="#ffffff"
     bordercolor="#000000"
     borderopacity="0.25"
     inkscape:showpageshadow="2"
     inkscape:pageopacity="0.0"
     inkscape:pagecheckerboard="0"
     inkscape:deskcolor="#d1d1d1"
     inkscape:document-units="pt"
     showgrid="false"
     inkscape:zoom="1.621691"
     inkscape:cx="409.44915"
     inkscape:cy="81.704838"
     inkscape:window-width="3840"
     inkscape:window-height="2091"
     inkscape:window-x="0"
     inkscape:window-y="32"
     inkscape:window-maximized="1"
     inkscape:current-layer="figure_1" />
  <metadata
     id="metadata2">
    <rdf:RDF>
      <cc:Work>
        <dc:type
           rdf:resource="http://purl.org/dc/dcmitype/StillImage" />
        <dc:date>2026-01-01T11:39:38.836915</dc:date>
        <dc:format>image/svg+xml</dc:format>
        <dc:creator>
          <cc:Agent>
            <dc:title>Matplotlib v3.6.3, https://matplotlib.org/</dc:title>
          </cc:Agent>
        </dc:creator>
      </cc:Work>
    </rdf:RDF>
  </metadata>
  <defs
     id="defs9">
    <style
       type="text/css"
       id="style4">*{stroke-linejoin: round; stroke-linecap: butt}</style>
    <marker
       id="arrow-blue"
       markerWidth="8"
       markerHeight="8"
       refX="7"
       refY="3"
       orient="auto">
      <polygon
         points="0,6 0,0 8,3 "
         fill="#2563eb"
         id="polygon6" />
    </marker>
  </defs>
  <g
     id="figure_1"
     style="display:inline"
     transform="translate(-35.428812,-54.09577)">
    <g
       id="axes_1"
       transform="translate(32.997055,7.5093224)">
      <g
         id="box_layer1">
        <g
           id="patch_2">
          <path
             d="m 42.3,297.23115 h 140.4 q 7.02,0 7.02,-6.32667 V 164.37115 q 0,-6.32667 -7.02,-6.32667 H 42.3 q -7.02,0 -7.02,6.32667 v 126.53333 q 0,6.32667 7.02,6.32667 z"
             clip-path="url(#p5feadad283)"
             style="fill:#e1f5ff;stroke:#2563eb;stroke-width:2;stroke-linejoin:miter"
             id="path14" />
        </g>
      </g>
      <g
         id="patch_3">
        <path
           d="m 112.5,341.51781 c 5.58518,0 10.94235,-1.99985 14.89167,-5.55911 3.94932,-3.55926 6.16833,-8.38733 6.16833,-13.42089 0,-5.03355 -2.21901,-9.86162 -6.16833,-13.42088 -3.94932,-3.55927 -9.30649,-5.55912 -14.89167,-5.55912 -5.58518,0 -10.94235,1.99985 -14.891669,5.55912 -3.949317,3.55926 -6.168331,8.38733 -6.168331,13.42088 0,5.03356 2.219014,9.86163 6.168331,13.42089 3.949319,3.55926 9.306489,5.55911 14.891669,5.55911 z"
           clip-path="url(#p5feadad283)"
           style="fill:#16a34a;stroke:#15803d;stroke-width:2;stroke-linejoin:miter"
           id="path18" />
      </g>
      <g
         id="patch_4">
        <path
           d="m 189.72,227.63782 h 56.16"
           clip-path="url(#p5feadad283)"
           style="fill:none;stroke:#2563eb;stroke-width:2"
           inkscape:connector-type="polyline"
           inkscape:connector-curvature="0"
           inkscape:connection-start="#box_layer1"
           inkscape:connection-end="#box_layer2"
           marker-end="url(#arrow-blue)"
           id="path21" />
      </g>
      <g
         id="box_layer2">
        <g
           id="patch_5">
          <path
             d="m 252.9,297.23115 h 140.4 q 7.02,0 7.02,-6.32667 V 164.37115 q 0,-6.32667 -7.02,-6.32667 H 252.9 q -7.02,0 -7.02,6.32667 v 126.53333 q 0,6.32667 7.02,6.32667 z"
             clip-path="url(#p5feadad283)"
             style="fill:#e1f5ff;stroke:#2563eb;stroke-width:2;stroke-linejoin:miter"
             id="path24" />
        </g>
      </g>
      <g
         id="patch_6">
        <path
           d="m 323.1,341.51781 c 5.58518,0 10.94235,-1.99985 14.89167,-5.55911 3.94932,-3.55926 6.16833,-8.38733 6.16833,-13.42089 0,-5.03355 -2.21901,-9.86162 -6.16833,-13.42088 -3.94932,-3.55927 -9.30649,-5.55912 -14.89167,-5.55912 -5.58518,0 -10.94235,1.99985 -14.89167,5.55912 -3.94932,3.55926 -6.16833,8.38733 -6.16833,13.42088 0,5.03356 2.21901,9.86163 6.16833,13.42089 3.94932,3.55926 9.30649,5.55911 14.89167,5.55911 z"
           clip-path="url(#p5feadad283)"
           style="fill:#16a34a;stroke:#15803d;stroke-width:2;stroke-linejoin:miter"
           id="path28" />
      </g>
      <g
         id="box_combined">
        <g
           id="patch_7">
          <path
             d="m 463.5,297.23115 h 140.4 q 7.02,0 7.02,-6.32667 V 164.37115 q 0,-6.32667 -7.02,-6.32667 H 463.5 q -7.02,0 -7.02,6.32667 v 126.53333 q 0,6.32667 7.02,6.32667 z"
             clip-path="url(#p5feadad283)"
             style="fill:#fee2e2;stroke:#dc2626;stroke-width:2;stroke-linejoin:miter;stroke-dasharray:7.4, 3.2;stroke-dashoffset:0"
             id="path31" />
        </g>
      </g>
      <g
         id="line2d_1">
        <path
           d="M 463.5,164.37115 603.9,290.90448"
           clip-path="url(#p5feadad283)"
           style="fill:none;stroke:#ff0000;stroke-width:3;stroke-linecap:square"
           id="path35" />
      </g>
      <g
         id="text_1">
        <!-- Layer 1 -->
        <g
           transform="matrix(0.12,0,0,-0.12,87.612187,211.87531)"
           id="g61">
          <defs
             id="defs45">
            <path
               id="DejaVuSans-Bold-4c"
               d="M 588,4666 H 1791 V 909 H 3903 V 0 H 588 Z"
               transform="scale(0.015625)" />
            <path
               id="DejaVuSans-Bold-61"
               d="m 2106,1575 q -350,0 -527,-119 -176,-118 -176,-350 0,-212 142,-333 143,-120 396,-120 315,0 531,226 216,227 216,568 v 128 z m 1710,422 V 0 H 2688 V 519 Q 2463,200 2181,54 1900,-91 1497,-91 953,-91 614,226 275,544 275,1050 q 0,616 423,903 424,288 1330,288 h 660 v 87 q 0,266 -210,389 -209,124 -653,124 -359,0 -669,-72 -309,-72 -575,-216 v 853 q 360,88 722,133 363,45 725,45 947,0 1367,-373 421,-373 421,-1214 z"
               transform="scale(0.015625)" />
            <path
               id="DejaVuSans-Bold-79"
               d="m 78,3500 h 1119 l 941,-2375 800,2375 H 4056 L 2584,-331 q -221,-585 -517,-817 -295,-233 -779,-233 H 641 v 734 h 350 q 284,0 413,91 130,90 202,325 l 32,97 z"
               transform="scale(0.015625)" />
            <path
               id="DejaVuSans-Bold-65"
               d="M 4031,1759 V 1441 H 1416 q 40,-394 284,-591 244,-197 681,-197 353,0 723,105 371,105 762,317 V 213 Q 3469,63 3072,-14 2675,-91 2278,-91 1328,-91 801,392 275,875 275,1747 q 0,856 517,1346 517,491 1424,491 825,0 1320,-497 495,-496 495,-1328 z m -1150,372 q 0,319 -186,514 -186,196 -486,196 -325,0 -528,-183 -203,-183 -253,-527 z"
               transform="scale(0.015625)" />
            <path
               id="DejaVuSans-Bold-72"
               d="m 3138,2547 q -147,69 -293,101 -145,33 -292,33 -431,0 -664,-277 -233,-276 -233,-791 V 0 H 538 v 3500 h 1118 v -575 q 216,344 495,501 280,158 671,158 56,0 121,-5 66,-4 191,-20 z"
               transform="scale(0.015625)" />
            <path
               id="DejaVuSans-Bold-20"
               transform="scale(0.015625)"
               d="" />
            <path
               id="DejaVuSans-Bold-31"
               d="M 750,831 H 1813 V 3847 L 722,3622 v 819 l 1084,225 H 2950 V 831 H 4013 V 0 H 750 Z"
               transform="scale(0.015625)" />
          </defs>
          <use
             xlink:href="#DejaVuSans-Bold-4c"
             id="use47" />
          <use
             xlink:href="#DejaVuSans-Bold-61"
             x="63.720703"
             id="use49" />
          <use
             xlink:href="#DejaVuSans-Bold-79"
             x="128.07617"
             id="use51" />
          <use
             xlink:href="#DejaVuSans-Bold-65"
             x="193.26172"
             id="use53" />
          <use
             xlink:href="#DejaVuSans-Bold-72"
             x="261.08398"
             id="use55" />
          <use
             xlink:href="#DejaVuSans-Bold-20"
             x="310.40039"
             id="use57" />
          <use
             xlink:href="#DejaVuSans-Bold-31"
             x="345.21484"
             id="use59" />
        </g>
      </g>
      <g
         id="text_2">
        <!-- $f(\mathbf{W}_1 \mathbf{x} + \mathbf{b}_1)$ -->
        <g
           transform="matrix(0.1,0,0,-0.1,83.55,246.61781)"
           id="g92">
          <defs
             id="defs72">
            <path
               id="DejaVuSans-Oblique-66"
               d="m 3059,4863 -90,-479 h -550 q -313,0 -455,-123 -142,-123 -211,-452 l -62,-309 h 947 l -85,-447 H 1606 L 1013,0 H 434 l 597,3053 H 481 l 82,447 h 550 l 46,244 q 119,619 417,869 299,250 940,250 z"
               transform="scale(0.015625)" />
            <path
               id="DejaVuSans-28"
               d="m 1984,4856 q -418,-718 -622,-1422 -203,-703 -203,-1425 0,-721 205,-1429 205,-708 620,-1424 h -500 q -468,735 -701,1444 -233,709 -233,1409 0,697 231,1403 232,707 703,1444 z"
               transform="scale(0.015625)" />
            <path
               id="DejaVuSans-Bold-57"
               d="m 191,4666 h 1153 l 806,-3391 800,3391 h 1159 l 800,-3391 807,3391 H 6859 L 5759,0 H 4372 L 3525,3547 2688,0 H 1300 Z"
               transform="scale(0.015625)" />
            <path
               id="DejaVuSans-31"
               d="M 794,531 H 1825 V 4091 L 703,3866 v 575 l 1116,225 h 631 V 531 H 3481 V 0 H 794 Z"
               transform="scale(0.015625)" />
            <path
               id="DejaVuSans-Bold-78"
               d="M 1422,1791 159,3500 h 1185 l 715,-1037 725,1037 H 3969 L 2706,1797 4031,0 H 2847 L 2059,1106 1281,0 H 97 Z"
               transform="scale(0.015625)" />
            <path
               id="DejaVuSans-2b"
               d="M 2944,4013 V 2272 H 4684 V 1741 H 2944 V 0 H 2419 V 1741 H 678 v 531 h 1741 v 1741 z"
               transform="scale(0.015625)" />
            <path
               id="DejaVuSans-Bold-62"
               d="m 2400,722 q 359,0 548,262 190,263 190,763 0,500 -190,762 -189,263 -548,263 -359,0 -552,-264 -192,-264 -192,-761 0,-497 192,-761 193,-264 552,-264 z m -744,2266 q 232,306 513,451 281,145 647,145 647,0 1062,-514 416,-514 416,-1323 Q 4294,938 3878,423 3463,-91 2816,-91 2450,-91 2169,54 1888,200 1656,506 V 0 H 538 v 4863 h 1118 z"
               transform="scale(0.015625)" />
            <path
               id="DejaVuSans-29"
               d="m 513,4856 h 500 q 468,-737 701,-1444 233,-706 233,-1403 0,-700 -233,-1409 -233,-709 -701,-1444 H 513 q 415,716 620,1424 205,708 205,1429 0,722 -205,1425 -205,704 -620,1422 z"
               transform="scale(0.015625)" />
          </defs>
          <use
             xlink:href="#DejaVuSans-Oblique-66"
             transform="translate(0,0.015625)"
             id="use74" />
          <use
             xlink:href="#DejaVuSans-28"
             transform="translate(35.205078,0.015625)"
             id="use76" />
          <use
             xlink:href="#DejaVuSans-Bold-57"
             transform="translate(74.21875,0.015625)"
             id="use78" />
          <use
             xlink:href="#DejaVuSans-31"
             transform="matrix(0.7,0,0,0.7,185.47852,-16.390625)"
             id="use80" />
          <use
             xlink:href="#DejaVuSans-Bold-78"
             transform="translate(232.74902,0.015625)"
             id="use82" />
          <use
             xlink:href="#DejaVuSans-2b"
             transform="translate(316.7334,0.015625)"
             id="use84" />
          <use
             xlink:href="#DejaVuSans-Bold-62"
             transform="translate(420.00488,0.015625)"
             id="use86" />
          <use
             xlink:href="#DejaVuSans-31"
             transform="matrix(0.7,0,0,0.7,492.54394,-16.390625)"
             id="use88" />
          <use
             xlink:href="#DejaVuSans-29"
             transform="translate(539.81445,0.015625)"
             id="use90" />
        </g>
      </g>
      <g
         id="text_3">
        <!-- (Non-linear) -->
        <g
           style="fill:#16a34a"
           transform="matrix(0.09,0,0,-0.09,85.664531,271.92448)"
           id="g132">
          <defs
             id="defs106">
            <path
               id="DejaVuSans-Oblique-28"
               d="M 2731,4856 Q 1903,3822 1495,2892 1088,1963 1088,1100 q 0,-494 118,-980 119,-486 357,-964 H 1063 Q 775,-306 634,201 494,709 494,1197 q 0,928 429,1839 430,911 1299,1820 z"
               transform="scale(0.015625)" />
            <path
               id="DejaVuSans-Oblique-4e"
               d="m 1081,4666 h 850 L 3219,666 4000,4666 h 616 L 3706,0 H 2853 L 1569,4025 788,0 H 172 Z"
               transform="scale(0.015625)" />
            <path
               id="DejaVuSans-Oblique-6f"
               d="m 1625,-91 q -616,0 -974,380 -357,380 -357,1036 0,381 123,776 124,396 321,665 309,418 690,618 381,200 863,200 597,0 964,-372 367,-371 367,-971 0,-416 -122,-829 Q 3378,1000 3181,728 2875,309 2494,109 2113,-91 1625,-91 Z M 891,1344 q 0,-475 198,-711 199,-236 602,-236 578,0 957,504 380,505 380,1280 0,453 -203,684 -203,232 -597,232 -325,0 -578,-152 -253,-151 -453,-461 -147,-231 -227,-528 -79,-297 -79,-612 z"
               transform="scale(0.015625)" />
            <path
               id="DejaVuSans-Oblique-6e"
               d="M 3566,2113 3156,0 h -578 l 410,2091 q 28,147 43,259 16,113 16,178 0,263 -166,409 -165,147 -462,147 -463,0 -797,-308 -334,-307 -438,-835 L 800,0 H 225 l 678,3500 h 575 l -115,-550 q 240,303 577,468 338,166 710,166 463,0 717,-250 255,-250 255,-703 0,-112 -14,-240 -14,-128 -42,-278 z"
               transform="scale(0.015625)" />
            <path
               id="DejaVuSans-Oblique-2d"
               d="m 391,2009 h 1684 l -97,-512 H 288 Z"
               transform="scale(0.015625)" />
            <path
               id="DejaVuSans-Oblique-6c"
               d="m 1172,4863 h 575 L 800,0 H 225 Z"
               transform="scale(0.015625)" />
            <path
               id="DejaVuSans-Oblique-69"
               d="m 1172,4863 h 575 L 1606,4134 H 1031 Z M 909,3500 h 575 L 800,0 H 225 Z"
               transform="scale(0.015625)" />
            <path
               id="DejaVuSans-Oblique-65"
               d="m 3078,2063 q 10,50 14,103 5,53 5,106 0,381 -224,603 -223,222 -607,222 -428,0 -757,-271 -328,-270 -496,-767 z m 500,-450 H 903 q -19,-119 -25,-188 -6,-69 -6,-119 0,-434 267,-672 267,-237 755,-237 375,0 709,84 335,85 622,247 L 3116,159 Q 2806,34 2476,-28 2147,-91 1806,-91 1078,-91 686,257 294,606 294,1247 q 0,547 195,1017 195,470 574,839 243,231 579,356 336,125 714,125 594,0 945,-356 352,-356 352,-956 0,-144 -19,-308 -18,-164 -56,-351 z"
               transform="scale(0.015625)" />
            <path
               id="DejaVuSans-Oblique-61"
               d="M 3438,1997 3047,0 h -575 l 106,531 Q 2325,219 2001,64 1678,-91 1281,-91 834,-91 548,182 263,456 263,884 q 0,613 489,969 489,356 1348,356 h 800 l 31,154 q 7,25 10,54 3,30 3,92 0,279 -227,433 -226,155 -636,155 -281,0 -577,-72 -295,-72 -607,-216 l 100,532 q 325,122 636,182 311,61 601,61 619,0 942,-269 324,-268 324,-781 0,-103 -16,-242 -15,-139 -46,-295 z m -622,-238 h -575 q -707,0 -1046,-189 -339,-189 -339,-586 0,-275 173,-431 174,-156 480,-156 469,0 819,336 350,336 463,898 z"
               transform="scale(0.015625)" />
            <path
               id="DejaVuSans-Oblique-72"
               d="m 2853,2969 q -87,47 -200,72 -112,25 -240,25 -460,0 -804,-349 -343,-348 -456,-933 L 800,0 H 225 l 684,3500 h 575 l -109,-544 q 228,303 545,465 318,163 677,163 94,0 184,-11 91,-10 182,-35 z"
               transform="scale(0.015625)" />
            <path
               id="DejaVuSans-Oblique-29"
               d="m -397,-844 q 831,1035 1237,1964 407,930 407,1793 0,493 -117,979 -117,486 -355,964 h 500 q 288,-540 428,-1044 141,-503 141,-990 0,-931 -433,-1849 Q 978,56 116,-844 Z"
               transform="scale(0.015625)" />
          </defs>
          <use
             xlink:href="#DejaVuSans-Oblique-28"
             id="use108" />
          <use
             xlink:href="#DejaVuSans-Oblique-4e"
             x="39.013672"
             id="use110" />
          <use
             xlink:href="#DejaVuSans-Oblique-6f"
             x="113.81836"
             id="use112" />
          <use
             xlink:href="#DejaVuSans-Oblique-6e"
             x="175"
             id="use114" />
          <use
             xlink:href="#DejaVuSans-Oblique-2d"
             x="238.37891"
             id="use116" />
          <use
             xlink:href="#DejaVuSans-Oblique-6c"
             x="274.46289"
             id="use118" />
          <use
             xlink:href="#DejaVuSans-Oblique-69"
             x="302.24609"
             id="use120" />
          <use
             xlink:href="#DejaVuSans-Oblique-6e"
             x="330.0293"
             id="use122" />
          <use
             xlink:href="#DejaVuSans-Oblique-65"
             x="393.4082"
             id="use124" />
          <use
             xlink:href="#DejaVuSans-Oblique-61"
             x="454.93164"
             id="use126" />
          <use
             xlink:href="#DejaVuSans-Oblique-72"
             x="516.21094"
             id="use128" />
          <use
             xlink:href="#DejaVuSans-Oblique-29"
             x="557.32422"
             id="use130" />
        </g>
      </g>
      <g
         id="text_4">
        <!-- f -->
        <g
           style="fill:#ffffff"
           transform="matrix(0.1,0,0,-0.1,110.325,325.29719)"
           id="g140">
          <defs
             id="defs136">
            <path
               id="DejaVuSans-Bold-66"
               d="m 2841,4863 v -735 h -619 q -238,0 -332,-86 -93,-86 -93,-298 v -244 h 956 V 2700 H 1797 V 0 H 678 V 2700 H 122 v 800 h 556 v 244 q 0,572 319,845 319,274 987,274 z"
               transform="scale(0.015625)" />
          </defs>
          <use
             xlink:href="#DejaVuSans-Bold-66"
             id="use138" />
        </g>
      </g>
      <g
         id="text_5">
        <!-- Layer 2 -->
        <g
           transform="matrix(0.12,0,0,-0.12,298.21219,211.87531)"
           id="g160">
          <defs
             id="defs144">
            <path
               id="DejaVuSans-Bold-32"
               d="M 1844,884 H 3897 V 0 H 506 v 884 l 1703,1504 q 229,206 338,403 109,197 109,409 0,328 -220,528 -220,200 -586,200 -281,0 -616,-120 -334,-120 -715,-358 v 1025 q 406,134 803,204 397,71 778,71 838,0 1302,-369 464,-368 464,-1028 0,-381 -197,-711 -197,-329 -828,-883 z"
               transform="scale(0.015625)" />
          </defs>
          <use
             xlink:href="#DejaVuSans-Bold-4c"
             id="use146" />
          <use
             xlink:href="#DejaVuSans-Bold-61"
             x="63.720703"
             id="use148" />
          <use
             xlink:href="#DejaVuSans-Bold-79"
             x="128.07617"
             id="use150" />
          <use
             xlink:href="#DejaVuSans-Bold-65"
             x="193.26172"
             id="use152" />
          <use
             xlink:href="#DejaVuSans-Bold-72"
             x="261.08398"
             id="use154" />
          <use
             xlink:href="#DejaVuSans-Bold-20"
             x="310.40039"
             id="use156" />
          <use
             xlink:href="#DejaVuSans-Bold-32"
             x="345.21484"
             id="use158" />
        </g>
      </g>
      <g
         id="text_6">
        <!-- $f(\mathbf{W}_2 \mathbf{y}_1 + \mathbf{b}_2)$ -->
        <g
           transform="matrix(0.1,0,0,-0.1,291.7,246.61781)"
           id="g186">
          <defs
             id="defs164">
            <path
               id="DejaVuSans-32"
               d="M 1228,531 H 3431 V 0 H 469 v 531 q 359,372 979,998 621,627 780,809 303,340 423,576 121,236 121,464 0,372 -261,606 -261,235 -680,235 -297,0 -627,-103 -329,-103 -704,-313 v 638 q 381,153 712,231 332,78 607,78 725,0 1156,-363 431,-362 431,-968 0,-288 -108,-546 -107,-257 -392,-607 -78,-91 -497,-524 Q 1991,1309 1228,531 Z"
               transform="scale(0.015625)" />
          </defs>
          <use
             xlink:href="#DejaVuSans-Oblique-66"
             transform="translate(0,0.015625)"
             id="use166" />
          <use
             xlink:href="#DejaVuSans-28"
             transform="translate(35.205078,0.015625)"
             id="use168" />
          <use
             xlink:href="#DejaVuSans-Bold-57"
             transform="translate(74.21875,0.015625)"
             id="use170" />
          <use
             xlink:href="#DejaVuSans-32"
             transform="matrix(0.7,0,0,0.7,185.47852,-16.390625)"
             id="use172" />
          <use
             xlink:href="#DejaVuSans-Bold-79"
             transform="translate(232.74902,0.015625)"
             id="use174" />
          <use
             xlink:href="#DejaVuSans-31"
             transform="matrix(0.7,0,0,0.7,298.8916,-16.390625)"
             id="use176" />
          <use
             xlink:href="#DejaVuSans-2b"
             transform="translate(365.64453,0.015625)"
             id="use178" />
          <use
             xlink:href="#DejaVuSans-Bold-62"
             transform="translate(468.91602,0.015625)"
             id="use180" />
          <use
             xlink:href="#DejaVuSans-32"
             transform="matrix(0.7,0,0,0.7,541.45508,-16.390625)"
             id="use182" />
          <use
             xlink:href="#DejaVuSans-29"
             transform="translate(588.72559,0.015625)"
             id="use184" />
        </g>
      </g>
      <g
         id="text_7">
        <!-- (Non-linear) -->
        <g
           style="fill:#16a34a"
           transform="matrix(0.09,0,0,-0.09,296.26453,271.92448)"
           id="g213">
          <use
             xlink:href="#DejaVuSans-Oblique-28"
             id="use189" />
          <use
             xlink:href="#DejaVuSans-Oblique-4e"
             x="39.013672"
             id="use191" />
          <use
             xlink:href="#DejaVuSans-Oblique-6f"
             x="113.81836"
             id="use193" />
          <use
             xlink:href="#DejaVuSans-Oblique-6e"
             x="175"
             id="use195" />
          <use
             xlink:href="#DejaVuSans-Oblique-2d"
             x="238.37891"
             id="use197" />
          <use
             xlink:href="#DejaVuSans-Oblique-6c"
             x="274.46289"
             id="use199" />
          <use
             xlink:href="#DejaVuSans-Oblique-69"
             x="302.24609"
             id="use201" />
          <use
             xlink:href="#DejaVuSans-Oblique-6e"
             x="330.0293"
             id="use203" />
          <use
             xlink:href="#DejaVuSans-Oblique-65"
             x="393.4082"
             id="use205" />
          <use
             xlink:href="#DejaVuSans-Oblique-61"
             x="454.93164"
             id="use207" />
          <use
             xlink:href="#DejaVuSans-Oblique-72"
             x="516.21094"
             id="use209" />
          <use
             xlink:href="#DejaVuSans-Oblique-29"
             x="557.32422"
             id="use211" />
        </g>
      </g>
      <g
         id="text_8">
        <!-- f -->
        <g
           style="fill:#ffffff"
           transform="matrix(0.1,0,0,-0.1,320.925,325.29719)"
           id="g218">
          <use
             xlink:href="#DejaVuSans-Bold-66"
             id="use216" />
        </g>
      </g>
      <g
         id="text_9">
        <!-- ≠ -->
        <g
           style="fill:#dc2626"
           transform="matrix(0.24,0,0,-0.24,418.34438,234.26031)"
           id="g226">
          <defs
             id="defs222">
            <path
               id="DejaVuSans-Bold-2260"
               d="m 678,3084 h 2472 l 788,954 465,-391 -453,-563 h 734 V 2350 H 3378 L 2834,1663 H 4684 V 922 H 2216 L 1428,-31 959,366 1416,922 H 678 v 741 h 1325 l 550,687 H 678 Z"
               transform="scale(0.015625)" />
          </defs>
          <use
             xlink:href="#DejaVuSans-Bold-2260"
             id="use224" />
        </g>
      </g>
      <g
         id="text_10">
        <!-- Cannot -->
        <g
           style="fill:#dc2626"
           transform="matrix(0.11,0,0,-0.11,511.71375,224.47136)"
           id="g247">
          <defs
             id="defs233">
            <path
               id="DejaVuSans-Bold-43"
               d="M 4288,256 Q 3956,84 3597,-3 3238,-91 2847,-91 1681,-91 1000,561 319,1213 319,2328 q 0,1119 681,1770 681,652 1847,652 391,0 750,-88 359,-87 691,-259 v -965 q -335,228 -660,334 -325,106 -684,106 -644,0 -1013,-413 -368,-412 -368,-1137 0,-722 368,-1135 369,-412 1013,-412 359,0 684,106 325,107 660,335 z"
               transform="scale(0.015625)" />
            <path
               id="DejaVuSans-Bold-6e"
               d="M 4056,2131 V 0 H 2931 v 347 1284 q 0,453 -20,625 -20,172 -70,253 -66,110 -179,171 -112,61 -256,61 -350,0 -550,-271 -200,-270 -200,-748 V 0 H 538 v 3500 h 1118 v -512 q 253,306 537,451 285,145 629,145 606,0 920,-372 314,-371 314,-1081 z"
               transform="scale(0.015625)" />
            <path
               id="DejaVuSans-Bold-6f"
               d="m 2203,2784 q -372,0 -567,-267 -195,-267 -195,-770 0,-503 195,-771 195,-267 567,-267 366,0 559,267 194,268 194,771 0,503 -194,770 -193,267 -559,267 z m 0,800 q 903,0 1411,-488 508,-487 508,-1349 Q 4122,884 3614,396 3106,-91 2203,-91 1297,-91 786,396 275,884 275,1747 q 0,862 511,1349 511,488 1417,488 z"
               transform="scale(0.015625)" />
            <path
               id="DejaVuSans-Bold-74"
               d="M 1759,4494 V 3500 H 2913 V 2700 H 1759 V 1216 q 0,-244 97,-330 97,-86 385,-86 h 575 V 0 H 1856 Q 1194,0 917,276 641,553 641,1216 V 2700 H 84 v 800 h 557 v 994 z"
               transform="scale(0.015625)" />
          </defs>
          <use
             xlink:href="#DejaVuSans-Bold-43"
             id="use235" />
          <use
             xlink:href="#DejaVuSans-Bold-61"
             x="73.388672"
             id="use237" />
          <use
             xlink:href="#DejaVuSans-Bold-6e"
             x="140.86914"
             id="use239" />
          <use
             xlink:href="#DejaVuSans-Bold-6e"
             x="212.06055"
             id="use241" />
          <use
             xlink:href="#DejaVuSans-Bold-6f"
             x="283.25195"
             id="use243" />
          <use
             xlink:href="#DejaVuSans-Bold-74"
             x="351.95312"
             id="use245" />
        </g>
        <!-- Simplify -->
        <g
           style="fill:#dc2626"
           transform="matrix(0.11,0,0,-0.11,508.43695,236.78895)"
           id="g272">
          <defs
             id="defs254">
            <path
               id="DejaVuSans-Bold-53"
               d="m 3834,4519 v -988 q -384,172 -750,259 -365,88 -690,88 -431,0 -638,-119 -206,-118 -206,-368 0,-188 139,-293 139,-104 505,-179 l 512,-103 q 778,-157 1106,-476 329,-318 329,-906 Q 4141,663 3683,286 3225,-91 2284,-91 1841,-91 1394,-6 947,78 500,244 v 1015 q 447,-237 864,-358 417,-120 805,-120 394,0 603,131 209,132 209,376 0,218 -142,337 -142,119 -567,213 l -466,103 q -700,150 -1024,478 -323,328 -323,884 0,697 450,1072 450,375 1294,375 385,0 791,-58 406,-58 840,-173 z"
               transform="scale(0.015625)" />
            <path
               id="DejaVuSans-Bold-69"
               d="M 538,3500 H 1656 V 0 H 538 Z m 0,1363 H 1656 V 3950 H 538 Z"
               transform="scale(0.015625)" />
            <path
               id="DejaVuSans-Bold-6d"
               d="m 3781,2919 q 213,325 505,495 292,170 642,170 603,0 919,-372 316,-371 316,-1081 V 0 H 5038 v 1825 q 3,41 4,84 2,44 2,125 0,372 -110,539 -109,168 -353,168 -318,0 -492,-263 -173,-262 -180,-759 V 0 H 2784 v 1825 q 0,581 -100,748 -100,168 -356,168 -322,0 -497,-264 -175,-264 -175,-755 V 0 H 531 v 3500 h 1125 v -512 q 207,296 474,446 267,150 589,150 362,0 640,-175 279,-175 422,-490 z"
               transform="scale(0.015625)" />
            <path
               id="DejaVuSans-Bold-70"
               d="M 1656,506 V -1331 H 538 v 4831 h 1118 v -512 q 232,306 513,451 281,145 647,145 647,0 1062,-514 416,-514 416,-1323 0,-809 -416,-1324 -415,-514 -1062,-514 -366,0 -647,145 -281,146 -513,452 z m 744,2266 q -359,0 -552,-264 -192,-264 -192,-761 0,-497 192,-761 193,-264 552,-264 359,0 548,262 190,263 190,763 0,500 -190,762 -189,263 -548,263 z"
               transform="scale(0.015625)" />
            <path
               id="DejaVuSans-Bold-6c"
               d="M 538,4863 H 1656 V 0 H 538 Z"
               transform="scale(0.015625)" />
          </defs>
          <use
             xlink:href="#DejaVuSans-Bold-53"
             id="use256" />
          <use
             xlink:href="#DejaVuSans-Bold-69"
             x="72.021484"
             id="use258" />
          <use
             xlink:href="#DejaVuSans-Bold-6d"
             x="106.29883"
             id="use260" />
          <use
             xlink:href="#DejaVuSans-Bold-70"
             x="210.49805"
             id="use262" />
          <use
             xlink:href="#DejaVuSans-Bold-6c"
             x="282.08008"
             id="use264" />
          <use
             xlink:href="#DejaVuSans-Bold-69"
             x="316.35742"
             id="use266" />
          <use
             xlink:href="#DejaVuSans-Bold-66"
             x="350.63477"
             id="use268" />
          <use
             xlink:href="#DejaVuSans-Bold-79"
             x="394.14062"
             id="use270" />
        </g>
      </g>
      <g
         id="text_11"
         transform="translate(-95.159192,2.8763005)">
        <!-- Non-linearity breaks composition! -->
        <g
           style="fill:#16a34a"
           transform="matrix(0.12,0,0,-0.12,313.05563,366.82448)"
           id="g349">
          <defs
             id="defs281">
            <path
               id="DejaVuSans-Bold-4e"
               d="M 588,4666 H 1931 L 3628,1466 V 4666 H 4769 V 0 H 3425 L 1728,3200 V 0 H 588 Z"
               transform="scale(0.015625)" />
            <path
               id="DejaVuSans-Bold-2d"
               d="M 347,2297 H 2309 V 1388 H 347 Z"
               transform="scale(0.015625)" />
            <path
               id="DejaVuSans-Bold-6b"
               d="M 538,4863 H 1656 V 2216 L 2944,3500 H 4244 L 2534,1894 4378,0 H 3022 L 1656,1459 V 0 H 538 Z"
               transform="scale(0.015625)" />
            <path
               id="DejaVuSans-Bold-73"
               d="m 3272,3391 v -850 q -359,150 -694,225 -334,75 -631,75 -319,0 -474,-80 -154,-80 -154,-245 0,-135 117,-207 117,-71 420,-106 l 197,-28 q 860,-109 1156,-359 297,-250 297,-785 0,-559 -413,-841 -412,-281 -1230,-281 -347,0 -718,55 -370,55 -761,164 v 850 q 335,-162 686,-244 352,-81 714,-81 329,0 494,90 166,91 166,270 0,150 -114,223 -114,73 -455,114 l -197,25 q -747,94 -1047,347 -300,253 -300,769 0,556 381,824 382,269 1169,269 310,0 650,-47 341,-46 741,-146 z"
               transform="scale(0.015625)" />
            <path
               id="DejaVuSans-Bold-63"
               d="m 3366,3391 v -913 q -228,156 -458,231 -230,75 -477,75 -468,0 -729,-273 -261,-273 -261,-764 0,-491 261,-765 261,-273 729,-273 263,0 499,78 236,79 436,232 V 103 Q 3103,6 2833,-42 2563,-91 2291,-91 1344,-91 809,395 275,881 275,1747 q 0,866 534,1351 535,486 1482,486 275,0 542,-48 267,-48 533,-145 z"
               transform="scale(0.015625)" />
            <path
               id="DejaVuSans-Bold-21"
               d="M 897,4666 H 2022 V 2875 L 1863,1569 H 1056 L 897,2875 Z m 0,-3553 H 2022 V 0 H 897 Z"
               transform="scale(0.015625)" />
          </defs>
          <use
             xlink:href="#DejaVuSans-Bold-4e"
             id="use283" />
          <use
             xlink:href="#DejaVuSans-Bold-6f"
             x="83.691406"
             id="use285" />
          <use
             xlink:href="#DejaVuSans-Bold-6e"
             x="152.39258"
             id="use287" />
          <use
             xlink:href="#DejaVuSans-Bold-2d"
             x="223.58398"
             id="use289" />
          <use
             xlink:href="#DejaVuSans-Bold-6c"
             x="265.08789"
             id="use291" />
          <use
             xlink:href="#DejaVuSans-Bold-69"
             x="299.36523"
             id="use293" />
          <use
             xlink:href="#DejaVuSans-Bold-6e"
             x="333.64258"
             id="use295" />
          <use
             xlink:href="#DejaVuSans-Bold-65"
             x="404.83398"
             id="use297" />
          <use
             xlink:href="#DejaVuSans-Bold-61"
             x="472.65625"
             id="use299" />
          <use
             xlink:href="#DejaVuSans-Bold-72"
             x="540.13672"
             id="use301" />
          <use
             xlink:href="#DejaVuSans-Bold-69"
             x="589.45312"
             id="use303" />
          <use
             xlink:href="#DejaVuSans-Bold-74"
             x="623.73047"
             id="use305" />
          <use
             xlink:href="#DejaVuSans-Bold-79"
             x="671.5332"
             id="use307" />
          <use
             xlink:href="#DejaVuSans-Bold-20"
             x="736.71875"
             id="use309" />
          <use
             xlink:href="#DejaVuSans-Bold-62"
             x="771.5332"
             id="use311" />
          <use
             xlink:href="#DejaVuSans-Bold-72"
             x="843.11523"
             id="use313" />
          <use
             xlink:href="#DejaVuSans-Bold-65"
             x="892.43164"
             id="use315" />
          <use
             xlink:href="#DejaVuSans-Bold-61"
             x="960.25391"
             id="use317" />
          <use
             xlink:href="#DejaVuSans-Bold-6b"
             x="1027.7344"
             id="use319" />
          <use
             xlink:href="#DejaVuSans-Bold-73"
             x="1094.2383"
             id="use321" />
          <use
             xlink:href="#DejaVuSans-Bold-20"
             x="1153.7598"
             id="use323" />
          <use
             xlink:href="#DejaVuSans-Bold-63"
             x="1188.5742"
             id="use325" />
          <use
             xlink:href="#DejaVuSans-Bold-6f"
             x="1247.8516"
             id="use327" />
          <use
             xlink:href="#DejaVuSans-Bold-6d"
             x="1316.5527"
             id="use329" />
          <use
             xlink:href="#DejaVuSans-Bold-70"
             x="1420.752"
             id="use331" />
          <use
             xlink:href="#DejaVuSans-Bold-6f"
             x="1492.334"
             id="use333" />
          <use
             xlink:href="#DejaVuSans-Bold-73"
             x="1561.0352"
             id="use335" />
          <use
             xlink:href="#DejaVuSans-Bold-69"
             x="1620.5566"
             id="use337" />
          <use
             xlink:href="#DejaVuSans-Bold-74"
             x="1654.834"
             id="use339" />
          <use
             xlink:href="#DejaVuSans-Bold-69"
             x="1702.6367"
             id="use341" />
          <use
             xlink:href="#DejaVuSans-Bold-6f"
             x="1736.9141"
             id="use343" />
          <use
             xlink:href="#DejaVuSans-Bold-6e"
             x="1805.6152"
             id="use345" />
          <use
             xlink:href="#DejaVuSans-Bold-21"
             x="1876.8066"
             id="use347" />
        </g>
      </g>
      <g
         id="text_12">
        <!-- Input $\mathbf{x}$ -->
        <g
           transform="matrix(0.11,0,0,-0.11,42.3,132.73781)"
           id="g370">
          <defs
             id="defs354">
            <path
               id="DejaVuSans-Bold-49"
               d="M 588,4666 H 1791 V 0 H 588 Z"
               transform="scale(0.015625)" />
            <path
               id="DejaVuSans-Bold-75"
               d="m 500,1363 v 2137 h 1125 v -350 q 0,-284 -3,-714 -3,-430 -3,-573 0,-422 22,-608 22,-186 75,-271 68,-109 179,-169 111,-59 255,-59 350,0 550,269 200,269 200,747 V 3500 H 4019 V 0 H 2900 V 506 Q 2647,200 2364,54 2081,-91 1741,-91 1134,-91 817,281 500,653 500,1363 Z"
               transform="scale(0.015625)" />
          </defs>
          <use
             xlink:href="#DejaVuSans-Bold-49"
             transform="translate(0,0.09375)"
             id="use356" />
          <use
             xlink:href="#DejaVuSans-Bold-6e"
             transform="translate(37.207031,0.09375)"
             id="use358" />
          <use
             xlink:href="#DejaVuSans-Bold-70"
             transform="translate(108.39844,0.09375)"
             id="use360" />
          <use
             xlink:href="#DejaVuSans-Bold-75"
             transform="translate(179.98047,0.09375)"
             id="use362" />
          <use
             xlink:href="#DejaVuSans-Bold-74"
             transform="translate(251.17187,0.09375)"
             id="use364" />
          <use
             xlink:href="#DejaVuSans-Bold-20"
             transform="translate(298.97461,0.09375)"
             id="use366" />
          <use
             xlink:href="#DejaVuSans-Bold-78"
             transform="translate(333.78906,0.09375)"
             id="use368" />
        </g>
      </g>
      <g
         id="text_13"
         transform="translate(-48.066617,-0.01201586)">
        <!-- Output $\mathbf{y}_2$ -->
        <g
           transform="matrix(0.11,0,0,-0.11,603.9,132.73781)"
           id="g394">
          <defs
             id="defs374">
            <path
               id="DejaVuSans-Bold-4f"
               d="m 2719,3878 q -550,0 -853,-406 -303,-406 -303,-1144 0,-734 303,-1141 303,-406 853,-406 553,0 856,406 303,407 303,1141 0,738 -303,1144 -303,406 -856,406 z m 0,872 q 1125,0 1762,-644 638,-643 638,-1778 Q 5119,1197 4481,553 3844,-91 2719,-91 1597,-91 958,553 319,1197 319,2328 q 0,1135 639,1778 639,644 1761,644 z"
               transform="scale(0.015625)" />
          </defs>
          <use
             xlink:href="#DejaVuSans-Bold-4f"
             transform="translate(0,0.78125)"
             id="use376" />
          <use
             xlink:href="#DejaVuSans-Bold-75"
             transform="translate(85.009766,0.78125)"
             id="use378" />
          <use
             xlink:href="#DejaVuSans-Bold-74"
             transform="translate(156.20117,0.78125)"
             id="use380" />
          <use
             xlink:href="#DejaVuSans-Bold-70"
             transform="translate(204.00391,0.78125)"
             id="use382" />
          <use
             xlink:href="#DejaVuSans-Bold-75"
             transform="translate(275.58594,0.78125)"
             id="use384" />
          <use
             xlink:href="#DejaVuSans-Bold-74"
             transform="translate(346.77734,0.78125)"
             id="use386" />
          <use
             xlink:href="#DejaVuSans-Bold-20"
             transform="translate(394.58008,0.78125)"
             id="use388" />
          <use
             xlink:href="#DejaVuSans-Bold-79"
             transform="translate(429.39453,0.78125)"
             id="use390" />
          <use
             xlink:href="#DejaVuSans-32"
             transform="matrix(0.7,0,0,0.7,495.53711,-15.625)"
             id="use392" />
        </g>
      </g>
      <g
         id="text_14">
        <!-- Non-Linear Activation Prevents Collapse -->
        <g
           transform="matrix(0.14,0,0,-0.14,193.38792,87.870292)"
           id="g480">
          <defs
             id="defs400">
            <path
               id="DejaVuSans-Bold-41"
               d="M 3419,850 H 1538 L 1241,0 H 31 L 1759,4666 H 3194 L 4922,0 H 3713 Z m -1581,866 h 1278 l -638,1856 z"
               transform="scale(0.015625)" />
            <path
               id="DejaVuSans-Bold-76"
               d="m 97,3500 h 1119 l 872,-2419 868,2419 H 4078 L 2700,0 H 1472 Z"
               transform="scale(0.015625)" />
            <path
               id="DejaVuSans-Bold-50"
               d="m 588,4666 h 1996 q 891,0 1367,-396 477,-395 477,-1126 0,-735 -477,-1130 -476,-395 -1367,-395 H 1791 V 0 H 588 Z M 1791,3794 V 2491 h 665 q 350,0 541,170 191,170 191,483 0,312 -191,481 -191,169 -541,169 z"
               transform="scale(0.015625)" />
          </defs>
          <use
             xlink:href="#DejaVuSans-Bold-4e"
             id="use402" />
          <use
             xlink:href="#DejaVuSans-Bold-6f"
             x="83.691406"
             id="use404" />
          <use
             xlink:href="#DejaVuSans-Bold-6e"
             x="152.39258"
             id="use406" />
          <use
             xlink:href="#DejaVuSans-Bold-2d"
             x="223.58398"
             id="use408" />
          <use
             xlink:href="#DejaVuSans-Bold-4c"
             x="265.08789"
             id="use410" />
          <use
             xlink:href="#DejaVuSans-Bold-69"
             x="328.80859"
             id="use412" />
          <use
             xlink:href="#DejaVuSans-Bold-6e"
             x="363.08594"
             id="use414" />
          <use
             xlink:href="#DejaVuSans-Bold-65"
             x="434.27734"
             id="use416" />
          <use
             xlink:href="#DejaVuSans-Bold-61"
             x="502.09961"
             id="use418" />
          <use
             xlink:href="#DejaVuSans-Bold-72"
             x="569.58008"
             id="use420" />
          <use
             xlink:href="#DejaVuSans-Bold-20"
             x="618.89648"
             id="use422" />
          <use
             xlink:href="#DejaVuSans-Bold-41"
             x="653.71094"
             id="use424" />
          <use
             xlink:href="#DejaVuSans-Bold-63"
             x="731.10352"
             id="use426" />
          <use
             xlink:href="#DejaVuSans-Bold-74"
             x="790.38086"
             id="use428" />
          <use
             xlink:href="#DejaVuSans-Bold-69"
             x="838.18359"
             id="use430" />
          <use
             xlink:href="#DejaVuSans-Bold-76"
             x="872.46094"
             id="use432" />
          <use
             xlink:href="#DejaVuSans-Bold-61"
             x="937.64648"
             id="use434" />
          <use
             xlink:href="#DejaVuSans-Bold-74"
             x="1005.127"
             id="use436" />
          <use
             xlink:href="#DejaVuSans-Bold-69"
             x="1052.9297"
             id="use438" />
          <use
             xlink:href="#DejaVuSans-Bold-6f"
             x="1087.207"
             id="use440" />
          <use
             xlink:href="#DejaVuSans-Bold-6e"
             x="1155.9082"
             id="use442" />
          <use
             xlink:href="#DejaVuSans-Bold-20"
             x="1227.0996"
             id="use444" />
          <use
             xlink:href="#DejaVuSans-Bold-50"
             x="1261.9141"
             id="use446" />
          <use
             xlink:href="#DejaVuSans-Bold-72"
             x="1335.2051"
             id="use448" />
          <use
             xlink:href="#DejaVuSans-Bold-65"
             x="1384.5215"
             id="use450" />
          <use
             xlink:href="#DejaVuSans-Bold-76"
             x="1452.3438"
             id="use452" />
          <use
             xlink:href="#DejaVuSans-Bold-65"
             x="1517.5293"
             id="use454" />
          <use
             xlink:href="#DejaVuSans-Bold-6e"
             x="1585.3516"
             id="use456" />
          <use
             xlink:href="#DejaVuSans-Bold-74"
             x="1656.543"
             id="use458" />
          <use
             xlink:href="#DejaVuSans-Bold-73"
             x="1704.3457"
             id="use460" />
          <use
             xlink:href="#DejaVuSans-Bold-20"
             x="1763.8672"
             id="use462" />
          <use
             xlink:href="#DejaVuSans-Bold-43"
             x="1798.6816"
             id="use464" />
          <use
             xlink:href="#DejaVuSans-Bold-6f"
             x="1872.0703"
             id="use466" />
          <use
             xlink:href="#DejaVuSans-Bold-6c"
             x="1940.7715"
             id="use468" />
          <use
             xlink:href="#DejaVuSans-Bold-6c"
             x="1975.0488"
             id="use470" />
          <use
             xlink:href="#DejaVuSans-Bold-61"
             x="2009.3262"
             id="use472" />
          <use
             xlink:href="#DejaVuSans-Bold-70"
             x="2076.8066"
             id="use474" />
          <use
             xlink:href="#DejaVuSans-Bold-73"
             x="2148.3887"
             id="use476" />
          <use
             xlink:href="#DejaVuSans-Bold-65"
             x="2207.9102"
             id="use478" />
        </g>
      </g>
    </g>
  </g>
  <defs
     id="defs488">
    <clipPath
       id="p5feadad283">
      <rect
         x="7.1999998"
         y="37.837811"
         width="842.40002"
         height="379.60001"
         id="rect485" />
    </clipPath>
  </defs>
</svg>
