<svg width="600" height="400" xmlns="http://www.w3.org/2000/svg">
  <g transform="translate(80, 60)">
    <text x="200" y="-20" font-family="Arial" font-size="16" font-weight="bold" text-anchor="middle">Cross-Entropy Loss: L = -log(P(target))</text>
    <!-- Axes -->
    <line x1="0" y1="300" x2="400" y2="300" stroke="#333" stroke-width="2"/>
    <line x1="0" y1="300" x2="0" y2="0" stroke="#333" stroke-width="2"/>
    <!-- Axis labels -->
    <text x="200" y="335" font-family="Arial" font-size="14" text-anchor="middle">Predicted Probability P(target)</text>
    <text x="-35" y="150" font-family="Arial" font-size="14" text-anchor="middle" dominant-baseline="middle" transform="rotate(-90, -35, 150)">Loss L</text>
    <!-- Loss curve: L = -log(p) -->
    <path d="M 0,300 Q 50,250 100,200 T 200,100 T 300,50 T 400,20" stroke="#dc2626" stroke-width="3" fill="none"/>
    <!-- Grid lines -->
    <line x1="100" y1="0" x2="100" y2="300" stroke="#ccc" stroke-width="1" stroke-dasharray="2,2"/>
    <line x1="200" y1="0" x2="200" y2="300" stroke="#ccc" stroke-width="1" stroke-dasharray="2,2"/>
    <line x1="300" y1="0" x2="300" y2="300" stroke="#ccc" stroke-width="1" stroke-dasharray="2,2"/>
    <line x1="0" y1="100" x2="400" y2="100" stroke="#ccc" stroke-width="1" stroke-dasharray="2,2"/>
    <line x1="0" y1="200" x2="400" y2="200" stroke="#ccc" stroke-width="1" stroke-dasharray="2,2"/>
    <!-- Key points -->
    <circle cx="60" cy="200" r="4" fill="#16a34a"/>
    <text x="65" y="195" font-family="Arial" font-size="11">P=0.6, L=0.51</text>
    <circle cx="20" cy="280" r="4" fill="#dc2626"/>
    <text x="25" y="275" font-family="Arial" font-size="11">P=0.05, L=3.0</text>
    <!-- Labels -->
    <text x="0" y="310" font-family="Arial" font-size="11">0</text>
    <text x="390" y="310" font-family="Arial" font-size="11">1</text>
    <text x="-10" y="305" font-family="Arial" font-size="11">0</text>
    <text x="-20" y="25" font-family="Arial" font-size="11">High</text>
    <!-- Arrow indicating direction -->
    <text x="200" y="355" font-family="Arial" font-size="12" fill="#666" text-anchor="middle">Lower probability → Higher loss</text>
  </g>
</svg>

