<svg width="600" height="400" xmlns="http://www.w3.org/2000/svg">
  <g transform="translate(80, 60)">
    <text x="200" y="-20" font-family="Arial" font-size="16" font-weight="bold" text-anchor="middle">Gradient Descent: Loss Decreases Over Time</text>
    <!-- Axes -->
    <line x1="0" y1="300" x2="400" y2="300" stroke="#333" stroke-width="2"/>
    <line x1="0" y1="300" x2="0" y2="0" stroke="#333" stroke-width="2"/>
    <!-- Axis labels -->
    <text x="200" y="335" font-family="Arial" font-size="14" text-anchor="middle">Training Iteration</text>
    <text x="-35" y="150" font-family="Arial" font-size="14" text-anchor="middle" dominant-baseline="middle" transform="rotate(-90, -35, 150)">Loss</text>
    <!-- Loss curve decreasing over iterations -->
    <path d="M 0,50 Q 100,80 200,120 T 400,180" stroke="#2563eb" stroke-width="3" fill="none"/>
    <!-- Gradient descent steps (zigzag path) -->
    <circle cx="0" cy="50" r="5" fill="#dc2626"/>
    <text x="5" y="45" font-family="Arial" font-size="10">Start</text>
    <circle cx="100" cy="80" r="4" fill="#16a34a"/>
    <circle cx="200" cy="120" r="4" fill="#16a34a"/>
    <circle cx="300" cy="150" r="4" fill="#16a34a"/>
    <circle cx="400" cy="180" r="5" fill="#2563eb"/>
    <text x="405" y="175" font-family="Arial" font-size="10">Min</text>
    <!-- Grid lines -->
    <line x1="100" y1="0" x2="100" y2="300" stroke="#ccc" stroke-width="1" stroke-dasharray="2,2"/>
    <line x1="200" y1="0" x2="200" y2="300" stroke="#ccc" stroke-width="1" stroke-dasharray="2,2"/>
    <line x1="300" y1="0" x2="300" y2="300" stroke="#ccc" stroke-width="1" stroke-dasharray="2,2"/>
    <line x1="0" y1="100" x2="400" y2="100" stroke="#ccc" stroke-width="1" stroke-dasharray="2,2"/>
    <line x1="0" y1="200" x2="400" y2="200" stroke="#ccc" stroke-width="1" stroke-dasharray="2,2"/>
    <!-- Labels -->
    <text x="0" y="310" font-family="Arial" font-size="11">0</text>
    <text x="390" y="310" font-family="Arial" font-size="11">N</text>
    <text x="-10" y="305" font-family="Arial" font-size="11">High</text>
    <text x="-15" y="25" font-family="Arial" font-size="11">Low</text>
    <!-- Arrow showing convergence -->
    <text x="200" y="355" font-family="Arial" font-size="12" fill="#666" text-anchor="middle">Loss decreases as weights are updated</text>
  </g>
</svg>

