<?xml version='1.0' encoding='utf-8'?>
<svg xmlns="http://www.w3.org/2000/svg" xmlns:ns1="http://sodipodi.sourceforge.net/DTD/sodipodi-0.dtd" xmlns:ns2="http://www.inkscape.org/namespaces/inkscape" width="586.573" height="480.46289" version="1.1" id="svg48" ns1:docname="probability-normal-distribution.svg" ns2:version="1.2.2 (b0a8486541, 2022-12-01)" viewBox="0 0 586.57 480.46">
  <defs id="defs52" />
  <ns1:namedview id="namedview50" pagecolor="#ffffff" bordercolor="#000000" borderopacity="0.25" ns2:showpageshadow="2" ns2:pageopacity="0.0" ns2:pagecheckerboard="0" ns2:deskcolor="#d1d1d1" showgrid="false" ns2:zoom="1.8714286" ns2:cx="350" ns2:cy="250.34351" ns2:window-width="3840" ns2:window-height="2091" ns2:window-x="0" ns2:window-y="32" ns2:window-maximized="1" ns2:current-layer="g46" fit-margin-top="20" fit-margin-left="20" fit-margin-right="20" fit-margin-bottom="20" />
  <g transform="translate(66.5625,52.9375)" id="g46">
    <text x="250" y="-20" font-family="Arial" font-size="18px" font-weight="bold" text-anchor="middle" id="text2">Normal Distribution: μ=0, σ=1 with 68-95-99.7 Rule</text>
    
    <line x1="0" y1="350" x2="500" y2="350" stroke="#333333" stroke-width="2" id="line4" />
    <line x1="0" y1="350" x2="0" y2="0" stroke="#333333" stroke-width="2" id="line6" />
    
    <text x="250" y="385" font-family="Arial" font-size="14px" text-anchor="middle" id="text8">x</text>
    <text x="-40" y="175" font-family="Arial" font-size="14px" text-anchor="middle" dominant-baseline="middle" transform="rotate(-90,-40,175)" id="text10">f(x)</text>
    
    <line x1="0" y1="350" x2="500" y2="350" stroke="#cccccc" stroke-width="1" stroke-dasharray="2, 2" id="line12" />
    <text x="-25.238886" y="355" font-family="Arial" font-size="11px" id="text14">0.00</text>
    <line x1="0" y1="280" x2="500" y2="280" stroke="#cccccc" stroke-width="1" stroke-dasharray="2, 2" id="line16" />
    <text x="-25.238886" y="285" font-family="Arial" font-size="11px" id="text18">0.10</text>
    <line x1="0" y1="210" x2="500" y2="210" stroke="#cccccc" stroke-width="1" stroke-dasharray="2, 2" id="line20" />
    <text x="-25.238886" y="215" font-family="Arial" font-size="11px" id="text22">0.20</text>
    <line x1="0" y1="140" x2="500" y2="140" stroke="#cccccc" stroke-width="1" stroke-dasharray="2, 2" id="line24" />
    <text x="-25.238886" y="145" font-family="Arial" font-size="11px" id="text26">0.30</text>
    <line x1="0" y1="70" x2="500" y2="70" stroke="#cccccc" stroke-width="1" stroke-dasharray="2, 2" id="line28" />
    <text x="-25.238886" y="75" font-family="Arial" font-size="11px" id="text30">0.40</text>
    <line x1="0" y1="0" x2="500" y2="0" stroke="#cccccc" stroke-width="1" stroke-dasharray="2, 2" id="line32" />
    <text x="-25.238886" y="5" font-family="Arial" font-size="11px" id="text34">0.50</text>
    
    <polygon points="190.05102,173.71092 192.60204,166.8249 195.15306,159.98673 197.70408,153.22138 200.2551,146.55437 202.80612,140.01161 205.35714,133.61921 207.90816,127.40337 210.45918,121.39015 213.0102,115.6053 215.56122,110.07412 218.11224,104.82121 220.66327,99.870353 223.21429,95.244295 225.76531,90.964584 228.31633,87.051408 230.86735,83.523429 233.41837,80.39764 235.96939,77.689225 238.52041,75.41144 241.07143,73.575502 243.62245,72.190497 246.17347,71.263307 248.72449,70.798553 251.27551,70.798553 253.82653,71.263307 256.37755,72.190497 258.92857,73.575502 261.47959,75.41144 264.03061,77.689225 266.58163,80.39764 269.13265,83.523429 271.68367,87.051408 274.23469,90.964584 276.78571,95.244295 279.33673,99.870353 281.88776,104.82121 284.43878,110.07412 286.9898,115.6053 289.54082,121.39015 292.09184,127.40337 294.64286,133.61921 297.19388,140.01161 299.7449,146.55437 302.29592,153.22138 304.84694,159.98673 307.39796,166.8249 309.94898,173.71092 312.5,180.62049 312.5,350 187.5,350 187.5,180.62049 " fill="#16a34a" opacity="0.3" id="polygon36" />
    
    <path d="m 0,349.90632 5,-0.0349 5,-0.0468 5,-0.0623 5,-0.0824 5,-0.10821 5,-0.14113 5,-0.18281 5,-0.23515 5,-0.30039 5,-0.38105 5,-0.48001 5,-0.60042 5,-0.74574 5,-0.91968 5,-1.12611 5,-1.36899 5,-1.65226 5,-1.97966 5,-2.35459 5,-2.77985 5,-3.2575 5,-3.78852 5,-4.37261 5,-5.00795 5,-5.69093 5,-6.41591 5,-7.17518 5,-7.95868 5,-8.75414 5,-9.54699 5,-10.32067 5,-11.05673 5,-11.73537 5,-12.33585 5,-12.83704 5,-13.21816 5,-13.4595 5,-13.54314 5,-13.45374 5,-13.17931 5,-12.71179 5,-12.0477 5,-11.18847 5,-10.14072 5,-8.916328 5,-7.53227 5,-6.010263 5,-4.376222 5,-2.659541 5,-0.892202 5,0.892202 5,2.659541 5,4.376222 5,6.010263 5,7.53227 5,8.916328 5,10.14072 5,11.18847 5,12.0477 5,12.71179 5,13.17931 5,13.45374 5,13.54314 5,13.4595 5,13.21816 5,12.83704 5,12.33585 5,11.73537 5,11.05673 5,10.32067 5,9.54699 5,8.75414 5,7.95868 5,7.17518 5,6.41591 5,5.69093 5,5.00795 5,4.37261 5,3.78852 5,3.2575 5,2.77985 5,2.35459 5,1.97966 5,1.65226 5,1.36899 5,1.12611 5,0.91968 5,0.74574 5,0.60042 5,0.48001 5,0.38105 5,0.30039 5,0.23515 5,0.18281 5,0.14113 5,0.10821 5,0.0824 5,0.0623 5,0.0468 5,0.0349" stroke="#2563eb" stroke-width="3" fill="none" id="path38" />
    
    <line x1="250" y1="0" x2="250" y2="350" stroke="#dc2626" stroke-width="2" stroke-dasharray="4, 4" id="line40" />
    <text x="255" y="15" font-family="Arial" font-size="12px" fill="#dc2626" id="text42">μ = 0</text>
    
    <text x="250" y="405" font-family="Arial" font-size="12px" fill="#666666" text-anchor="middle" id="text44">68% within 1σ (green) | 95% within 2σ (orange) | 99.7% within 3σ | Mean μ = 0</text>
  </g>
</svg>