<svg width="500" height="400" xmlns="http://www.w3.org/2000/svg">
  <g transform="translate(100, 50)">
    <text x="150.0" y="-20" font-family="Arial" font-size="18" font-weight="bold" text-anchor="middle">Biased Coin PMF: P(Heads) = 0.7</text>
    <!-- Axes -->
    <line x1="0" y1="250" x2="300" y2="250" stroke="#333" stroke-width="2"/>
    <line x1="0" y1="250" x2="0" y2="0" stroke="#333" stroke-width="2"/>
    <!-- Axis labels -->
    <text x="150.0" y="285" font-family="Arial" font-size="14" text-anchor="middle">Outcome</text>
    <text x="-40" y="125.0" font-family="Arial" font-size="14" text-anchor="middle" dominant-baseline="middle" transform="rotate(-90, -40, 125.0)">Probability</text>
    <!-- Y-axis labels and grid -->
    <line x1="0" y1="250.0" x2="300" y2="250.0" stroke="#ccc" stroke-width="1" stroke-dasharray="2,2"/>
    <text x="-15" y="255.0" font-family="Arial" font-size="11">0.00</text>
    <line x1="0" y1="200.0" x2="300" y2="200.0" stroke="#ccc" stroke-width="1" stroke-dasharray="2,2"/>
    <text x="-15" y="205.0" font-family="Arial" font-size="11">0.14</text>
    <line x1="0" y1="150.0" x2="300" y2="150.0" stroke="#ccc" stroke-width="1" stroke-dasharray="2,2"/>
    <text x="-15" y="155.0" font-family="Arial" font-size="11">0.28</text>
    <line x1="0" y1="100.0" x2="300" y2="100.0" stroke="#ccc" stroke-width="1" stroke-dasharray="2,2"/>
    <text x="-15" y="105.0" font-family="Arial" font-size="11">0.42</text>
    <line x1="0" y1="50.00000000000003" x2="300" y2="50.00000000000003" stroke="#ccc" stroke-width="1" stroke-dasharray="2,2"/>
    <text x="-15" y="55.00000000000003" font-family="Arial" font-size="11">0.56</text>
    <line x1="0" y1="0.0" x2="300" y2="0.0" stroke="#ccc" stroke-width="1" stroke-dasharray="2,2"/>
    <text x="-15" y="5.0" font-family="Arial" font-size="11">0.70</text>
    <!-- Heads -->
    <rect x="20.0" y="0.0" width="120.0" height="250.0" fill="#16a34a" opacity="0.8"/>
    <text x="80.0" y="-5.0" font-family="Arial" font-size="12" text-anchor="middle">0.700</text>
    <text x="80.0" y="270" font-family="Arial" font-size="12" text-anchor="middle">Heads</text>
    <!-- Tails -->
    <rect x="160.0" y="142.85714285714283" width="120.0" height="107.14285714285715" fill="#dc2626" opacity="0.8"/>
    <text x="220.0" y="137.85714285714283" font-family="Arial" font-size="12" text-anchor="middle">0.300</text>
    <text x="220.0" y="270" font-family="Arial" font-size="12" text-anchor="middle">Tails</text>
    <!-- Note -->
    <text x="150.0" y="305" font-family="Arial" font-size="12" fill="#666" text-anchor="middle">P(Heads) = 0.7, P(Tails) = 0.3 | Sum = 1.0 ✓</text>
  </g>
</svg>