<svg width="800" height="400" xmlns="http://www.w3.org/2000/svg">
  <text x="400.0" y="30" font-family="Arial" font-size="18" font-weight="bold" text-anchor="middle">Cross-Entropy: Comparing True vs Predicted Distribution</text>
  
  <!-- Left panel -->
  <g transform="translate(50, 50)">
    <text x="175.0" y="-20" font-family="Arial" font-size="16" font-weight="bold" text-anchor="middle">True Distribution</text>
    <rect x="0" y="0" width="350.0" height="250" fill="#f8fafc" stroke="#cbd5e1" stroke-width="2" rx="6"/>
    <text x="175.0" y="25" font-family="Arial" font-size="12" fill="#64748b" text-anchor="middle">One-Hot: [0, 0, 1, 0]</text>
    <!-- Left axes -->
    <line x1="40" y1="220" x2="310.0" y2="220" stroke="#333" stroke-width="2"/>
    <line x1="40" y1="220" x2="40" y2="50" stroke="#333" stroke-width="2"/>
    <text x="175.0" y="245" font-family="Arial" font-size="12" text-anchor="middle">Class</text>
    <text x="15" y="135.0" font-family="Arial" font-size="12" text-anchor="middle" dominant-baseline="middle" transform="rotate(-90, 15, 135.0)">Probability</text>
    <line x1="40" y1="220.0" x2="310.0" y2="220.0" stroke="#ccc" stroke-width="1" stroke-dasharray="2,2"/>
    <line x1="40" y1="186.0" x2="310.0" y2="186.0" stroke="#ccc" stroke-width="1" stroke-dasharray="2,2"/>
    <line x1="40" y1="152.0" x2="310.0" y2="152.0" stroke="#ccc" stroke-width="1" stroke-dasharray="2,2"/>
    <line x1="40" y1="118.0" x2="310.0" y2="118.0" stroke="#ccc" stroke-width="1" stroke-dasharray="2,2"/>
    <line x1="40" y1="84.0" x2="310.0" y2="84.0" stroke="#ccc" stroke-width="1" stroke-dasharray="2,2"/>
    <line x1="40" y1="50.0" x2="310.0" y2="50.0" stroke="#ccc" stroke-width="1" stroke-dasharray="2,2"/>
    <rect x="50.0" y="220.0" width="57.5" height="0.0" fill="#dc2626" opacity="0.8"/>
    <text x="78.75" y="215.0" font-family="Arial" font-size="11" text-anchor="middle" fill="#1e293b">0.0</text>
    <text x="78.75" y="235" font-family="Arial" font-size="11" text-anchor="middle">A</text>
    <rect x="112.5" y="220.0" width="57.5" height="0.0" fill="#dc2626" opacity="0.8"/>
    <text x="141.25" y="215.0" font-family="Arial" font-size="11" text-anchor="middle" fill="#1e293b">0.0</text>
    <text x="141.25" y="235" font-family="Arial" font-size="11" text-anchor="middle">B</text>
    <rect x="175.0" y="50.0" width="57.5" height="170.0" fill="#16a34a" opacity="0.8"/>
    <text x="203.75" y="135.0" font-family="Arial" font-size="11" text-anchor="middle" fill="white">1.0</text>
    <text x="203.75" y="235" font-family="Arial" font-size="11" text-anchor="middle">C</text>
    <rect x="237.5" y="220.0" width="57.5" height="0.0" fill="#dc2626" opacity="0.8"/>
    <text x="266.25" y="215.0" font-family="Arial" font-size="11" text-anchor="middle" fill="#1e293b">0.0</text>
    <text x="266.25" y="235" font-family="Arial" font-size="11" text-anchor="middle">D</text>
  </g>
  
  <!-- Right panel -->
  <g transform="translate(450.0, 50)">
    <text x="175.0" y="-20" font-family="Arial" font-size="16" font-weight="bold" text-anchor="middle">Predicted Distribution</text>
    <rect x="0" y="0" width="350.0" height="250" fill="#f8fafc" stroke="#cbd5e1" stroke-width="2" rx="6"/>
    <text x="175.0" y="25" font-family="Arial" font-size="12" fill="#64748b" text-anchor="middle">[0.1, 0.2, 0.6, 0.1]</text>
    <!-- Right axes -->
    <line x1="40" y1="220" x2="310.0" y2="220" stroke="#333" stroke-width="2"/>
    <line x1="40" y1="220" x2="40" y2="50" stroke="#333" stroke-width="2"/>
    <text x="175.0" y="245" font-family="Arial" font-size="12" text-anchor="middle">Class</text>
    <text x="15" y="135.0" font-family="Arial" font-size="12" text-anchor="middle" dominant-baseline="middle" transform="rotate(-90, 15, 135.0)">Probability</text>
    <line x1="40" y1="220.0" x2="310.0" y2="220.0" stroke="#ccc" stroke-width="1" stroke-dasharray="2,2"/>
    <line x1="40" y1="186.0" x2="310.0" y2="186.0" stroke="#ccc" stroke-width="1" stroke-dasharray="2,2"/>
    <line x1="40" y1="152.0" x2="310.0" y2="152.0" stroke="#ccc" stroke-width="1" stroke-dasharray="2,2"/>
    <line x1="40" y1="118.0" x2="310.0" y2="118.0" stroke="#ccc" stroke-width="1" stroke-dasharray="2,2"/>
    <line x1="40" y1="84.0" x2="310.0" y2="84.0" stroke="#ccc" stroke-width="1" stroke-dasharray="2,2"/>
    <line x1="40" y1="50.0" x2="310.0" y2="50.0" stroke="#ccc" stroke-width="1" stroke-dasharray="2,2"/>
    <rect x="50.0" y="203.0" width="57.5" height="17.0" fill="#f59e0b" opacity="0.8"/>
    <text x="78.75" y="198.0" font-family="Arial" font-size="11" text-anchor="middle" fill="#1e293b">0.10</text>
    <text x="78.75" y="235" font-family="Arial" font-size="11" text-anchor="middle">A</text>
    <rect x="112.5" y="186.0" width="57.5" height="34.0" fill="#f59e0b" opacity="0.8"/>
    <text x="141.25" y="203.0" font-family="Arial" font-size="11" text-anchor="middle" fill="white">0.20</text>
    <text x="141.25" y="235" font-family="Arial" font-size="11" text-anchor="middle">B</text>
    <rect x="175.0" y="118.0" width="57.5" height="102.0" fill="#16a34a" opacity="0.8"/>
    <text x="203.75" y="169.0" font-family="Arial" font-size="11" text-anchor="middle" fill="white">0.60</text>
    <text x="203.75" y="235" font-family="Arial" font-size="11" text-anchor="middle">C</text>
    <rect x="237.5" y="203.0" width="57.5" height="17.0" fill="#f59e0b" opacity="0.8"/>
    <text x="266.25" y="198.0" font-family="Arial" font-size="11" text-anchor="middle" fill="#1e293b">0.10</text>
    <text x="266.25" y="235" font-family="Arial" font-size="11" text-anchor="middle">D</text>
  </g>
  
  <!-- Cross-entropy label -->
  <text x="400.0" y="320" font-family="Arial" font-size="14" fill="#dc2626" text-anchor="middle" font-weight="bold">H(P, Q) = 0.511 (Cross-Entropy Loss)</text>
  
  <!-- Note -->
  <text x="400.0" y="380" font-family="Arial" font-size="12" fill="#666" text-anchor="middle">Left: True one-hot [0,0,1,0] | Right: Predicted [0.1,0.2,0.6,0.1] | H(P,Q) = -log(0.6) ≈ 0.511</text>
</svg>