<svg width="800" height="400" xmlns="http://www.w3.org/2000/svg">
  <text x="400.0" y="30" font-family="Arial" font-size="18" font-weight="bold" text-anchor="middle">Conditional Probability: P(A|B) = P(A ∩ B) / P(B)</text>
  
  <!-- Left panel -->
  <g transform="translate(50, 50)">
    <rect x="0" y="0" width="350.0" height="250" fill="#f8fafc" stroke="#cbd5e1" stroke-width="2" rx="6"/>
    <text x="175.0" y="25" font-family="Arial" font-size="16" font-weight="bold" text-anchor="middle">Full Sample Space</text>
    <text x="175.0" y="45" font-family="Arial" font-size="12" fill="#64748b" text-anchor="middle">Ω = (1, 2, 3, 4, 5, 6)</text>
    
    <!-- Events -->
    <g transform="translate(50, 100)">
      <rect x="0" y="0" width="80" height="50" fill="#c8e6c9" stroke="#16a34a" stroke-width="2" rx="6"/>
      <text x="40" y="30" font-family="Arial" font-size="12" font-weight="bold" text-anchor="middle">A = (2, 4, 6)</text>
      <text x="40" y="45" font-family="Arial" font-size="10" text-anchor="middle">Even</text>
      
      <rect x="100" y="0" width="80" height="50" fill="#fff4e1" stroke="#f59e0b" stroke-width="2" rx="6"/>
      <text x="140" y="30" font-family="Arial" font-size="12" font-weight="bold" text-anchor="middle">B = (4, 5, 6)</text>
      <text x="140" y="45" font-family="Arial" font-size="10" text-anchor="middle">> 3</text>
      
      <rect x="50" y="70" width="80" height="50" fill="#f3e5f5" stroke="#9333ea" stroke-width="2" rx="6"/>
      <text x="90" y="95" font-family="Arial" font-size="12" font-weight="bold" text-anchor="middle">A ∩ B = (4, 6)</text>
      <text x="90" y="110" font-family="Arial" font-size="10" text-anchor="middle">Intersection</text>
    </g>
  </g>
  
  <!-- Arrow -->
  <path d="M 410.0,175.0 L 440.0,175.0" 
        stroke="#2563eb" stroke-width="2" marker-end="url(#arrow-right)"/>
  <defs>
    <marker id="arrow-right" markerWidth="8" markerHeight="8" refX="7" refY="3" orient="auto">
      <polygon points="0,0 8,3 0,6" fill="#2563eb"/>
    </marker>
  </defs>
  
  <!-- Right panel -->
  <g transform="translate(450.0, 50)">
    <rect x="0" y="0" width="350.0" height="250" fill="#fff4e1" stroke="#f59e0b" stroke-width="2" rx="6" opacity="0.3"/>
    <rect x="0" y="0" width="350.0" height="250" fill="none" stroke="#f59e0b" stroke-width="2" rx="6"/>
    <text x="175.0" y="25" font-family="Arial" font-size="16" font-weight="bold" text-anchor="middle">Conditioned on B</text>
    <text x="175.0" y="45" font-family="Arial" font-size="12" fill="#64748b" text-anchor="middle">Restricted to B = (4, 5, 6)</text>
    
    <!-- Restricted events -->
    <g transform="translate(50, 100)">
      <rect x="50" y="0" width="80" height="50" fill="#fff4e1" stroke="#f59e0b" stroke-width="2" rx="6"/>
      <text x="90" y="30" font-family="Arial" font-size="12" font-weight="bold" text-anchor="middle">B = (4, 5, 6)</text>
      <text x="90" y="45" font-family="Arial" font-size="10" text-anchor="middle">Shaded</text>
      
      <rect x="50" y="70" width="80" height="50" fill="#f3e5f5" stroke="#9333ea" stroke-width="2" rx="6"/>
      <text x="90" y="95" font-family="Arial" font-size="12" font-weight="bold" text-anchor="middle">A|B = (4, 6)</text>
      <text x="90" y="110" font-family="Arial" font-size="10" text-anchor="middle">P(A|B) = 2/3</text>
    </g>
  </g>
  
  <!-- Note -->
  <text x="400.0" y="380" font-family="Arial" font-size="12" fill="#666" text-anchor="middle">Left: Full space with A and B | Right: Restricted to B, showing P(A|B) = 2/3</text>
</svg>