<?xml version="1.0" encoding="UTF-8"?>
<svg width="500" height="350" xmlns="http://www.w3.org/2000/svg">
  <style>
    .axis { stroke: #666; stroke-width: 1; }
    .grid { stroke: #ddd; stroke-width: 0.5; }
    .title { font-family: Arial, sans-serif; font-size: 16px; font-weight: bold; fill: #1e293b; }
    .label { font-family: Arial, sans-serif; font-size: 11px; fill: #64748b; }
    .legend { font-family: Arial, sans-serif; font-size: 11px; }
  </style>
  
  <!-- Title -->
  <text x="250.0" y="25" text-anchor="middle" class="title">Linear Functions</text>
  
  <!-- Grid lines -->
  <g class="grid">
    <line x1="60.0" y1="60" x2="60.0" y2="290"/>
    <line x1="123.33333333333333" y1="60" x2="123.33333333333333" y2="290"/>
    <line x1="186.66666666666666" y1="60" x2="186.66666666666666" y2="290"/>
    <line x1="313.3333333333333" y1="60" x2="313.3333333333333" y2="290"/>
    <line x1="376.6666666666667" y1="60" x2="376.6666666666667" y2="290"/>
    <line x1="440.0" y1="60" x2="440.0" y2="290"/>
    <line x1="60" y1="290.0" x2="440" y2="290.0"/>
    <line x1="60" y1="261.25" x2="440" y2="261.25"/>
    <line x1="60" y1="232.5" x2="440" y2="232.5"/>
    <line x1="60" y1="175.0" x2="440" y2="175.0"/>
    <line x1="60" y1="146.25" x2="440" y2="146.25"/>
    <line x1="60" y1="117.5" x2="440" y2="117.5"/>
    <line x1="60" y1="88.75" x2="440" y2="88.75"/>
    <line x1="60" y1="60.0" x2="440" y2="60.0"/>
  </g>
  <g class="axis">
    <line x1="60" y1="203.75" x2="440" y2="203.75"/>
    <line x1="250.0" y1="60" x2="250.0" y2="290"/>
  </g>
  <g class="label">
    <text x="60.0" y="223.75" text-anchor="middle">-3</text>
    <text x="123.33333333333333" y="223.75" text-anchor="middle">-2</text>
    <text x="186.66666666666666" y="223.75" text-anchor="middle">-1</text>
    <text x="313.3333333333333" y="223.75" text-anchor="middle">1</text>
    <text x="376.6666666666667" y="223.75" text-anchor="middle">2</text>
    <text x="440.0" y="223.75" text-anchor="middle">3</text>
    <text x="240.0" y="294.0" text-anchor="end">-3</text>
    <text x="240.0" y="265.25" text-anchor="end">-2</text>
    <text x="240.0" y="236.5" text-anchor="end">-1</text>
    <text x="240.0" y="179.0" text-anchor="end">1</text>
    <text x="240.0" y="150.25" text-anchor="end">2</text>
    <text x="240.0" y="121.5" text-anchor="end">3</text>
    <text x="240.0" y="92.75" text-anchor="end">4</text>
    <text x="240.0" y="64.0" text-anchor="end">5</text>
  </g>
  <path d="M 60.0,347.5 L 66.33333333333334,341.75 L 72.66666666666667,336.0 L 78.99999999999999,330.25 L 85.33333333333333,324.5 L 91.66666666666666,318.75 L 98.0,313.0 L 104.33333333333334,307.25 L 110.66666666666666,301.5 L 117.0,295.75 L 123.33333333333333,290.0 L 129.66666666666669,284.25 L 136.0,278.5 L 142.33333333333334,272.75 L 148.66666666666666,267.0 L 155.0,261.25 L 161.33333333333331,255.5 L 167.66666666666666,249.75 L 174.0,244.0 L 180.33333333333331,238.25 L 186.66666666666666,232.5 L 193.0,226.75 L 199.33333333333334,221.0 L 205.66666666666666,215.25 L 212.0,209.5 L 218.33333333333334,203.75 L 224.66666666666669,198.0 L 231.0,192.25 L 237.33333333333331,186.5 L 243.66666666666666,180.75 L 250.0,175.0 L 256.33333333333337,169.25 L 262.66666666666663,163.5 L 269.0,157.75 L 275.3333333333333,152.0 L 281.6666666666667,146.25 L 288.0,140.5 L 294.33333333333337,134.75 L 300.66666666666663,129.0 L 307.0,123.25 L 313.3333333333333,117.5 L 319.66666666666663,111.75 L 326.0,106.0 L 332.3333333333333,100.25 L 338.6666666666667,94.5 L 345.0,88.75 L 351.3333333333333,83.0 L 357.6666666666667,77.25 L 364.0,71.5 L 370.33333333333337,65.75 L 376.6666666666667,60.0 L 383.0,54.25000000000003 L 389.33333333333337,48.5 L 395.66666666666663,42.75 L 402.0,36.99999999999997 L 408.3333333333333,31.25 L 414.66666666666663,25.5 L 421.0,19.75 L 427.3333333333333,14.0 L 433.6666666666667,8.25 L 440.0,2.5" stroke="#2563eb" stroke-width="2" fill="none"/>
  <path d="M 60.0,60.0 L 66.33333333333334,62.875 L 72.66666666666667,65.75 L 78.99999999999999,68.625 L 85.33333333333333,71.5 L 91.66666666666666,74.375 L 98.0,77.25 L 104.33333333333334,80.125 L 110.66666666666666,83.0 L 117.0,85.875 L 123.33333333333333,88.75 L 129.66666666666669,91.625 L 136.0,94.5 L 142.33333333333334,97.375 L 148.66666666666666,100.25 L 155.0,103.125 L 161.33333333333331,106.0 L 167.66666666666666,108.875 L 174.0,111.75 L 180.33333333333331,114.625 L 186.66666666666666,117.5 L 193.0,120.375 L 199.33333333333334,123.25 L 205.66666666666666,126.125 L 212.0,129.0 L 218.33333333333334,131.875 L 224.66666666666669,134.75 L 231.0,137.625 L 237.33333333333331,140.5 L 243.66666666666666,143.375 L 250.0,146.25 L 256.33333333333337,149.125 L 262.66666666666663,152.0 L 269.0,154.875 L 275.3333333333333,157.75 L 281.6666666666667,160.625 L 288.0,163.5 L 294.33333333333337,166.375 L 300.66666666666663,169.25 L 307.0,172.125 L 313.3333333333333,175.0 L 319.66666666666663,177.875 L 326.0,180.75 L 332.3333333333333,183.625 L 338.6666666666667,186.5 L 345.0,189.375 L 351.3333333333333,192.25 L 357.6666666666667,195.125 L 364.0,198.0 L 370.33333333333337,200.875 L 376.6666666666667,203.75 L 383.0,206.625 L 389.33333333333337,209.5 L 395.66666666666663,212.375 L 402.0,215.25 L 408.3333333333333,218.125 L 414.66666666666663,221.0 L 421.0,223.875 L 427.3333333333333,226.75 L 433.6666666666667,229.625 L 440.0,232.5" stroke="#dc2626" stroke-width="2" fill="none"/>
  <path d="M 60.0,275.625 L 66.33333333333334,274.1875 L 72.66666666666667,272.75 L 78.99999999999999,271.3125 L 85.33333333333333,269.875 L 91.66666666666666,268.4375 L 98.0,267.0 L 104.33333333333334,265.5625 L 110.66666666666666,264.125 L 117.0,262.6875 L 123.33333333333333,261.25 L 129.66666666666669,259.8125 L 136.0,258.375 L 142.33333333333334,256.9375 L 148.66666666666666,255.5 L 155.0,254.0625 L 161.33333333333331,252.625 L 167.66666666666666,251.1875 L 174.0,249.75 L 180.33333333333331,248.3125 L 186.66666666666666,246.875 L 193.0,245.4375 L 199.33333333333334,244.0 L 205.66666666666666,242.5625 L 212.0,241.125 L 218.33333333333334,239.6875 L 224.66666666666669,238.25 L 231.0,236.8125 L 237.33333333333331,235.375 L 243.66666666666666,233.9375 L 250.0,232.5 L 256.33333333333337,231.0625 L 262.66666666666663,229.625 L 269.0,228.1875 L 275.3333333333333,226.75 L 281.6666666666667,225.3125 L 288.0,223.875 L 294.33333333333337,222.4375 L 300.66666666666663,221.0 L 307.0,219.5625 L 313.3333333333333,218.125 L 319.66666666666663,216.6875 L 326.0,215.25 L 332.3333333333333,213.8125 L 338.6666666666667,212.375 L 345.0,210.9375 L 351.3333333333333,209.5 L 357.6666666666667,208.0625 L 364.0,206.625 L 370.33333333333337,205.1875 L 376.6666666666667,203.75 L 383.0,202.3125 L 389.33333333333337,200.875 L 395.66666666666663,199.4375 L 402.0,198.0 L 408.3333333333333,196.5625 L 414.66666666666663,195.125 L 421.0,193.6875 L 427.3333333333333,192.25 L 433.6666666666667,190.8125 L 440.0,189.375" stroke="#16a34a" stroke-width="2" fill="none"/>
  <path d="M 60.0,60.0 L 66.33333333333334,64.3125 L 72.66666666666667,68.62500000000003 L 78.99999999999999,72.93749999999997 L 85.33333333333333,77.25 L 91.66666666666666,81.5625 L 98.0,85.875 L 104.33333333333334,90.18750000000003 L 110.66666666666666,94.49999999999997 L 117.0,98.8125 L 123.33333333333333,103.125 L 129.66666666666669,107.4375 L 136.0,111.75 L 142.33333333333334,116.0625 L 148.66666666666666,120.375 L 155.0,124.6875 L 161.33333333333331,129.0 L 167.66666666666666,133.3125 L 174.0,137.625 L 180.33333333333331,141.9375 L 186.66666666666666,146.25 L 193.0,150.5625 L 199.33333333333334,154.875 L 205.66666666666666,159.1875 L 212.0,163.5 L 218.33333333333334,167.8125 L 224.66666666666669,172.125 L 231.0,176.4375 L 237.33333333333331,180.75 L 243.66666666666666,185.0625 L 250.0,189.375 L 256.33333333333337,193.6875 L 262.66666666666663,198.0 L 269.0,202.3125 L 275.3333333333333,206.625 L 281.6666666666667,210.9375 L 288.0,215.25 L 294.33333333333337,219.5625 L 300.66666666666663,223.875 L 307.0,228.1875 L 313.3333333333333,232.5 L 319.66666666666663,236.8125 L 326.0,241.125 L 332.3333333333333,245.4375 L 338.6666666666667,249.75 L 345.0,254.0625 L 351.3333333333333,258.375 L 357.6666666666667,262.6875 L 364.0,267.0 L 370.33333333333337,271.3125 L 376.6666666666667,275.625 L 383.0,279.9375 L 389.33333333333337,284.25 L 395.66666666666663,288.5625 L 402.0,292.875 L 408.3333333333333,297.1875 L 414.66666666666663,301.5 L 421.0,305.8125 L 427.3333333333333,310.125 L 433.6666666666667,314.4375 L 440.0,318.75" stroke="#9333ea" stroke-width="2" fill="none"/>
  <g class="legend">
    <line x1="380" y1="70" x2="400" y2="70" stroke="#2563eb" stroke-width="2"/>
    <text x="405" y="74" fill="#1e293b">y = 2x + 1</text>
    <line x1="380" y1="90" x2="400" y2="90" stroke="#dc2626" stroke-width="2"/>
    <text x="405" y="94" fill="#1e293b">y = -x + 2</text>
    <line x1="380" y1="110" x2="400" y2="110" stroke="#16a34a" stroke-width="2"/>
    <text x="405" y="114" fill="#1e293b">y = 0.5x - 1</text>
    <line x1="380" y1="130" x2="400" y2="130" stroke="#9333ea" stroke-width="2"/>
    <text x="405" y="134" fill="#1e293b">y = -1.5x + 0.5</text>
  </g>
</svg>
