<?xml version="1.0" encoding="UTF-8"?>
<svg width="500" height="350" xmlns="http://www.w3.org/2000/svg">
  <style>
    .axis { stroke: #666; stroke-width: 1; }
    .grid { stroke: #ddd; stroke-width: 0.5; }
    .title { font-family: Arial, sans-serif; font-size: 16px; font-weight: bold; fill: #1e293b; }
    .label { font-family: Arial, sans-serif; font-size: 11px; fill: #64748b; }
    .legend { font-family: Arial, sans-serif; font-size: 11px; }
  </style>
  
  <!-- Title -->
  <text x="250.0" y="25" text-anchor="middle" class="title">After ReLU: max(0, y)</text>
  
  <!-- Grid lines -->
  <g class="grid">
    <line x1="60.0" y1="60" x2="60.0" y2="290"/>
    <line x1="123.33333333333333" y1="60" x2="123.33333333333333" y2="290"/>
    <line x1="186.66666666666666" y1="60" x2="186.66666666666666" y2="290"/>
    <line x1="313.3333333333333" y1="60" x2="313.3333333333333" y2="290"/>
    <line x1="376.6666666666667" y1="60" x2="376.6666666666667" y2="290"/>
    <line x1="440.0" y1="60" x2="440.0" y2="290"/>
    <line x1="60" y1="290.0" x2="440" y2="290.0"/>
    <line x1="60" y1="213.33333333333334" x2="440" y2="213.33333333333334"/>
    <line x1="60" y1="175.0" x2="440" y2="175.0"/>
    <line x1="60" y1="136.66666666666669" x2="440" y2="136.66666666666669"/>
    <line x1="60" y1="98.33333333333331" x2="440" y2="98.33333333333331"/>
    <line x1="60" y1="60.0" x2="440" y2="60.0"/>
  </g>
  <g class="axis">
    <line x1="60" y1="251.66666666666669" x2="440" y2="251.66666666666669"/>
    <line x1="250.0" y1="60" x2="250.0" y2="290"/>
  </g>
  <g class="label">
    <text x="60.0" y="271.6666666666667" text-anchor="middle">-3</text>
    <text x="123.33333333333333" y="271.6666666666667" text-anchor="middle">-2</text>
    <text x="186.66666666666666" y="271.6666666666667" text-anchor="middle">-1</text>
    <text x="313.3333333333333" y="271.6666666666667" text-anchor="middle">1</text>
    <text x="376.6666666666667" y="271.6666666666667" text-anchor="middle">2</text>
    <text x="440.0" y="271.6666666666667" text-anchor="middle">3</text>
    <text x="240.0" y="294.0" text-anchor="end">-1</text>
    <text x="240.0" y="217.33333333333334" text-anchor="end">1</text>
    <text x="240.0" y="179.0" text-anchor="end">2</text>
    <text x="240.0" y="140.66666666666669" text-anchor="end">3</text>
    <text x="240.0" y="102.33333333333331" text-anchor="end">4</text>
    <text x="240.0" y="64.0" text-anchor="end">5</text>
  </g>
  <path d="M 60.0,251.66666666666669 L 66.33333333333334,251.66666666666669 L 72.66666666666667,251.66666666666669 L 78.99999999999999,251.66666666666669 L 85.33333333333333,251.66666666666669 L 91.66666666666666,251.66666666666669 L 98.0,251.66666666666669 L 104.33333333333334,251.66666666666669 L 110.66666666666666,251.66666666666669 L 117.0,251.66666666666669 L 123.33333333333333,251.66666666666669 L 129.66666666666669,251.66666666666669 L 136.0,251.66666666666669 L 142.33333333333334,251.66666666666669 L 148.66666666666666,251.66666666666669 L 155.0,251.66666666666669 L 161.33333333333331,251.66666666666669 L 167.66666666666666,251.66666666666669 L 174.0,251.66666666666669 L 180.33333333333331,251.66666666666669 L 186.66666666666666,251.66666666666669 L 193.0,251.66666666666669 L 199.33333333333334,251.66666666666669 L 205.66666666666666,251.66666666666669 L 212.0,251.66666666666669 L 218.33333333333334,251.66666666666669 L 224.66666666666669,244.0 L 231.0,236.33333333333334 L 237.33333333333331,228.66666666666666 L 243.66666666666666,221.0 L 250.0,213.33333333333334 L 256.33333333333337,205.66666666666666 L 262.66666666666663,198.0 L 269.0,190.33333333333331 L 275.3333333333333,182.66666666666669 L 281.6666666666667,175.0 L 288.0,167.33333333333331 L 294.33333333333337,159.66666666666666 L 300.66666666666663,152.0 L 307.0,144.33333333333334 L 313.3333333333333,136.66666666666669 L 319.66666666666663,128.99999999999997 L 326.0,121.33333333333331 L 332.3333333333333,113.66666666666669 L 338.6666666666667,106.00000000000003 L 345.0,98.33333333333331 L 351.3333333333333,90.66666666666666 L 357.6666666666667,83.0 L 364.0,75.33333333333334 L 370.33333333333337,67.66666666666666 L 376.6666666666667,60.0 L 383.0,52.333333333333314 L 389.33333333333337,44.66666666666666 L 395.66666666666663,37.00000000000003 L 402.0,29.333333333333314 L 408.3333333333333,21.66666666666663 L 414.66666666666663,14.0 L 421.0,6.333333333333314 L 427.3333333333333,-1.3333333333333144 L 433.6666666666667,-9.0 L 440.0,-16.66666666666663" stroke="#2563eb" stroke-width="2" fill="none"/>
  <path d="M 60.0,60.0 L 66.33333333333334,63.833333333333314 L 72.66666666666667,67.66666666666666 L 78.99999999999999,71.49999999999997 L 85.33333333333333,75.33333333333334 L 91.66666666666666,79.16666666666669 L 98.0,83.0 L 104.33333333333334,86.83333333333334 L 110.66666666666666,90.66666666666666 L 117.0,94.5 L 123.33333333333333,98.33333333333331 L 129.66666666666669,102.16666666666666 L 136.0,106.00000000000003 L 142.33333333333334,109.83333333333334 L 148.66666666666666,113.66666666666669 L 155.0,117.5 L 161.33333333333331,121.33333333333331 L 167.66666666666666,125.16666666666666 L 174.0,128.99999999999997 L 180.33333333333331,132.83333333333334 L 186.66666666666666,136.66666666666669 L 193.0,140.5 L 199.33333333333334,144.33333333333334 L 205.66666666666666,148.16666666666666 L 212.0,152.0 L 218.33333333333334,155.83333333333331 L 224.66666666666669,159.66666666666666 L 231.0,163.5 L 237.33333333333331,167.33333333333331 L 243.66666666666666,171.16666666666666 L 250.0,175.0 L 256.33333333333337,178.83333333333331 L 262.66666666666663,182.66666666666669 L 269.0,186.5 L 275.3333333333333,190.33333333333331 L 281.6666666666667,194.16666666666666 L 288.0,198.0 L 294.33333333333337,201.83333333333334 L 300.66666666666663,205.66666666666666 L 307.0,209.5 L 313.3333333333333,213.33333333333334 L 319.66666666666663,217.16666666666669 L 326.0,221.0 L 332.3333333333333,224.83333333333331 L 338.6666666666667,228.66666666666666 L 345.0,232.5 L 351.3333333333333,236.33333333333334 L 357.6666666666667,240.16666666666666 L 364.0,244.0 L 370.33333333333337,247.83333333333331 L 376.6666666666667,251.66666666666669 L 383.0,251.66666666666669 L 389.33333333333337,251.66666666666669 L 395.66666666666663,251.66666666666669 L 402.0,251.66666666666669 L 408.3333333333333,251.66666666666669 L 414.66666666666663,251.66666666666669 L 421.0,251.66666666666669 L 427.3333333333333,251.66666666666669 L 433.6666666666667,251.66666666666669 L 440.0,251.66666666666669" stroke="#dc2626" stroke-width="2" fill="none"/>
  <path d="M 60.0,251.66666666666669 L 66.33333333333334,251.66666666666669 L 72.66666666666667,251.66666666666669 L 78.99999999999999,251.66666666666669 L 85.33333333333333,251.66666666666669 L 91.66666666666666,251.66666666666669 L 98.0,251.66666666666669 L 104.33333333333334,251.66666666666669 L 110.66666666666666,251.66666666666669 L 117.0,251.66666666666669 L 123.33333333333333,251.66666666666669 L 129.66666666666669,251.66666666666669 L 136.0,251.66666666666669 L 142.33333333333334,251.66666666666669 L 148.66666666666666,251.66666666666669 L 155.0,251.66666666666669 L 161.33333333333331,251.66666666666669 L 167.66666666666666,251.66666666666669 L 174.0,251.66666666666669 L 180.33333333333331,251.66666666666669 L 186.66666666666666,251.66666666666669 L 193.0,251.66666666666669 L 199.33333333333334,251.66666666666669 L 205.66666666666666,251.66666666666669 L 212.0,251.66666666666669 L 218.33333333333334,251.66666666666669 L 224.66666666666669,251.66666666666669 L 231.0,251.66666666666669 L 237.33333333333331,251.66666666666669 L 243.66666666666666,251.66666666666669 L 250.0,251.66666666666669 L 256.33333333333337,251.66666666666669 L 262.66666666666663,251.66666666666669 L 269.0,251.66666666666669 L 275.3333333333333,251.66666666666669 L 281.6666666666667,251.66666666666669 L 288.0,251.66666666666669 L 294.33333333333337,251.66666666666669 L 300.66666666666663,251.66666666666669 L 307.0,251.66666666666669 L 313.3333333333333,251.66666666666669 L 319.66666666666663,251.66666666666669 L 326.0,251.66666666666669 L 332.3333333333333,251.66666666666669 L 338.6666666666667,251.66666666666669 L 345.0,251.66666666666669 L 351.3333333333333,251.66666666666669 L 357.6666666666667,251.66666666666669 L 364.0,251.66666666666669 L 370.33333333333337,251.66666666666669 L 376.6666666666667,251.66666666666669 L 383.0,249.75 L 389.33333333333337,247.83333333333331 L 395.66666666666663,245.91666666666669 L 402.0,244.0 L 408.3333333333333,242.08333333333331 L 414.66666666666663,240.16666666666666 L 421.0,238.25 L 427.3333333333333,236.33333333333334 L 433.6666666666667,234.41666666666666 L 440.0,232.5" stroke="#16a34a" stroke-width="2" fill="none"/>
  <path d="M 60.0,60.0 L 66.33333333333334,65.75 L 72.66666666666667,71.50000000000003 L 78.99999999999999,77.24999999999997 L 85.33333333333333,83.0 L 91.66666666666666,88.75 L 98.0,94.5 L 104.33333333333334,100.25000000000003 L 110.66666666666666,105.99999999999997 L 117.0,111.75 L 123.33333333333333,117.5 L 129.66666666666669,123.25 L 136.0,128.99999999999997 L 142.33333333333334,134.75000000000003 L 148.66666666666666,140.5 L 155.0,146.25 L 161.33333333333331,152.0 L 167.66666666666666,157.74999999999997 L 174.0,163.5 L 180.33333333333331,169.25 L 186.66666666666666,175.0 L 193.0,180.75 L 199.33333333333334,186.5 L 205.66666666666666,192.25 L 212.0,198.0 L 218.33333333333334,203.75 L 224.66666666666669,209.5 L 231.0,215.25 L 237.33333333333331,221.0 L 243.66666666666666,226.75 L 250.0,232.5 L 256.33333333333337,238.25 L 262.66666666666663,244.0 L 269.0,249.75 L 275.3333333333333,251.66666666666669 L 281.6666666666667,251.66666666666669 L 288.0,251.66666666666669 L 294.33333333333337,251.66666666666669 L 300.66666666666663,251.66666666666669 L 307.0,251.66666666666669 L 313.3333333333333,251.66666666666669 L 319.66666666666663,251.66666666666669 L 326.0,251.66666666666669 L 332.3333333333333,251.66666666666669 L 338.6666666666667,251.66666666666669 L 345.0,251.66666666666669 L 351.3333333333333,251.66666666666669 L 357.6666666666667,251.66666666666669 L 364.0,251.66666666666669 L 370.33333333333337,251.66666666666669 L 376.6666666666667,251.66666666666669 L 383.0,251.66666666666669 L 389.33333333333337,251.66666666666669 L 395.66666666666663,251.66666666666669 L 402.0,251.66666666666669 L 408.3333333333333,251.66666666666669 L 414.66666666666663,251.66666666666669 L 421.0,251.66666666666669 L 427.3333333333333,251.66666666666669 L 433.6666666666667,251.66666666666669 L 440.0,251.66666666666669" stroke="#9333ea" stroke-width="2" fill="none"/>
  <g class="legend">
    <line x1="380" y1="70" x2="400" y2="70" stroke="#2563eb" stroke-width="2"/>
    <text x="405" y="74" fill="#1e293b">y = 2x + 1</text>
    <line x1="380" y1="90" x2="400" y2="90" stroke="#dc2626" stroke-width="2"/>
    <text x="405" y="94" fill="#1e293b">y = -x + 2</text>
    <line x1="380" y1="110" x2="400" y2="110" stroke="#16a34a" stroke-width="2"/>
    <text x="405" y="114" fill="#1e293b">y = 0.5x - 1</text>
    <line x1="380" y1="130" x2="400" y2="130" stroke="#9333ea" stroke-width="2"/>
    <text x="405" y="134" fill="#1e293b">y = -1.5x + 0.5</text>
  </g>
</svg>
