<?xml version="1.0" encoding="UTF-8"?>
<svg width="500" height="350" xmlns="http://www.w3.org/2000/svg">
  <style>
    .axis { stroke: #666; stroke-width: 1; }
    .grid { stroke: #ddd; stroke-width: 0.5; }
    .title { font-family: Arial, sans-serif; font-size: 16px; font-weight: bold; fill: #1e293b; }
    .label { font-family: Arial, sans-serif; font-size: 11px; fill: #64748b; }
    .legend { font-family: Arial, sans-serif; font-size: 11px; }
  </style>
  
  <!-- Title -->
  <text x="250.0" y="25" text-anchor="middle" class="title">After Sigmoid: σ(y)</text>
  
  <!-- Grid lines -->
  <g class="grid">
    <line x1="60.0" y1="60" x2="60.0" y2="290"/>
    <line x1="123.33333333333333" y1="60" x2="123.33333333333333" y2="290"/>
    <line x1="186.66666666666666" y1="60" x2="186.66666666666666" y2="290"/>
    <line x1="313.3333333333333" y1="60" x2="313.3333333333333" y2="290"/>
    <line x1="376.6666666666667" y1="60" x2="376.6666666666667" y2="290"/>
    <line x1="440.0" y1="60" x2="440.0" y2="290"/>
    <line x1="60" y1="60.0" x2="440" y2="60.0"/>
  </g>
  <g class="axis">
    <line x1="60" y1="290.0" x2="440" y2="290.0"/>
    <line x1="250.0" y1="60" x2="250.0" y2="290"/>
  </g>
  <g class="label">
    <text x="60.0" y="310.0" text-anchor="middle">-3</text>
    <text x="123.33333333333333" y="310.0" text-anchor="middle">-2</text>
    <text x="186.66666666666666" y="310.0" text-anchor="middle">-1</text>
    <text x="313.3333333333333" y="310.0" text-anchor="middle">1</text>
    <text x="376.6666666666667" y="310.0" text-anchor="middle">2</text>
    <text x="440.0" y="310.0" text-anchor="middle">3</text>
    <text x="240.0" y="64.0" text-anchor="end">1</text>
  </g>
  <path d="M 60.0,288.4606442874145 L 66.33333333333334,288.1226086347732 L 72.66666666666667,287.711085570612 L 78.99999999999999,287.2104599536169 L 85.33333333333333,286.6019727105472 L 91.66666666666666,285.86317170871894 L 98.0,284.96730768469 L 104.33333333333334,283.88269147732086 L 110.66666666666666,282.5720431193564 L 117.0,280.9918837567442 L 123.33333333333333,279.0920491691596 L 129.66666666666669,276.8154395432602 L 136.0,274.09816332103026 L 142.33333333333334,270.87027980639783 L 148.66666666666666,267.0573875024724 L 155.0,262.583327934913 L 161.33333333333331,257.3742550728878 L 167.66666666666666,251.36422858080263 L 174.0,244.5022943684738 L 180.33333333333331,236.76070020477408 L 186.66666666666666,228.14347308490113 L 193.0,218.69413065935086 L 199.33333333333334,208.50095043193295 L 205.66666666666666,197.69816182586396 L 212.0,186.4618193818699 L 218.33333333333334,175.0 L 224.66666666666669,163.5381806181301 L 231.0,152.30183817413604 L 237.33333333333331,141.49904956806705 L 243.66666666666666,131.3058693406491 L 250.0,121.85652691509887 L 256.33333333333337,113.23929979522597 L 262.66666666666663,105.4977056315262 L 269.0,98.63577141919737 L 275.3333333333333,92.62574492711218 L 281.6666666666667,87.41667206508706 L 288.0,82.94261249752759 L 294.33333333333337,79.12972019360214 L 300.66666666666663,75.90183667896974 L 307.0,73.1845604567398 L 313.3333333333333,70.90795083084032 L 319.66666666666663,69.00811624325578 L 326.0,67.42795688064362 L 332.3333333333333,66.11730852267917 L 338.6666666666667,65.03269231531004 L 345.0,64.13682829128106 L 351.3333333333333,63.39802728945281 L 357.6666666666667,62.78954004638308 L 364.0,62.28891442938797 L 370.33333333333337,61.87739136522677 L 376.6666666666667,61.53935571258549 L 383.0,61.261848746873625 L 389.33333333333337,61.03414282701647 L 395.66666666666663,60.84737517687026 L 402.0,60.69423575468292 L 408.3333333333333,60.56870332602597 L 414.66666666666663,60.46582368948148 L 421.0,60.381524248440115 L 427.3333333333333,60.31245958859864 L 433.6666666666667,60.25588328755785 L 440.0,60.209541774712136" stroke="#2563eb" stroke-width="2" fill="none"/>
  <path d="M 60.0,61.53935571258549 L 66.33333333333334,61.70005450918484 L 72.66666666666667,61.87739136522677 L 78.99999999999999,62.07305869015502 L 85.33333333333333,62.28891442938797 L 91.66666666666666,62.52699680503645 L 98.0,62.78954004638308 L 104.33333333333334,63.07899110036291 L 110.66666666666666,63.39802728945281 L 117.0,63.749574855431405 L 123.33333333333333,64.13682829128106 L 129.66666666666669,64.56327031883782 L 136.0,65.03269231531004 L 142.33333333333334,65.54921492606391 L 148.66666666666666,66.11730852267917 L 155.0,66.74181307281196 L 161.33333333333331,67.42795688064362 L 167.66666666666666,68.18137353270632 L 174.0,69.00811624325578 L 180.33333333333331,69.91466863644982 L 186.66666666666666,70.90795083084032 L 193.0,71.99531950803606 L 199.33333333333334,73.1845604567398 L 205.66666666666666,74.48387189310918 L 212.0,75.90183667896974 L 218.33333333333334,77.44738140488599 L 224.66666666666669,79.12972019360214 L 231.0,80.95828103341691 L 237.33333333333331,82.94261249752759 L 243.66666666666666,85.09226887499096 L 250.0,87.41667206508706 L 256.33333333333337,89.92494910348952 L 262.66666666666663,92.62574492711218 L 269.0,95.527010969213 L 275.3333333333333,98.63577141919737 L 281.6666666666667,101.95787047546196 L 288.0,105.4977056315262 L 294.33333333333337,109.25795390021153 L 300.66666666666663,113.23929979522597 L 307.0,117.44017571312293 L 313.3333333333333,121.85652691509887 L 319.66666666666663,126.48161439624911 L 326.0,131.3058693406491 L 332.3333333333333,136.31681240132178 L 338.6666666666667,141.49904956806705 L 345.0,146.83435382357345 L 351.3333333333333,152.30183817413604 L 357.6666666666667,157.87822113331842 L 364.0,163.5381806181301 L 370.33333333333337,169.25478687984378 L 376.6666666666667,175.0 L 383.0,180.74521312015622 L 389.33333333333337,186.46181938186993 L 395.66666666666663,192.12177886668155 L 402.0,197.69816182586396 L 408.3333333333333,203.16564617642655 L 414.66666666666663,208.50095043193295 L 421.0,213.68318759867822 L 427.3333333333333,218.69413065935086 L 433.6666666666667,223.51838560375091 L 440.0,228.14347308490113" stroke="#dc2626" stroke-width="2" fill="none"/>
  <path d="M 60.0,272.552618595114 L 66.33333333333334,271.72913368768496 L 72.66666666666667,270.87027980639783 L 78.99999999999999,269.9748723387376 L 85.33333333333333,269.04171896658306 L 91.66666666666666,268.0696230732048 L 98.0,267.0573875024724 L 104.33333333333334,266.0038186826297 L 110.66666666666666,264.90773112500904 L 117.0,263.7679523056481 L 123.33333333333333,262.583327934913 L 129.66666666666669,261.35272761689424 L 136.0,260.0750508965105 L 142.33333333333334,258.7492336879083 L 148.66666666666666,257.3742550728878 L 155.0,255.94914445271144 L 161.33333333333331,254.472989030787 L 167.66666666666666,252.9449415973854 L 174.0,251.36422858080263 L 180.33333333333331,249.73015832227085 L 186.66666666666666,248.04212952453804 L 193.0,246.29963981647802 L 199.33333333333334,244.5022943684738 L 205.66666666666666,242.64981448578212 L 212.0,240.74204609978847 L 218.33333333333334,238.77896807017896 L 224.66666666666669,236.76070020477405 L 231.0,234.68751089829553 L 237.33333333333331,232.55982428687707 L 243.66666666666666,230.37822681189542 L 250.0,228.14347308490113 L 256.33333333333337,225.85649094525849 L 262.66666666666663,223.51838560375091 L 269.0,221.13044276901377 L 275.3333333333333,218.69413065935086 L 281.6666666666667,216.21110081034038 L 288.0,213.68318759867822 L 294.33333333333337,211.11240641490474 L 300.66666666666663,208.50095043193295 L 307.0,205.85118593248416 L 313.3333333333333,203.16564617642655 L 319.66666666666663,200.44702380832103 L 326.0,197.69816182586396 L 332.3333333333333,194.9220431509859 L 338.6666666666667,192.12177886668155 L 345.0,189.30059520373356 L 351.3333333333333,186.4618193818699 L 357.6666666666667,183.6088644290624 L 364.0,180.74521312015622 L 370.33333333333337,177.8744011913684 L 376.6666666666667,175.0 L 383.0,172.12559880863162 L 389.33333333333337,169.25478687984378 L 395.66666666666663,166.3911355709376 L 402.0,163.5381806181301 L 408.3333333333333,160.69940479626644 L 414.66666666666663,157.87822113331842 L 421.0,155.07795684901407 L 427.3333333333333,152.30183817413604 L 433.6666666666667,149.55297619167894 L 440.0,146.83435382357345" stroke="#16a34a" stroke-width="2" fill="none"/>
  <path d="M 60.0,61.53935571258549 L 66.33333333333334,61.78654111794347 L 72.66666666666667,62.07305869015502 L 78.99999999999999,62.40504243334118 L 85.33333333333333,62.78954004638308 L 91.66666666666666,63.234634219946486 L 98.0,63.749574855431405 L 104.33333333333334,64.344921245519 L 110.66666666666666,65.03269231531004 L 117.0,65.82652174218049 L 123.33333333333333,66.74181307281196 L 129.66666666666669,67.79588775661097 L 136.0,69.00811624325578 L 142.33333333333334,70.40001890115613 L 148.66666666666666,71.99531950803606 L 155.0,73.81992954002175 L 161.33333333333331,75.9018366789698 L 167.66666666666666,78.27086631231504 L 174.0,80.95828103341691 L 180.33333333333331,83.99618131737031 L 186.66666666666666,87.41667206508706 L 193.0,91.25076631209166 L 199.33333333333334,95.527010969213 L 205.66666666666666,100.26984167772915 L 212.0,105.4977056315262 L 218.33333333333334,111.22103192982107 L 224.66666666666669,117.44017571312293 L 231.0,124.14350905474149 L 237.33333333333331,131.3058693406491 L 243.66666666666666,138.88759358509526 L 250.0,146.83435382357345 L 256.33333333333337,155.07795684901407 L 262.66666666666663,163.5381806181301 L 269.0,172.12559880863162 L 275.3333333333333,180.74521312015622 L 281.6666666666667,189.30059520373356 L 288.0,197.69816182586396 L 294.33333333333337,205.85118593248416 L 300.66666666666663,213.68318759867822 L 307.0,221.13044276901377 L 313.3333333333333,228.14347308490113 L 319.66666666666663,234.68751089829556 L 326.0,240.74204609978847 L 332.3333333333333,246.29963981647802 L 338.6666666666667,251.3642285808026 L 345.0,255.94914445271144 L 351.3333333333333,260.0750508965105 L 357.6666666666667,263.7679523056481 L 364.0,267.0573875024724 L 370.33333333333337,269.9748723387376 L 376.6666666666667,272.552618595114 L 383.0,274.8225278170197 L 389.33333333333337,276.8154395432602 L 395.66666666666663,278.56060234153193 L 402.0,280.0853313635502 L 408.3333333333333,281.4148159108502 L 414.66666666666663,282.5720431193564 L 421.0,283.57780802966323 L 427.3333333333333,284.45078507393606 L 433.6666666666667,285.2076407607035 L 440.0,285.86317170871894" stroke="#9333ea" stroke-width="2" fill="none"/>
  <g class="legend">
    <line x1="380" y1="70" x2="400" y2="70" stroke="#2563eb" stroke-width="2"/>
    <text x="405" y="74" fill="#1e293b">y = 2x + 1</text>
    <line x1="380" y1="90" x2="400" y2="90" stroke="#dc2626" stroke-width="2"/>
    <text x="405" y="94" fill="#1e293b">y = -x + 2</text>
    <line x1="380" y1="110" x2="400" y2="110" stroke="#16a34a" stroke-width="2"/>
    <text x="405" y="114" fill="#1e293b">y = 0.5x - 1</text>
    <line x1="380" y1="130" x2="400" y2="130" stroke="#9333ea" stroke-width="2"/>
    <text x="405" y="134" fill="#1e293b">y = -1.5x + 0.5</text>
  </g>
</svg>
