<?xml version="1.0" encoding="UTF-8"?>
<svg width="500" height="350" xmlns="http://www.w3.org/2000/svg">
  <style>
    .axis { stroke: #666; stroke-width: 1; }
    .grid { stroke: #ddd; stroke-width: 0.5; }
    .title { font-family: Arial, sans-serif; font-size: 16px; font-weight: bold; fill: #1e293b; }
    .label { font-family: Arial, sans-serif; font-size: 11px; fill: #64748b; }
    .legend { font-family: Arial, sans-serif; font-size: 11px; }
  </style>
  
  <!-- Title -->
  <text x="250.0" y="25" text-anchor="middle" class="title">After Tanh: tanh(y)</text>
  
  <!-- Grid lines -->
  <g class="grid">
    <line x1="60.0" y1="60" x2="60.0" y2="290"/>
    <line x1="123.33333333333333" y1="60" x2="123.33333333333333" y2="290"/>
    <line x1="186.66666666666666" y1="60" x2="186.66666666666666" y2="290"/>
    <line x1="313.3333333333333" y1="60" x2="313.3333333333333" y2="290"/>
    <line x1="376.6666666666667" y1="60" x2="376.6666666666667" y2="290"/>
    <line x1="440.0" y1="60" x2="440.0" y2="290"/>
    <line x1="60" y1="290.0" x2="440" y2="290.0"/>
    <line x1="60" y1="60.0" x2="440" y2="60.0"/>
  </g>
  <g class="axis">
    <line x1="60" y1="175.0" x2="440" y2="175.0"/>
    <line x1="250.0" y1="60" x2="250.0" y2="290"/>
  </g>
  <g class="label">
    <text x="60.0" y="195.0" text-anchor="middle">-3</text>
    <text x="123.33333333333333" y="195.0" text-anchor="middle">-2</text>
    <text x="186.66666666666666" y="195.0" text-anchor="middle">-1</text>
    <text x="313.3333333333333" y="195.0" text-anchor="middle">1</text>
    <text x="376.6666666666667" y="195.0" text-anchor="middle">2</text>
    <text x="440.0" y="195.0" text-anchor="middle">3</text>
    <text x="240.0" y="294.0" text-anchor="end">-1</text>
    <text x="240.0" y="64.0" text-anchor="end">1</text>
  </g>
  <path d="M 60.0,289.9895584901984 L 66.33333333333334,289.9844234455875 L 72.66666666666667,289.9767632854012 L 78.99999999999999,289.96533661764624 L 85.33333333333333,289.94829214284636 L 91.66666666666666,289.9228694699927 L 98.0,289.8849537453717 L 104.33333333333334,289.8284133682176 L 110.66666666666666,289.7441167124421 L 117.0,289.6184757515599 L 123.33333333333333,289.431296673974 L 129.66666666666669,289.1526248231297 L 136.0,288.73815125312643 L 142.33333333333334,288.1226086347732 L 148.66666666666666,287.2104599536169 L 155.0,285.86317170871894 L 161.33333333333331,283.88269147732086 L 167.66666666666666,280.9918837567442 L 174.0,276.8154395432602 L 180.33333333333331,270.8702798063979 L 186.66666666666666,262.583327934913 L 193.0,251.36422858080266 L 199.33333333333334,236.76070020477408 L 205.66666666666666,218.69413065935083 L 212.0,197.69816182586396 L 218.33333333333334,175.0 L 224.66666666666669,152.30183817413604 L 231.0,131.3058693406491 L 237.33333333333331,113.23929979522595 L 243.66666666666666,98.63577141919734 L 250.0,87.41667206508706 L 256.33333333333337,79.12972019360214 L 262.66666666666663,73.1845604567398 L 269.0,69.00811624325578 L 275.3333333333333,66.11730852267914 L 281.6666666666667,64.13682829128106 L 288.0,62.78954004638308 L 294.33333333333337,61.87739136522677 L 300.66666666666663,61.261848746873596 L 307.0,60.84737517687029 L 313.3333333333333,60.568703326026 L 319.66666666666663,60.381524248440115 L 326.0,60.25588328755788 L 332.3333333333333,60.171586631782446 L 338.6666666666667,60.11504625462831 L 345.0,60.07713053000728 L 351.3333333333333,60.051707857153644 L 357.6666666666667,60.034663382353756 L 364.0,60.023236714598795 L 370.33333333333337,60.01557655441255 L 376.6666666666667,60.01044150980158 L 383.0,60.00699925808715 L 389.33333333333337,60.00469179007439 L 395.66666666666663,60.003145022089456 L 402.0,60.002108180855544 L 408.3333333333333,60.001413160158506 L 414.66666666666663,60.0009472715013 L 421.0,60.00063497593854 L 427.3333333333333,60.00042563748775 L 433.6666666666667,60.00028531351447 L 440.0,60.00019125144635" stroke="#2563eb" stroke-width="2" fill="none"/>
  <path d="M 60.0,60.01044150980158 L 66.33333333333334,60.01275316068626 L 72.66666666666667,60.01557655441255 L 78.99999999999999,60.019024961255894 L 85.33333333333333,60.023236714598795 L 91.66666666666666,60.028380752476835 L 98.0,60.034663382353756 L 104.33333333333334,60.0423365381416 L 110.66666666666666,60.051707857153644 L 117.0,60.06315297590331 L 123.33333333333333,60.07713053000728 L 129.66666666666669,60.094200447946776 L 136.0,60.11504625462831 L 142.33333333333334,60.140502252669904 L 148.66666666666666,60.171586631782446 L 155.0,60.209541774712136 L 161.33333333333331,60.25588328755788 L 167.66666666666666,60.31245958859864 L 174.0,60.381524248440115 L 180.33333333333331,60.46582368948148 L 186.66666666666666,60.568703326026 L 193.0,60.69423575468295 L 199.33333333333334,60.84737517687029 L 205.66666666666666,61.034142827016495 L 212.0,61.261848746873596 L 218.33333333333334,61.53935571258552 L 224.66666666666669,61.87739136522677 L 231.0,62.28891442938797 L 237.33333333333331,62.78954004638308 L 243.66666666666666,63.39802728945281 L 250.0,64.13682829128106 L 256.33333333333337,65.03269231531002 L 262.66666666666663,66.11730852267914 L 269.0,67.42795688064362 L 275.3333333333333,69.00811624325578 L 281.6666666666667,70.90795083084035 L 288.0,73.1845604567398 L 294.33333333333337,75.90183667896977 L 300.66666666666663,79.12972019360214 L 307.0,82.94261249752759 L 313.3333333333333,87.41667206508706 L 319.66666666666663,92.62574492711221 L 326.0,98.63577141919734 L 332.3333333333333,105.49770563152617 L 338.6666666666667,113.23929979522595 L 345.0,121.85652691509887 L 351.3333333333333,131.30586934064914 L 357.6666666666667,141.49904956806705 L 364.0,152.30183817413604 L 370.33333333333337,163.53818061813007 L 376.6666666666667,175.0 L 383.0,186.46181938186993 L 389.33333333333337,197.698161825864 L 395.66666666666663,208.50095043193295 L 402.0,218.69413065935083 L 408.3333333333333,228.14347308490113 L 414.66666666666663,236.76070020477408 L 421.0,244.50229436847383 L 427.3333333333333,251.36422858080263 L 433.6666666666667,257.3742550728878 L 440.0,262.583327934913" stroke="#dc2626" stroke-width="2" fill="none"/>
  <path d="M 60.0,288.4606442874145 L 66.33333333333334,288.29994549081516 L 72.66666666666667,288.1226086347732 L 78.99999999999999,287.926941309845 L 85.33333333333333,287.711085570612 L 91.66666666666666,287.47300319496355 L 98.0,287.2104599536169 L 104.33333333333334,286.9210088996371 L 110.66666666666666,286.6019727105472 L 117.0,286.25042514456857 L 123.33333333333333,285.86317170871894 L 129.66666666666669,285.43672968116215 L 136.0,284.96730768469 L 142.33333333333334,284.45078507393606 L 148.66666666666666,283.88269147732086 L 155.0,283.25818692718804 L 161.33333333333331,282.5720431193564 L 167.66666666666666,281.81862646729365 L 174.0,280.9918837567442 L 180.33333333333331,280.0853313635502 L 186.66666666666666,279.0920491691596 L 193.0,278.00468049196394 L 199.33333333333334,276.8154395432602 L 205.66666666666666,275.5161281068908 L 212.0,274.09816332103026 L 218.33333333333334,272.552618595114 L 224.66666666666669,270.87027980639783 L 231.0,269.04171896658306 L 237.33333333333331,267.0573875024724 L 243.66666666666666,264.90773112500904 L 250.0,262.583327934913 L 256.33333333333337,260.0750508965105 L 262.66666666666663,257.3742550728878 L 269.0,254.472989030787 L 275.3333333333333,251.36422858080266 L 281.6666666666667,248.04212952453804 L 288.0,244.50229436847383 L 294.33333333333337,240.7420460997885 L 300.66666666666663,236.76070020477405 L 307.0,232.55982428687705 L 313.3333333333333,228.14347308490113 L 319.66666666666663,223.51838560375091 L 326.0,218.69413065935086 L 332.3333333333333,213.68318759867822 L 338.6666666666667,208.50095043193295 L 345.0,203.16564617642655 L 351.3333333333333,197.69816182586396 L 357.6666666666667,192.12177886668158 L 364.0,186.46181938186993 L 370.33333333333337,180.74521312015622 L 376.6666666666667,175.0 L 383.0,169.25478687984378 L 389.33333333333337,163.53818061813007 L 395.66666666666663,157.87822113331845 L 402.0,152.30183817413604 L 408.3333333333333,146.83435382357345 L 414.66666666666663,141.49904956806705 L 421.0,136.31681240132178 L 427.3333333333333,131.30586934064914 L 433.6666666666667,126.48161439624911 L 440.0,121.85652691509887" stroke="#16a34a" stroke-width="2" fill="none"/>
  <path d="M 60.0,60.01044150980158 L 66.33333333333334,60.014094340111825 L 72.66666666666667,60.019024961255894 L 78.99999999999999,60.025680268344814 L 85.33333333333333,60.034663382353756 L 91.66666666666666,60.04678820495269 L 98.0,60.06315297590331 L 104.33333333333334,60.085239412344066 L 110.66666666666666,60.11504625462831 L 117.0,60.155269028045524 L 123.33333333333333,60.209541774712136 L 129.66666666666669,60.282761682893806 L 136.0,60.381524248440115 L 142.33333333333334,60.514705159893566 L 148.66666666666666,60.69423575468295 L 155.0,60.93613167465611 L 161.33333333333331,61.261848746873596 L 167.66666666666666,61.700054509184866 L 174.0,62.28891442938797 L 180.33333333333331,63.078991100362884 L 186.66666666666666,64.13682829128106 L 193.0,65.54921492606391 L 199.33333333333334,67.42795688064362 L 205.66666666666666,69.91466863644982 L 212.0,73.1845604567398 L 218.33333333333334,77.44738140488602 L 224.66666666666669,82.94261249752759 L 231.0,89.92494910348952 L 237.33333333333331,98.63577141919734 L 243.66666666666666,109.25795390021153 L 250.0,121.85652691509887 L 256.33333333333337,136.31681240132178 L 262.66666666666663,152.30183817413604 L 269.0,169.25478687984378 L 275.3333333333333,186.46181938186993 L 281.6666666666667,203.16564617642655 L 288.0,218.69413065935083 L 294.33333333333337,232.55982428687702 L 300.66666666666663,244.50229436847383 L 307.0,254.472989030787 L 313.3333333333333,262.583327934913 L 319.66666666666663,269.0417189665831 L 326.0,274.09816332103026 L 332.3333333333333,278.00468049196394 L 338.6666666666667,280.9918837567442 L 345.0,283.25818692718804 L 351.3333333333333,284.96730768469 L 357.6666666666667,286.25042514456857 L 364.0,287.2104599536169 L 370.33333333333337,287.926941309845 L 376.6666666666667,288.4606442874145 L 383.0,288.8576356204869 L 389.33333333333337,289.1526248231297 L 395.66666666666663,289.37164902450746 L 402.0,289.53417631051855 L 408.3333333333333,289.65472808095046 L 414.66666666666663,289.7441167124421 L 421.0,289.81038232212836 L 427.3333333333333,289.85949774733007 L 433.6666666666667,289.89589688865465 L 440.0,289.9228694699927" stroke="#9333ea" stroke-width="2" fill="none"/>
  <g class="legend">
    <line x1="380" y1="70" x2="400" y2="70" stroke="#2563eb" stroke-width="2"/>
    <text x="405" y="74" fill="#1e293b">y = 2x + 1</text>
    <line x1="380" y1="90" x2="400" y2="90" stroke="#dc2626" stroke-width="2"/>
    <text x="405" y="94" fill="#1e293b">y = -x + 2</text>
    <line x1="380" y1="110" x2="400" y2="110" stroke="#16a34a" stroke-width="2"/>
    <text x="405" y="114" fill="#1e293b">y = 0.5x - 1</text>
    <line x1="380" y1="130" x2="400" y2="130" stroke="#9333ea" stroke-width="2"/>
    <text x="405" y="134" fill="#1e293b">y = -1.5x + 0.5</text>
  </g>
</svg>
